{
.appVersion = "3324";
.formatVersion = 3;
DisplayStrings = (
"Freuďs
dďkslľudďutdďmďvďy"
);
axes = (
{
name = Weight;
tag = wght;
}
);
classes = (
{
code = "zero one two three four five six seven eight nine";
name = fig;
},
{
code = "zerosuperior onesuperior twosuperior threesuperior foursuperior fivesuperior sixsuperior sevensuperior eightsuperior ninesuperior
";
name = sups;
},
{
code = "zeroinferior oneinferior twoinferior threeinferior fourinferior fiveinferior sixinferior seveninferior eightinferior nineinferior
";
name = dnom;
}
);
customParameters = (
{
disabled = 1;
name = glyphOrder;
value = (
.notdef,
NULL,
CR,
space,
uni00A0,
A,
B,
C,
D,
E,
F,
G,
H,
I,
J,
K,
L,
M,
N,
O,
P,
Q,
R,
S,
T,
U,
V,
W,
X,
Y,
Z,
Aacute,
Abreve,
Acircumflex,
Adieresis,
AE,
Agrave,
Amacron,
Aogonek,
Aring,
Atilde,
Cacute,
Ccaron,
Ccedilla,
Ccircumflex,
Cdotaccent,
Dcaron,
Dcroat,
Eacute,
Ebreve,
Ecaron,
Ecircumflex,
Edieresis,
Edotaccent,
Egrave,
Emacron,
Eng,
Eogonek,
Eth,
Gbreve,
Gcircumflex,
Gcommaaccent,
Gdotaccent,
Hbar,
Hcircumflex,
Iacute,
Ibreve,
Icircumflex,
Idieresis,
Idotaccent,
Igrave,
IJ,
Imacron,
Iogonek,
Itilde,
Jcircumflex,
Kcommaaccent,
Lacute,
Lcaron,
Lcommaaccent,
Ldot,
Lslash,
Nacute,
Ncaron,
Ncommaaccent,
Ntilde,
Oacute,
Obreve,
Ocircumflex,
Odieresis,
OE,
Ograve,
Ohungarumlaut,
Omacron,
Oslash,
Otilde,
Racute,
Rcaron,
Rcommaaccent,
Sacute,
Scaron,
Scedilla,
Scircumflex,
Scommaaccent,
Tbar,
Tcaron,
Tcedilla,
uni021A,
Thorn,
Uacute,
Ubreve,
Ucircumflex,
Udieresis,
Ugrave,
Uhungarumlaut,
Umacron,
Uogonek,
Uring,
Utilde,
Wacute,
Wdieresis,
Wgrave,
Wcircumflex,
Yacute,
Ycircumflex,
Ydieresis,
Ygrave,
Zacute,
Zcaron,
Zdotaccent,
a,
b,
c,
d,
e,
f,
g,
h,
i,
j,
k,
l,
m,
n,
o,
p,
q,
r,
s,
t,
u,
v,
w,
x,
y,
z,
aacute,
abreve,
acircumflex,
adieresis,
ae,
agrave,
amacron,
aogonek,
aring,
atilde,
cacute,
ccaron,
ccedilla,
ccircumflex,
cdotaccent,
dcaron,
dcroat,
dotlessi,
dotlessj,
eacute,
ebreve,
ecaron,
ecircumflex,
edieresis,
edotaccent,
egrave,
emacron,
eng,
eogonek,

glyphs = (
{
glyphname = A;
kernLeft = A;
kernRight = A;
lastChange = "2024-11-06 22:35:57 +0000";
layers = (
{
anchors = (
{
name = bottom;
pos = (648,0);
},
{
name = top;
pos = (328,700);
}
);
layerId = m001;
shapes = (
{
closed = 1;
nodes = (
(56,0,l),
(154,237,l),
(501,237,l),
(598,0,l),
(648,0,l),
(357,700,l),
(300,700,l),
(8,0,l)
);
},
{
closed = 1;
nodes = (
(328,657,l),
(484,278,l),
(171,278,l)
);
}
);
width = 655;
},
{
anchors = (
{
name = bottom;
pos = (675,0);
},
{
name = top;
pos = (340,700);
}
);
layerId = "00637EAA-82D4-47CE-A25D-74860BA059DC";
shapes = (
{
closed = 1;
nodes = (
(84,0,l),
(173,220,l),
(503,220,l),
(591,0,l),
(675,0,l),
(387,700,l),
(294,700,l),
(4,0,l)
);
},
{
closed = 1;
nodes = (
(338,629,l),
(476,286,l),
(200,286,l)
);
}
);
width = 679;
},
{
anchors = (
{
name = bottom;
pos = (760,0);
},
{
name = top;
pos = (377,700);
}
);
layerId = "7F797451-F356-4E8F-9E4B-AB77A40997AF";
shapes = (
{
closed = 1;
nodes = (
(172,0,l),
(237,169,l),
(510,169,l),
(574,0,l),
(760,0,l),
(477,700,l),
(280,700,l),
(-7,0,l)
);
},
{
closed = 1;
nodes = (
(375,530,l),
(459,306,l),
(289,306,l)
);
}
);
width = 753;
}
);
unicode = 65;
},
{
glyphname = Aogonek;
kernLeft = A;
kernRight = A;
lastChange = "2024-11-06 22:35:57 +0000";
layers = (
{
layerId = m001;
shapes = (
{
closed = 1;
nodes = (
(619,-221,o),
(642,-214,o),
(662,-201,c),
(649,-172,l),
(634,-182,o),
(616,-187,o),
(598,-187,cs),
(560,-187,o),
(536,-168,o),
(536,-131,cs),
(536,-94,o),
(563,-55,o),
(648,0,c),
(357,700,l),
(300,700,l),
(8,0,l),
(56,0,l),
(154,237,l),
(501,237,l),
(598,0,l),
(599,0,l),
(524,-54,o),
(497,-94,o),
(497,-138,cs),
(497,-185,o),
(531,-221,o),
(593,-221,cs)
);
},
{
closed = 1;
nodes = (
(328,657,l),
(484,278,l),
(171,278,l)
);
}
);
width = 655;
},
{
layerId = "00637EAA-82D4-47CE-A25D-74860BA059DC";
shapes = (
{
closed = 1;
nodes = (
(645,-221,o),
(669,-214,o),
(691,-200,c),
(676,-161,l),
(662,-171,o),
(645,-175,o),
(628,-175,cs),
(591,-175,o),
(570,-156,o),
(570,-123,cs),
(570,-84,o),
(603,-46,o),
(676,0,c),
(388,700,l),
(295,700,l),
(4,0,l),
(84,0,l),
(173,220,l),
(503,220,l),
(591,0,l),
(618,0,l),
(548,-48,o),
(519,-88,o),
(519,-135,cs),
(519,-187,o),
(558,-221,o),
(617,-221,cs)
);
},
{
closed = 1;
nodes = (
(339,628,l),
(476,286,l),
(200,286,l)
);
}
);
width = 679;
},
{
layerId = "7F797451-F356-4E8F-9E4B-AB77A40997AF";
shapes = (
{
closed = 1;
nodes = (
(725,-221,o),
(757,-212,o),
(780,-198,c),
(759,-128,l),
(749,-135,o),
(735,-139,o),
(723,-139,cs),
(694,-139,o),
(676,-124,o),
(676,-98,cs),
(676,-64,o),
(702,-33,o),
(760,0,c),
(477,700,l),
(280,700,l),
(-7,0,l),
(172,0,l),
(237,169,l),
(510,169,l),
(574,0,l),
(672,0,l),
(612,-38,o),
(585,-78,o),
(585,-127,cs),
(585,-183,o),
(628,-221,o),
(693,-221,cs)
);
},
{
closed = 1;
nodes = (
(375,530,l),
(459,306,l),
(289,306,l)
);
}
);
width = 753;
}
);
unicode = 260;
},
{
glyphname = AE;
kernLeft = A;
kernRight = E;
lastChange = "2024-11-06 22:35:57 +0000";
layers = (
{
layerId = m001;
shapes = (
{
closed = 1;
nodes = (
(56,0,l),
(154,237,l),
(501,237,l),
(598,0,l),
(908,0,l),
(908,43,l),
(630,43,l),
(510,332,l),
(762,332,l),
(762,375,l),
(492,375,l),
(375,657,l),
(904,657,l),
(904,700,l),
(300,700,l),
(8,0,l)
);
},
{
closed = 1;
nodes = (
(328,657,l),
(484,278,l),
(171,278,l)
);
}
);
width = 939;
},
{
layerId = "00637EAA-82D4-47CE-A25D-74860BA059DC";
shapes = (
{
closed = 1;
nodes = (
(84,0,l),
(173,220,l),
(503,220,l),
(591,0,l),
(919,0,l),
(919,68,l),
(645,68,l),
(544,320,l),
(778,320,l),
(778,387,l),
(517,387,l),
(418,632,l),
(919,632,l),
(919,700,l),
(295,700,l),
(4,0,l)
);
},
{
closed = 1;
nodes = (
(339,628,l),
(476,286,l),
(200,286,l)
);
}
);
width = 953;
},
{
layerId = "7F797451-F356-4E8F-9E4B-AB77A40997AF";
shapes = (
{
closed = 1;
nodes = (
(172,0,l),
(237,169,l),
(510,169,l),
(574,0,l),
(951,0,l),
(951,149,l),
(693,149,l),
(642,281,l),
(828,281,l),
(828,425,l),
(587,425,l),
(539,551,l),
(951,551,l),
(951,700,l),
(280,700,l),
(-7,0,l)
);
},
{
closed = 1;
nodes = (
(375,530,l),
(459,306,l),
(289,306,l)
);
}
);
width = 994;
}
);
unicode = 198;
},
{
glyphname = B;
kernLeft = H;
lastChange = "2024-11-06 22:35:57 +0000";
layers = (
{
guides = (
{
pos = (404,192);
userData = {
UFO.identifier = qGGesCPrTG;
};
}
);
layerId = m001;
shapes = (
{
closed = 1;
nodes = (
(357,0,ls),
(504,0,o),
(591,79,o),
(591,193,cs),
(591,283,o),
(534,346,o),
(436,367,c),
(515,390,o),
(560,448,o),
(560,526,cs),
(560,631,o),
(482,700,o),
(346,700,cs),
(83,700,l),
(83,0,l)
);
},
{
closed = 1;
nodes = (
(129,657,l),
(345,657,ls),
(450,657,o),
(515,602,o),
(515,522,cs),
(515,442,o),
(450,387,o),
(345,387,cs),
(129,387,l)
);
},
{
closed = 1;
nodes = (
(129,344,l),
(353,344,ls),
(470,344,o),
(544,283,o),
(544,194,cs),
(544,105,o),
(470,43,o),
(353,43,cs),
(129,43,l)
);
}
);
userData = {
com.typemytype.robofont.guideline.showMeasurements.qGGesCPrTG = 1;
};
width = 641;
},
{
layerId = "00637EAA-82D4-47CE-A25D-74860BA059DC";
shapes = (
{
closed = 1;
nodes = (
(373,0,ls),
(517,0,o),
(611,77,o),
(611,197,cs),
(611,278,o),
(559,339,o),
(475,365,c),
(542,393,o),
(582,448,o),
(582,520,cs),
(582,630,o),
(496,700,o),
(361,700,cs),
(77,700,l),
(77,0,l)
);
},
{
closed = 1;
nodes = (
(154,633,l),
(357,633,ls),
(448,633,o),
(506,587,o),
(506,514,cs),
(506,441,o),
(448,395,o),
(357,395,cs),
(154,395,l)
);
},
{
closed = 1;
nodes = (
(154,331,l),
(367,331,ls),
(468,331,o),
(533,279,o),
(533,199,cs),
(533,119,o),
(468,67,o),
(367,67,cs),
(154,67,l)
);
}
);
userData = {
com.typemytype.robofont.guideline.showMeasurements.qGGesCPrTG = 1;
};
width = 657;
},
{
layerId = "7F797451-F356-4E8F-9E4B-AB77A40997AF";
shapes = (
{
closed = 1;
nodes = (
(422,0,ls),
(570,0,o),
(670,83,o),
(670,206,cs),
(670,270,o),
(630,326,o),
(568,359,c),
(617,394,o),
(648,445,o),
(648,503,cs),
(648,619,o),
(548,700,o),
(405,700,cs),
(58,700,l),
(58,0,l)
);
},
{
closed = 1;
nodes = (
(230,559,l),
(394,559,ls),
(444,559,o),
(476,532,o),
(476,490,cs),
(476,448,o),
(444,421,o),
(394,421,cs),
(230,421,l)
);
},
{
closed = 1;
nodes = (
(230,289,l),
(409,289,ls),
(462,289,o),
(496,260,o),
(496,215,cs),
(496,170,o),
(462,141,o),
(409,141,cs),
(230,141,l)
);
}
);
userData = {
com.typemytype.robofont.guideline.showMeasurements.qGGesCPrTG = 1;
};
width = 705;
}
);
unicode = 66;
},
{
glyphname = C;
kernLeft = O;
kernRight = C;
lastChange = "2024-11-06 22:35:57 +0000";
layers = (
{
anchors = (
{
name = bottom;
pos = (406,0);
},
{
name = top;
pos = (402,700);
}
);
layerId = m001;
shapes = (
{
closed = 1;
nodes = (
(511,-11,o),
(606,26,o),
(677,97,c),
(647,132,l),
(590,70,o),
(498,32,o),
(407,32,cs),
(229,32,o),
(95,172,o),
(95,350,cs),
(95,528,o),
(229,668,o),
(407,668,cs),
(498,668,o),
(590,630,o),
(647,568,c),
(677,603,l),
(606,674,o),
(511,711,o),
(407,711,cs),
(204,711,o),
(48,551,o),
(48,350,cs),
(48,149,o),
(204,-11,o),
(407,-11,cs)
);
}
);
userData = {
com.typemytype.robofont.guideline.magnetic.jQ0NX76RbG = 5;
com.typemytype.robofont.guideline.magnetic.jZKo2ahIuC = 5;
com.typemytype.robofont.guideline.magnetic.yz63AWOcUr = 5;
};
width = 724;
},
{
anchors = (
{
name = bottom;
pos = (407,0);
},
{
name = top;
pos = (403,700);
}
);
layerId = "00637EAA-82D4-47CE-A25D-74860BA059DC";
shapes = (
{
closed = 1;
nodes = (
(513,-11,o),
(612,31,o),
(682,104,c),
(632,156,l),
(579,96,o),
(496,60,o),
(409,60,cs),
(246,60,o),
(122,186,o),
(122,350,cs),
(122,514,o),
(245,640,o),
(407,640,cs),
(493,640,o),
(578,604,o),
(633,542,c),
(684,596,l),
(616,669,o),
(516,711,o),
(407,711,cs),
(203,711,o),
(44,552,o),
(44,350,cs),
(44,148,o),
(203,-11,o),
(407,-11,cs)
);
}
);
userData = {
com.typemytype.robofont.guideline.magnetic.jQ0NX76RbG = 5;
com.typemytype.robofont.guideline.magnetic.jZKo2ahIuC = 5;
com.typemytype.robofont.guideline.magnetic.yz63AWOcUr = 5;
};
width = 722;
},
{
anchors = (
{
name = bottom;
pos = (410,0);
},
{
name = top;
pos = (408,700);
}
);
layerId = "7F797451-F356-4E8F-9E4B-AB77A40997AF";
shapes = (
{
closed = 1;
nodes = (
(521,-10,o),
(636,43,o),
(701,125,c),
(588,236,l),
(541,178,o),
(483,149,o),
(415,149,cs),
(298,149,o),
(210,236,o),
(210,350,cs),
(210,466,o),
(296,553,o),
(409,553,cs),
(480,553,o),
(541,522,o),
(590,460,c),
(706,574,l),
(642,657,o),
(525,711,o),
(409,711,cs),
(197,711,o),
(33,554,o),
(33,350,cs),
(33,147,o),
(196,-10,o),
(409,-10,cs)
);
}
);
userData = {
com.typemytype.robofont.guideline.magnetic.jQ0NX76RbG = 5;
com.typemytype.robofont.guideline.magnetic.jZKo2ahIuC = 5;
com.typemytype.robofont.guideline.magnetic.yz63AWOcUr = 5;
};
width = 716;
}
);
unicode = 67;
},
{
glyphname = Ccedilla;
kernLeft = O;
kernRight = C;
lastChange = "2024-11-06 22:35:57 +0000";
layers = (
{
layerId = m001;
shapes = (
{
closed = 1;
nodes = (
(458,-224,o),
(501,-189,o),
(501,-138,cs),
(501,-92,o),
(463,-61,o),
(406,-60,c),
(419,-11,l),
(518,-8,o),
(609,29,o),
(677,97,c),
(647,132,l),
(590,70,o),
(498,32,o),
(407,32,cs),
(229,32,o),
(95,172,o),
(95,350,cs),
(95,528,o),
(229,668,o),
(407,668,cs),
(498,668,o),
(590,630,o),
(647,568,c),
(677,603,l),
(606,674,o),
(511,711,o),
(407,711,cs),
(204,711,o),
(48,551,o),
(48,350,cs),
(48,156,o),
(193,0,o),
(386,-10,c),
(365,-89,l),
(388,-89,ls),
(436,-89,o),
(464,-108,o),
(464,-139,cs),
(464,-172,o),
(437,-193,o),
(395,-193,cs),
(365,-193,o),
(337,-182,o),
(310,-161,c),
(287,-186,l),
(313,-210,o),
(353,-224,o),
(395,-224,cs)
);
}
);
width = 724;
},
{
layerId = "00637EAA-82D4-47CE-A25D-74860BA059DC";
shapes = (
{
closed = 1;
nodes = (
(460,-228,o),
(508,-190,o),
(508,-137,cs),
(508,-89,o),
(471,-58,o),
(413,-55,c),
(425,-11,l),
(524,-6,o),
(616,35,o),
(682,104,c),
(632,156,l),
(579,96,o),
(496,60,o),
(409,60,cs),
(246,60,o),
(122,186,o),
(122,350,cs),
(122,514,o),
(245,640,o),
(407,640,cs),
(493,640,o),
(578,604,o),
(633,542,c),
(684,596,l),
(616,669,o),
(516,711,o),
(407,711,cs),
(203,711,o),
(44,552,o),
(44,350,cs),
(44,156,o),
(190,2,o),
(382,-10,c),
(359,-91,l),
(388,-91,ls),
(431,-91,o),
(457,-109,o),
(457,-138,cs),
(457,-167,o),
(433,-187,o),
(393,-187,cs),
(363,-187,o),
(335,-176,o),
(310,-155,c),
(280,-187,l),
(309,-214,o),
(349,-228,o),
(393,-228,cs)
);
}
);
width = 722;
},
{
layerId = "7F797451-F356-4E8F-9E4B-AB77A40997AF";
shapes = (
{
closed = 1;
nodes = (
(467,-239,o),
(527,-193,o),
(527,-134,cs),
(527,-83,o),
(491,-48,o),
(432,-42,c),
(442,-8,l),
(543,1,o),
(642,51,o),
(701,125,c),
(588,236,l),
(541,178,o),
(483,149,o),
(415,149,cs),
(298,149,o),
(210,236,o),
(210,350,cs),
(210,466,o),
(296,553,o),
(409,553,cs),
(480,553,o),
(541,522,o),
(590,460,c),
(706,574,l),
(642,657,o),
(525,711,o),
(409,711,cs),
(197,711,o),
(33,554,o),
(33,350,cs),
(33,161,o),
(175,11,o),
(367,-8,c),
(340,-99,l),
(387,-99,ls),
(417,-99,o),
(436,-112,o),
(436,-132,cs),
(436,-154,o),
(418,-166,o),
(385,-166,cs),
(359,-166,o),
(333,-156,o),
(309,-138,c),
(258,-192,l),
(294,-224,o),
(336,-239,o),
(388,-239,cs)
);
}
);
width = 716;
}
);
unicode = 199;
},
{
glyphname = D;
kernLeft = H;
kernRight = O;
lastChange = "2024-11-06 22:35:57 +0000";
layers = (
{
anchors = (
{
name = top;
pos = (356,700);
}
);
layerId = m001;
shapes = (
{
closed = 1;
nodes = (
(129,657,l),
(303,657,ls),
(482,657,o),
(618,525,o),
(618,350,cs),
(618,175,o),
(482,43,o),
(303,43,cs),
(129,43,l)
);
},
{
closed = 1;
nodes = (
(297,0,ls),
(518,0,o),
(665,150,o),
(665,350,cs),
(665,550,o),
(518,700,o),
(297,700,cs),
(83,700,l),
(83,0,l)
);
}
);
width = 713;
},
{
anchors = (
{
name = top;
pos = (360,700);
}
);
layerId = "00637EAA-82D4-47CE-A25D-74860BA059DC";
shapes = (
{
closed = 1;
nodes = (
(154,630,l),
(312,630,ls),
(474,630,o),
(598,509,o),
(598,350,cs),
(598,191,o),
(474,70,o),
(312,70,cs),
(154,70,l)
);
},
{
closed = 1;
nodes = (
(308,0,ls),
(522,0,o),
(676,147,o),
(676,350,cs),
(676,553,o),
(521,700,o),
(308,700,cs),
(77,700,l),
(77,0,l)
);
}
);
width = 720;
},
{
anchors = (
{
name = top;
pos = (373,700);
}
);
layerId = "7F797451-F356-4E8F-9E4B-AB77A40997AF";
shapes = (
{
closed = 1;
nodes = (
(230,548,l),
(338,548,ls),
(448,548,o),
(534,460,o),
(534,348,cs),
(534,238,o),
(448,152,o),
(338,152,cs),
(230,152,l)
);
},
{
closed = 1;
nodes = (
(342,0,ls),
(549,0,o),
(712,154,o),
(712,348,cs),
(712,545,o),
(549,700,o),
(342,700,cs),
(58,700,l),
(58,0,l)
);
}
);
width = 745;
}
);
unicode = 68;
},
{
glyphname = Dcroat;
kernLeft = H;
kernRight = O;
lastChange = "2024-11-06 22:35:57 +0000";
layers = (
{
layerId = m001;
shapes = (
{
closed = 1;
nodes = (
(297,0,ls),
(518,0,o),
(665,150,o),
(665,350,cs),
(665,550,o),
(518,700,o),
(297,700,cs),
(83,700,l),
(83,375,l),
(13,375,l),
(13,334,l),
(83,334,l),
(83,0,l)
);
},
{
closed = 1;
nodes = (
(129,334,l),
(348,334,l),
(348,375,l),
(129,375,l),
(129,657,l),
(303,657,ls),
(482,657,o),
(618,525,o),
(618,350,cs),
(618,175,o),
(482,43,o),
(303,43,cs),
(129,43,l)
);
}
);
width = 713;
},
{
layerId = "00637EAA-82D4-47CE-A25D-74860BA059DC";
shapes = (
{
closed = 1;
nodes = (
(331,0,ls),
(545,0,o),
(699,147,o),
(699,350,cs),
(699,553,o),
(544,700,o),
(331,700,cs),
(100,700,l),
(100,383,l),
(13,383,l),
(13,317,l),
(100,317,l),
(100,0,l)
);
},
{
closed = 1;
nodes = (
(177,317,l),
(366,317,l),
(366,383,l),
(177,383,l),
(177,630,l),
(335,630,ls),
(497,630,o),
(621,509,o),
(621,350,cs),
(621,191,o),
(497,70,o),
(335,70,cs),
(177,70,l)
);
}
);
width = 744;
},
{
layerId = "7F797451-F356-4E8F-9E4B-AB77A40997AF";
shapes = (
{
closed = 1;
nodes = (
(377,0,ls),
(584,0,o),
(747,154,o),
(747,348,cs),
(747,545,o),
(584,700,o),
(377,700,cs),
(93,700,l),
(93,418,l),
(18,418,l),
(18,283,l),
(93,283,l),
(93,0,l)
);
},
{
closed = 1;
nodes = (
(265,283,l),
(421,283,l),
(421,418,l),
(265,418,l),
(265,548,l),
(373,548,ls),
(483,548,o),
(569,460,o),
(569,348,cs),
(569,238,o),
(483,152,o),
(373,152,cs),
(265,152,l)
);
}
);
width = 780;
}
);
unicode = 272;
},
{
glyphname = E;
kernLeft = H;
kernRight = E;
lastChange = "2024-11-06 22:35:57 +0000";
layers = (
{
anchors = (
{
name = bottom;
pos = (571,0);
},
{
name = top;
pos = (339,700);
}
);
layerId = m001;
shapes = (
{
closed = 1;
nodes = (
(571,0,l),
(571,43,l),
(129,43,l),
(129,332,l),
(415,332,l),
(415,375,l),
(129,375,l),
(129,657,l),
(567,657,l),
(567,700,l),
(83,700,l),
(83,0,l)
);
}
);
userData = {
com.typemytype.robofont.guideline.magnetic.KXcVhIIV3R = 5;
com.typemytype.robofont.guideline.magnetic.he3jOqoy5f = 5;
};
width = 602;
},
{
anchors = (
{
name = bottom;
pos = (582,0);
},
{
name = top;
pos = (340,700);
}
);
layerId = "00637EAA-82D4-47CE-A25D-74860BA059DC";
shapes = (
{
closed = 1;
nodes = (
(582,0,l),
(582,68,l),
(154,68,l),
(154,320,l),
(431,320,l),
(431,387,l),
(154,387,l),
(154,632,l),
(578,632,l),
(578,700,l),
(77,700,l),
(77,0,l)
);
}
);
userData = {
com.typemytype.robofont.guideline.magnetic.KXcVhIIV3R = 5;
com.typemytype.robofont.guideline.magnetic.he3jOqoy5f = 5;
};
width = 616;
},
{
anchors = (
{
name = bottom;
pos = (614,0);
},
{
name = top;
pos = (346,700);
}
);
layerId = "7F797451-F356-4E8F-9E4B-AB77A40997AF";
shapes = (
{
closed = 1;
nodes = (
(614,0,l),
(614,149,l),
(230,149,l),
(230,281,l),
(481,281,l),
(481,425,l),
(230,425,l),
(230,551,l),
(610,551,l),
(610,700,l),
(58,700,l),
(58,0,l)
);
}
);
userData = {
com.typemytype.robofont.guideline.magnetic.KXcVhIIV3R = 5;
com.typemytype.robofont.guideline.magnetic.he3jOqoy5f = 5;
};
width = 657;
}
);
unicode = 69;
},
{
glyphname = Eogonek;
kernLeft = H;
kernRight = E;
lastChange = "2024-11-06 22:35:57 +0000";
layers = (
{
layerId = m001;
shapes = (
{
closed = 1;
nodes = (
(572,-172,l),
(557,-182,o),
(539,-187,o),
(521,-187,cs),
(483,-187,o),
(459,-168,o),
(459,-131,cs),
(459,-94,o),
(486,-55,o),
(571,0,c),
(571,43,l),
(129,43,l),
(129,332,l),
(415,332,l),
(415,375,l),
(129,375,l),
(129,657,l),
(567,657,l),
(567,700,l),
(83,700,l),
(83,0,l),
(522,0,l),
(447,-54,o),
(420,-94,o),
(420,-138,cs),
(420,-185,o),
(454,-221,o),
(516,-221,cs),
(542,-221,o),
(565,-214,o),
(585,-201,c)
);
}
);
width = 602;
},
{
layerId = "00637EAA-82D4-47CE-A25D-74860BA059DC";
shapes = (
{
closed = 1;
nodes = (
(582,-161,l),
(568,-171,o),
(551,-175,o),
(534,-175,cs),
(497,-175,o),
(476,-156,o),
(476,-123,cs),
(476,-84,o),
(509,-46,o),
(582,0,c),
(582,68,l),
(154,68,l),
(154,320,l),
(431,320,l),
(431,387,l),
(154,387,l),
(154,632,l),
(578,632,l),
(578,700,l),
(77,700,l),
(77,0,l),
(524,0,l),
(454,-48,o),
(425,-88,o),
(425,-135,cs),
(425,-187,o),
(464,-221,o),
(523,-221,cs),
(551,-221,o),
(575,-214,o),
(597,-200,c)
);
}
);
width = 616;
},
{
layerId = "7F797451-F356-4E8F-9E4B-AB77A40997AF";
shapes = (
{
closed = 1;
nodes = (
(613,-128,l),
(603,-135,o),
(589,-139,o),
(577,-139,cs),
(548,-139,o),
(530,-124,o),
(530,-98,cs),
(530,-64,o),
(556,-33,o),
(614,0,c),
(614,149,l),
(230,149,l),
(230,281,l),
(481,281,l),
(481,425,l),
(230,425,l),
(230,551,l),
(610,551,l),
(610,700,l),
(58,700,l),
(58,0,l),
(526,0,l),
(466,-38,o),
(439,-78,o),
(439,-127,cs),
(439,-183,o),
(482,-221,o),
(547,-221,cs),
(579,-221,o),
(611,-212,o),
(634,-198,c)
);
}
);
width = 657;
}
);
unicode = 280;
},
{
glyphname = F;
kernLeft = H;
lastChange = "2024-11-06 22:35:57 +0000";
layers = (
{
layerId = m001;
shapes = (
{
closed = 1;
nodes = (
(129,0,l),
(129,327,l),
(415,327,l),
(415,370,l),
(129,370,l),
(129,657,l),
(566,657,l),
(566,700,l),
(83,700,l),
(83,0,l)
);
}
);
width = 592;
},
{
layerId = "00637EAA-82D4-47CE-A25D-74860BA059DC";
shapes = (
{
closed = 1;
nodes = (
(154,0,l),
(154,315,l),
(432,315,l),
(432,382,l),
(154,382,l),
(154,632,l),
(578,632,l),
(578,700,l),
(77,700,l),
(77,0,l)
);
}
);
width = 607;
},
{
layerId = "7F797451-F356-4E8F-9E4B-AB77A40997AF";
shapes = (
{
closed = 1;
nodes = (
(230,0,l),
(230,276,l),
(486,276,l),
(486,420,l),
(230,420,l),
(230,551,l),
(614,551,l),
(614,700,l),
(58,700,l),
(58,0,l)
);
}
);
width = 652;
}
);
unicode = 70;
},
{
glyphname = G;
kernLeft = O;
kernRight = G;
lastChange = "2024-11-06 22:35:57 +0000";
layers = (
{
anchors = (
{
name = bottom;
pos = (409,0);
},
{
name = top;
pos = (404,700);
}
);
layerId = m001;
shapes = (
{
closed = 1;
nodes = (
(595,-11,o),
(740,140,o),
(740,329,cs),
(740,354,l),
(426,354,l),
(426,311,l),
(695,311,l),
(686,152,o),
(568,32,o),
(406,32,cs),
(228,32,o),
(95,172,o),
(95,350,cs),
(95,528,o),
(229,668,o),
(407,668,cs),
(498,668,o),
(590,630,o),
(647,568,c),
(677,603,l),
(606,674,o),
(511,711,o),
(407,711,cs),
(204,711,o),
(48,551,o),
(48,350,cs),
(48,149,o),
(203,-11,o),
(406,-11,cs)
);
}
);
userData = {
SBAlt = left;
com.typemytype.robofont.guideline.magnetic.GZSeIUowNo = 5;
com.typemytype.robofont.guideline.magnetic.Hfkj6T7YAY = 5;
com.typemytype.robofont.guideline.magnetic.rbaIqQY7hA = 5;
};
width = 786;
},
{
anchors = (
{
name = bottom;
pos = (409,0);
},
{
name = top;
pos = (404,700);
}
);
layerId = "00637EAA-82D4-47CE-A25D-74860BA059DC";
shapes = (
{
closed = 1;
nodes = (
(598,-11,o),
(746,140,o),
(746,335,cs),
(746,366,l),
(417,366,l),
(417,298,l),
(668,298,l),
(656,161,o),
(547,60,o),
(405,60,cs),
(245,60,o),
(122,186,o),
(122,350,cs),
(122,514,o),
(245,640,o),
(405,640,cs),
(491,640,o),
(575,604,o),
(629,543,c),
(681,596,l),
(613,669,o),
(513,711,o),
(405,711,cs),
(203,711,o),
(44,551,o),
(44,350,cs),
(44,149,o),
(204,-11,o),
(406,-11,cs)
);
}
);
userData = {
SBAlt = left;
com.typemytype.robofont.guideline.magnetic.GZSeIUowNo = 5;
com.typemytype.robofont.guideline.magnetic.Hfkj6T7YAY = 5;
com.typemytype.robofont.guideline.magnetic.rbaIqQY7hA = 5;
};
width = 788;
},
{
anchors = (
{
name = bottom;
pos = (410,0);
},
{
name = top;
pos = (406,700);
}
);
layerId = "7F797451-F356-4E8F-9E4B-AB77A40997AF";
shapes = (
{
closed = 1;
nodes = (
(613,-11,o),
(763,143,o),
(763,354,cs),
(763,404,l),
(388,404,l),
(388,255,l),
(577,255,l),
(557,190,o),
(492,145,o),
(411,145,cs),
(296,145,o),
(210,233,o),
(210,350,cs),
(210,466,o),
(293,553,o),
(405,553,cs),
(475,553,o),
(535,523,o),
(581,465,c),
(702,574,l),
(635,659,o),
(524,711,o),
(405,711,cs),
(196,711,o),
(33,553,o),
(33,350,cs),
(33,147,o),
(197,-11,o),
(408,-11,cs)
);
}
);
userData = {
SBAlt = left;
com.typemytype.robofont.guideline.magnetic.GZSeIUowNo = 5;
com.typemytype.robofont.guideline.magnetic.Hfkj6T7YAY = 5;
com.typemytype.robofont.guideline.magnetic.rbaIqQY7hA = 5;
};
width = 796;
}
);
unicode = 71;
},
{
glyphname = H;
kernLeft = H;
kernRight = H;
lastChange = "2024-11-06 22:35:57 +0000";
layers = (
{
anchors = (
{
name = top;
pos = (352,700);
}
);
layerId = m001;
shapes = (
{
closed = 1;
nodes = (
(129,0,l),
(129,331,l),
(575,331,l),
(575,0,l),
(621,0,l),
(621,700,l),
(575,700,l),
(575,374,l),
(129,374,l),
(129,700,l),
(83,700,l),
(83,0,l)
);
}
);
width = 704;
},
{
anchors = (
{
name = top;
pos = (357,700);
}
);
layerId = "00637EAA-82D4-47CE-A25D-74860BA059DC";
shapes = (
{
closed = 1;
nodes = (
(154,0,l),
(154,318,l),
(561,318,l),
(561,0,l),
(638,0,l),
(638,700,l),
(561,700,l),
(561,387,l),
(154,387,l),
(154,700,l),
(77,700,l),
(77,0,l)
);
}
);
width = 715;
},
{
anchors = (
{
name = top;
pos = (374,700);
}
);
layerId = "7F797451-F356-4E8F-9E4B-AB77A40997AF";
shapes = (
{
closed = 1;
nodes = (
(230,0,l),
(230,274,l),
(518,274,l),
(518,0,l),
(690,0,l),
(690,700,l),
(518,700,l),
(518,431,l),
(230,431,l),
(230,700,l),
(58,700,l),
(58,0,l)
);
}
);
width = 748;
}
);
unicode = 72;
},
{
glyphname = Hbar;
kernLeft = H;
kernRight = H;
lastChange = "2024-11-06 22:35:57 +0000";
layers = (
{
layerId = m001;
shapes = (
{
closed = 1;
nodes = (
(129,0,l),
(129,331,l),
(575,331,l),
(575,0,l),
(621,0,l),
(621,529,l),
(691,529,l),
(691,570,l),
(621,570,l),
(621,700,l),
(575,700,l),
(575,570,l),
(129,570,l),
(129,700,l),
(83,700,l),
(83,570,l),
(13,570,l),
(13,529,l),
(83,529,l),
(83,0,l)
);
},
{
closed = 1;
nodes = (
(129,529,l),
(575,529,l),
(575,374,l),
(129,374,l)
);
}
);
width = 704;
},
{
layerId = "00637EAA-82D4-47CE-A25D-74860BA059DC";
shapes = (
{
closed = 1;
nodes = (
(160,0,l),
(160,318,l),
(567,318,l),
(567,0,l),
(644,0,l),
(644,521,l),
(712,521,l),
(712,582,l),
(644,582,l),
(644,700,l),
(567,700,l),
(567,582,l),
(160,582,l),
(160,700,l),
(83,700,l),
(83,582,l),
(15,582,l),
(15,521,l),
(83,521,l),
(83,0,l)
);
},
{
closed = 1;
nodes = (
(160,521,l),
(567,521,l),
(567,386,l),
(160,386,l)
);
}
);
width = 727;
},
{
layerId = "7F797451-F356-4E8F-9E4B-AB77A40997AF";
shapes = (
{
closed = 1;
nodes = (
(240,0,l),
(240,274,l),
(528,274,l),
(528,0,l),
(700,0,l),
(700,489,l),
(760,489,l),
(760,624,l),
(700,624,l),
(700,700,l),
(528,700,l),
(528,624,l),
(240,624,l),
(240,700,l),
(68,700,l),
(68,624,l),
(8,624,l),
(8,489,l),
(68,489,l),
(68,0,l)
);
},
{
closed = 1;
nodes = (
(240,489,l),
(528,489,l),
(528,431,l),
(240,431,l)
);
}
);
width = 768;
}
);
unicode = 294;
},
{
glyphname = I;
kernLeft = H;
kernRight = H;
lastChange = "2024-11-06 22:35:57 +0000";
layers = (
{
anchors = (
{
name = bottom;
pos = (129,0);
},
{
name = top;
pos = (106,700);
}
);
layerId = m001;
shapes = (
{
closed = 1;
nodes = (
(129,0,l),
(129,700,l),
(83,700,l),
(83,0,l)
);
}
);
width = 212;
},
{
anchors = (
{
name = bottom;
pos = (154,0);
},
{
name = top;
pos = (116,700);
}
);
layerId = "00637EAA-82D4-47CE-A25D-74860BA059DC";
shapes = (
{
closed = 1;
nodes = (
(154,0,l),
(154,700,l),
(77,700,l),
(77,0,l)
);
}
);
width = 231;
},
{
anchors = (
{
name = bottom;
pos = (230,0);
},
{
name = top;
pos = (144,700);
}
);
layerId = "7F797451-F356-4E8F-9E4B-AB77A40997AF";
shapes = (
{
closed = 1;
nodes = (
(230,0,l),
(230,700,l),
(58,700,l),
(58,0,l)
);
}
);
width = 288;
}
);
unicode = 73;
},
{
glyphname = Iogonek;
kernLeft = H;
kernRight = H;
lastChange = "2024-11-06 22:35:57 +0000";
layers = (
{
layerId = m001;
shapes = (
{
closed = 1;
nodes = (
(100,-221,o),
(123,-214,o),
(143,-201,c),
(130,-172,l),
(115,-182,o),
(97,-187,o),
(79,-187,cs),
(41,-187,o),
(17,-168,o),
(17,-131,cs),
(17,-94,o),
(44,-55,o),
(129,0,c),
(129,700,l),
(83,700,l),
(83,0,l),
(84,0,l),
(8,-48,o),
(-22,-94,o),
(-22,-138,cs),
(-22,-185,o),
(12,-221,o),
(74,-221,cs)
);
}
);
width = 212;
},
{
layerId = "00637EAA-82D4-47CE-A25D-74860BA059DC";
shapes = (
{
closed = 1;
nodes = (
(123,-221,o),
(147,-214,o),
(169,-200,c),
(154,-161,l),
(140,-171,o),
(123,-175,o),
(106,-175,cs),
(69,-175,o),
(48,-156,o),
(48,-123,cs),
(48,-84,o),
(81,-46,o),
(154,0,c),
(154,700,l),
(77,700,l),
(77,0,l),
(96,0,l),
(26,-48,o),
(-3,-88,o),
(-3,-135,cs),
(-3,-187,o),
(36,-221,o),
(95,-221,cs)
);
}
);
width = 231;
},
{
layerId = "7F797451-F356-4E8F-9E4B-AB77A40997AF";
shapes = (
{
closed = 1;
nodes = (
(195,-221,o),
(227,-212,o),
(250,-198,c),
(229,-128,l),
(219,-135,o),
(205,-139,o),
(193,-139,cs),
(164,-139,o),
(146,-124,o),
(146,-98,cs),
(146,-64,o),
(172,-33,o),
(230,0,c),
(230,700,l),
(58,700,l),
(58,0,l),
(142,0,l),
(82,-38,o),
(55,-78,o),
(55,-127,cs),
(55,-183,o),
(98,-221,o),
(163,-221,cs)
);
}
);
width = 288;
}
);
unicode = 302;
},
{
glyphname = J;
kernLeft = J;
kernRight = U;
lastChange = "2024-11-06 22:35:57 +0000";
layers = (
{
anchors = (
{
name = top;
pos = (490,700);
}
);
layerId = m001;
shapes = (
{
closed = 1;
nodes = (
(415,-11,o),
(513,92,o),
(513,260,cs),
(513,700,l),
(467,700,l),
(467,260,ls),
(467,120,o),
(386,32,o),
(260,32,cs),
(165,32,o),
(96,83,o),
(58,175,c),
(16,156,l),
(60,47,o),
(146,-11,o),
(259,-11,cs)
);
}
);
width = 581;
},
{
anchors = (
{
name = top;
pos = (499,700);
}
);
layerId = "00637EAA-82D4-47CE-A25D-74860BA059DC";
shapes = (
{
closed = 1;
nodes = (
(434,-11,o),
(537,96,o),
(537,264,cs),
(537,700,l),
(460,700,l),
(460,265,ls),
(460,140,o),
(386,60,o),
(272,60,cs),
(185,60,o),
(123,105,o),
(87,197,c),
(17,168,l),
(58,54,o),
(151,-11,o),
(271,-11,cs)
);
}
);
width = 600;
},
{
anchors = (
{
name = top;
pos = (527,700);
}
);
layerId = "7F797451-F356-4E8F-9E4B-AB77A40997AF";
shapes = (
{
closed = 1;
nodes = (
(490,-10,o),
(610,105,o),
(610,275,cs),
(610,700,l),
(438,700,l),
(438,280,ls),
(438,200,o),
(387,146,o),
(312,146,cs),
(245,146,o),
(202,183,o),
(176,265,c),
(17,206,l),
(59,66,o),
(163,-10,o),
(311,-10,cs)
);
}
);
width = 658;
}
);
unicode = 74;
},
{
glyphname = K;
kernLeft = H;
kernRight = K;
lastChange = "2024-11-06 22:35:57 +0000";
layers = (
{
anchors = (
{
name = bottom;
pos = (318,0);
}
);
layerId = m001;
shapes = (
{
closed = 1;
nodes = (
(129,0,l),
(129,339,l),
(518,0,l),
(588,0,l),
(183,351,l),
(582,700,l),
(517,700,l),
(129,359,l),
(129,700,l),
(83,700,l),
(83,0,l)
);
}
);
width = 580;
},
{
anchors = (
{
name = bottom;
pos = (330,0);
}
);
layerId = "00637EAA-82D4-47CE-A25D-74860BA059DC";
shapes = (
{
closed = 1;
nodes = (
(154,0,l),
(154,336,l),
(517,0,l),
(625,0,l),
(237,357,l),
(617,700,l),
(516,700,l),
(154,368,l),
(154,700,l),
(77,700,l),
(77,0,l)
);
}
);
width = 617;
},
{
anchors = (
{
name = bottom;
pos = (370,0);
}
);
layerId = "7F797451-F356-4E8F-9E4B-AB77A40997AF";
shapes = (
{
closed = 1;
nodes = (
(230,0,l),
(230,321,l),
(511,0,l),
(739,0,l),
(397,371,l),
(721,700,l),
(513,700,l),
(230,394,l),
(230,700,l),
(58,700,l),
(58,0,l)
);
}
);
width = 729;
}
);
unicode = 75;
},
{
glyphname = L;
kernLeft = H;
kernRight = L;
lastChange = "2024-11-14 16:04:37 +0000";
layers = (
{
anchors = (
{
name = bottom;
pos = (339,0);
},
{
name = top;
pos = (106,700);
}
);
layerId = m001;
shapes = (
{
closed = 1;
nodes = (
(561,0,l),
(561,43,l),
(129,43,l),
(129,700,l),
(83,700,l),
(83,0,l)
);
}
);
width = 593;
},
{
anchors = (
{
name = bottom;
pos = (343,0);
},
{
name = top;
pos = (115,700);
}
);
layerId = "00637EAA-82D4-47CE-A25D-74860BA059DC";
shapes = (
{
closed = 1;
nodes = (
(571,0,l),
(571,69,l),
(154,69,l),
(154,700,l),
(77,700,l),
(77,0,l)
);
}
);
width = 604;
},
{
anchors = (
{
name = bottom;
pos = (352,0);
},
{
name = top;
pos = (143,700);
}
);
layerId = "7F797451-F356-4E8F-9E4B-AB77A40997AF";
shapes = (
{
closed = 1;
nodes = (
(599,0,l),
(599,152,l),
(230,152,l),
(230,700,l),
(58,700,l),
(58,0,l)
);
}
);
width = 637;
}
);
unicode = 76;
},
{
glyphname = Lslash;
kernLeft = H;
kernRight = L;
lastChange = "2024-11-06 22:35:57 +0000";
layers = (
{
layerId = m001;
shapes = (
{
closed = 1;
nodes = (
(570,0,l),
(570,43,l),
(138,43,l),
(138,281,l),
(348,454,l),
(348,505,l),
(138,333,l),
(138,700,l),
(92,700,l),
(92,295,l),
(11,229,l),
(11,177,l),
(92,244,l),
(92,0,l)
);
}
);
width = 597;
},
{
layerId = "00637EAA-82D4-47CE-A25D-74860BA059DC";
shapes = (
{
closed = 1;
nodes = (
(585,0,l),
(585,69,l),
(168,69,l),
(168,290,l),
(368,441,l),
(368,515,l),
(168,364,l),
(168,700,l),
(91,700,l),
(91,306,l),
(11,245,l),
(11,171,l),
(91,232,l),
(91,0,l)
);
}
);
width = 613;
},
{
layerId = "7F797451-F356-4E8F-9E4B-AB77A40997AF";
shapes = (
{
closed = 1;
nodes = (
(629,0,l),
(629,152,l),
(260,152,l),
(260,301,l),
(428,401,l),
(428,543,l),
(260,443,l),
(260,700,l),
(88,700,l),
(88,342,l),
(11,296,l),
(11,154,l),
(88,200,l),
(88,0,l)
);
}
);
width = 662;
}
);
unicode = 321;
},
{
glyphname = M;
kernLeft = H;
kernRight = H;
lastChange = "2024-11-06 22:35:57 +0000";
layers = (
{
layerId = m001;
shapes = (
{
closed = 1;
nodes = (
(129,0,l),
(129,654,l),
(416,50,l),
(702,656,l),
(702,0,l),
(748,0,l),
(748,700,l),
(676,700,l),
(416,149,l),
(155,700,l),
(83,700,l),
(83,0,l)
);
}
);
width = 831;
},
{
layerId = "00637EAA-82D4-47CE-A25D-74860BA059DC";
shapes = (
{
closed = 1;
nodes = (
(149,0,l),
(149,611,l),
(423,50,l),
(697,612,l),
(697,0,l),
(770,0,l),
(770,700,l),
(662,700,l),
(424,203,l),
(185,700,l),
(77,700,l),
(77,0,l)
);
}
);
width = 847;
},
{
layerId = "7F797451-F356-4E8F-9E4B-AB77A40997AF";
shapes = (
{
closed = 1;
nodes = (
(216,0,l),
(216,479,l),
(446,50,l),
(676,477,l),
(676,0,l),
(838,0,l),
(838,700,l),
(621,700,l),
(448,370,l),
(275,700,l),
(58,700,l),
(58,0,l)
);
}
);
width = 896;
}
);
unicode = 77;
},
{
glyphname = N;
kernLeft = H;
kernRight = H;
lastChange = "2024-11-06 22:35:57 +0000";
layers = (
{
anchors = (
{
name = bottom;
pos = (357,0);
},
{
name = top;
pos = (357,700);
}
);
layerId = m001;
shapes = (
{
closed = 1;
nodes = (
(129,0,l),
(129,632,l),
(591,0,l),
(631,0,l),
(631,700,l),
(585,700,l),
(585,81,l),
(133,700,l),
(83,700,l),
(83,0,l)
);
}
);
width = 714;
},
{
anchors = (
{
name = bottom;
pos = (362,0);
},
{
name = top;
pos = (362,700);
}
);
layerId = "00637EAA-82D4-47CE-A25D-74860BA059DC";
shapes = (
{
closed = 1;
nodes = (
(150,0,l),
(150,583,l),
(580,0,l),
(648,0,l),
(648,700,l),
(575,700,l),
(575,132,l),
(154,700,l),
(77,700,l),
(77,0,l)
);
}
);
width = 725;
},
{
anchors = (
{
name = bottom;
pos = (379,0);
},
{
name = top;
pos = (379,700);
}
);
layerId = "7F797451-F356-4E8F-9E4B-AB77A40997AF";
shapes = (
{
closed = 1;
nodes = (
(220,0,l),
(220,422,l),
(548,0,l),
(700,0,l),
(700,700,l),
(538,700,l),
(538,294,l),
(220,700,l),
(58,700,l),
(58,0,l)
);
}
);
width = 758;
}
);
unicode = 78;
},
{
glyphname = Eng;
kernLeft = H;
kernRight = H;
lastChange = "2024-11-06 22:35:57 +0000";
layers = (
{
layerId = m001;
shapes = (
{
closed = 1;
nodes = (
(594,-214,o),
(631,-173,o),
(631,-103,cs),
(631,700,l),
(585,700,l),
(585,76,l),
(133,700,l),
(83,700,l),
(83,0,l),
(129,0,l),
(129,632,l),
(587,0,l),
(587,-97,ls),
(587,-150,o),
(568,-171,o),
(521,-171,cs),
(507,-171,o),
(498,-170,o),
(486,-167,c),
(486,-211,l),
(499,-212,o),
(508,-214,o),
(522,-214,cs)
);
}
);
width = 714;
},
{
layerId = "00637EAA-82D4-47CE-A25D-74860BA059DC";
shapes = (
{
closed = 1;
nodes = (
(602,-208,o),
(648,-163,o),
(648,-83,cs),
(648,700,l),
(575,700,l),
(575,124,l),
(149,700,l),
(77,700,l),
(77,0,l),
(150,0,l),
(150,577,l),
(575,0,l),
(575,-76,ls),
(575,-124,o),
(556,-144,o),
(511,-144,cs),
(495,-144,o),
(486,-143,o),
(473,-140,c),
(473,-202,l),
(484,-205,o),
(506,-208,o),
(520,-208,cs)
);
}
);
width = 725;
},
{
layerId = "7F797451-F356-4E8F-9E4B-AB77A40997AF";
shapes = (
{
closed = 1;
nodes = (
(633,-214,o),
(700,-154,o),
(700,-48,cs),
(700,700,l),
(538,700,l),
(538,288,l),
(215,700,l),
(58,700,l),
(58,0,l),
(220,0,l),
(220,416,l),
(538,6,l),
(538,-38,ls),
(538,-71,o),
(520,-86,o),
(482,-86,cs),
(462,-86,o),
(450,-85,o),
(434,-82,c),
(434,-204,l),
(452,-210,o),
(488,-214,o),
(516,-214,cs)
);
}
);
width = 758;
}
);
unicode = 330;
},
{
glyphname = O;
kernLeft = O;
kernRight = O;
lastChange = "2024-11-06 22:35:57 +0000";
layers = (
{
anchors = (
{
name = top;
pos = (404,700);
}
);
guides = (
{
angle = 90;
pos = (408,392);
userData = {
UFO.identifier = 4uZcFqHUz6;
};
}
);
layerId = m001;
shapes = (
{
closed = 1;
nodes = (
(602,-11,o),
(760,148,o),
(760,350,cs),
(760,552,o),
(602,711,o),
(404,711,cs),
(206,711,o),
(48,552,o),
(48,350,cs),
(48,148,o),
(206,-11,o),
(404,-11,cs)
);
},
{
closed = 1;
nodes = (
(230,32,o),
(95,171,o),
(95,350,cs),
(95,529,o),
(230,668,o),
(404,668,cs),
(578,668,o),
(713,529,o),
(713,350,cs),
(713,171,o),
(578,32,o),
(404,32,cs)
);
}
);
userData = {
SBAlt = right;
com.typemytype.robofont.guideline.magnetic.7DPn3YjxIK = 5;
com.typemytype.robofont.guideline.magnetic.8CLFKTqMbM = 5;
com.typemytype.robofont.guideline.magnetic.SxK3ATAnnw = 5;
com.typemytype.robofont.guideline.showMeasurements.4uZcFqHUz6 = 1;
};
width = 808;
},
{
anchors = (
{
name = top;
pos = (405,700);
}
);
layerId = "00637EAA-82D4-47CE-A25D-74860BA059DC";
shapes = (
{
closed = 1;
nodes = (
(606,-11,o),
(765,148,o),
(765,350,cs),
(765,552,o),
(606,711,o),
(405,711,cs),
(203,711,o),
(44,552,o),
(44,350,cs),
(44,148,o),
(203,-11,o),
(405,-11,cs)
);
},
{
closed = 1;
nodes = (
(245,60,o),
(122,187,o),
(122,350,cs),
(122,514,o),
(245,640,o),
(405,640,cs),
(564,640,o),
(687,514,o),
(687,350,cs),
(687,187,o),
(564,60,o),
(405,60,cs)
);
}
);
userData = {
SBAlt = right;
com.typemytype.robofont.guideline.magnetic.7DPn3YjxIK = 5;
com.typemytype.robofont.guideline.magnetic.8CLFKTqMbM = 5;
com.typemytype.robofont.guideline.magnetic.SxK3ATAnnw = 5;
com.typemytype.robofont.guideline.showMeasurements.4uZcFqHUz6 = 1;
};
width = 809;
},
{
anchors = (
{
name = top;
pos = (407,700);
}
);
layerId = "7F797451-F356-4E8F-9E4B-AB77A40997AF";
shapes = (
{
closed = 1;
nodes = (
(617,-11,o),
(781,148,o),
(781,350,cs),
(781,552,o),
(617,711,o),
(407,711,cs),
(197,711,o),
(33,552,o),
(33,350,cs),
(33,148,o),
(197,-11,o),
(407,-11,cs)
);
},
{
closed = 1;
nodes = (
(295,147,o),
(210,234,o),
(210,350,cs),
(210,466,o),
(295,553,o),
(407,553,cs),
(519,553,o),
(604,466,o),
(604,350,cs),
(604,234,o),
(519,147,o),
(407,147,cs)
);
}
);
userData = {
SBAlt = right;
com.typemytype.robofont.guideline.magnetic.7DPn3YjxIK = 5;
com.typemytype.robofont.guideline.magnetic.8CLFKTqMbM = 5;
com.typemytype.robofont.guideline.magnetic.SxK3ATAnnw = 5;
com.typemytype.robofont.guideline.showMeasurements.4uZcFqHUz6 = 1;
};
width = 814;
}
);
unicode = 79;
},
{
glyphname = Oslash;
kernLeft = O;
kernRight = O;
lastChange = "2024-11-06 22:35:57 +0000";
layers = (
{
layerId = m001;
shapes = (
{
closed = 1;
nodes = (
(602,-11,o),
(760,148,o),
(760,350,cs),
(760,454,o),
(718,546,o),
(651,612,c),
(724,700,l),
(665,700,l),
(616,641,l),
(557,685,o),
(484,711,o),
(404,711,cs),
(206,711,o),
(48,552,o),
(48,350,cs),
(48,246,o),
(90,154,o),
(157,88,c),
(84,0,l),
(143,0,l),
(192,59,l),
(251,15,o),
(324,-11,o),
(404,-11,cs)
);
},
{
closed = 1;
nodes = (
(129,180,o),
(95,260,o),
(95,350,cs),
(95,529,o),
(230,668,o),
(404,668,cs),
(474,668,o),
(537,646,o),
(588,607,c),
(186,122,l)
);
},
{
closed = 1;
nodes = (
(334,32,o),
(271,54,o),
(220,93,c),
(622,578,l),
(679,520,o),
(713,440,o),
(713,350,cs),
(713,171,o),
(578,32,o),
(404,32,cs)
);
}
);
width = 808;
},
{
layerId = "00637EAA-82D4-47CE-A25D-74860BA059DC";
shapes = (
{
closed = 1;
nodes = (
(606,-11,o),
(765,148,o),
(765,350,cs),
(765,453,o),
(724,544,o),
(657,610,c),
(732,700,l),
(651,700,l),
(609,649,l),
(551,688,o),
(481,711,o),
(405,711,cs),
(203,711,o),
(44,552,o),
(44,350,cs),
(44,249,o),
(84,158,o),
(149,93,c),
(72,0,l),
(151,0,l),
(196,54,l),
(255,13,o),
(327,-11,o),
(405,-11,cs)
);
},
{
closed = 1;
nodes = (
(150,202,o),
(122,272,o),
(122,350,cs),
(122,514,o),
(245,640,o),
(405,640,cs),
(464,640,o),
(518,623,o),
(562,593,c),
(197,151,l)
);
},
{
closed = 1;
nodes = (
(344,60,o),
(288,79,o),
(243,110,c),
(610,552,l),
(658,501,o),
(687,430,o),
(687,350,cs),
(687,187,o),
(564,60,o),
(405,60,cs)
);
}
);
width = 809;
},
{
layerId = "7F797451-F356-4E8F-9E4B-AB77A40997AF";
shapes = (
{
closed = 1;
nodes = (
(617,-11,o),
(781,148,o),
(781,350,cs),
(781,447,o),
(743,534,o),
(681,598,c),
(765,700,l),
(617,700,l),
(589,667,l),
(536,695,o),
(474,711,o),
(407,711,cs),
(197,711,o),
(33,552,o),
(33,350,cs),
(33,256,o),
(69,171,o),
(128,107,c),
(40,0,l),
(187,0,l),
(218,37,l),
(273,6,o),
(337,-11,o),
(407,-11,cs)
);
},
{
closed = 1;
nodes = (
(220,272,o),
(210,309,o),
(210,350,cs),
(210,466,o),
(295,553,o),
(407,553,cs),
(434,553,o),
(460,548,o),
(484,538,c),
(239,241,l)
);
},
{
closed = 1;
nodes = (
(377,147,o),
(348,153,o),
(323,165,c),
(571,465,l),
(592,433,o),
(604,394,o),
(604,350,cs),
(604,234,o),
(519,147,o),
(407,147,cs)
);
}
);
width = 814;
}
);
unicode = 216;
},
{
glyphname = OE;
kernLeft = O;
kernRight = E;
lastChange = "2024-11-06 22:35:57 +0000";
layers = (
{
layerId = m001;
shapes = (
{
closed = 1;
nodes = (
(1047,0,l),
(1047,43,l),
(551,43,l),
(656,98,o),
(731,203,o),
(738,332,c),
(917,332,l),
(917,375,l),
(737,375,l),
(729,500,o),
(657,603,o),
(554,657,c),
(1043,657,l),
(1043,700,l),
(393,700,ls),
(201,700,o),
(48,546,o),
(48,350,cs),
(48,154,o),
(201,0,o),
(393,0,cs)
);
},
{
closed = 1;
nodes = (
(225,43,o),
(95,177,o),
(95,350,cs),
(95,523,o),
(225,657,o),
(393,657,cs),
(561,657,o),
(691,523,o),
(691,350,cs),
(691,177,o),
(561,43,o),
(393,43,cs)
);
}
);
width = 1078;
},
{
layerId = "00637EAA-82D4-47CE-A25D-74860BA059DC";
shapes = (
{
closed = 1;
nodes = (
(1050,0,l),
(1050,68,l),
(596,68,l),
(679,124,o),
(733,216,o),
(742,320,c),
(922,320,l),
(922,387,l),
(741,387,l),
(730,488,o),
(676,578,o),
(595,632,c),
(1050,632,l),
(1050,700,l),
(394,700,ls),
(199,700,o),
(45,545,o),
(45,350,cs),
(45,155,o),
(199,0,o),
(394,0,cs)
);
},
{
closed = 1;
nodes = (
(242,70,o),
(123,192,o),
(123,350,cs),
(123,508,o),
(242,630,o),
(394,630,cs),
(547,630,o),
(665,508,o),
(665,350,cs),
(665,192,o),
(547,70,o),
(394,70,cs)
);
}
);
width = 1085;
},
{
layerId = "7F797451-F356-4E8F-9E4B-AB77A40997AF";
shapes = (
{
closed = 1;
nodes = (
(1063,0,l),
(1063,149,l),
(699,149,l),
(727,188,o),
(747,233,o),
(757,281,c),
(940,281,l),
(940,425,l),
(756,425,l),
(746,471,o),
(726,514,o),
(699,551,c),
(1063,551,l),
(1063,700,l),
(402,700,ls),
(199,700,o),
(38,545,o),
(38,350,cs),
(38,155,o),
(199,0,o),
(402,0,cs)
);
},
{
closed = 1;
nodes = (
(297,152,o),
(215,238,o),
(215,350,cs),
(215,462,o),
(297,548,o),
(402,548,cs),
(507,548,o),
(589,462,o),
(589,350,cs),
(589,238,o),
(507,152,o),
(402,152,cs)
);
}
);
width = 1106;
}
);
unicode = 338;
},
{
glyphname = P;
kernLeft = H;
lastChange = "2024-11-06 22:35:57 +0000";
layers = (
{
layerId = m001;
shapes = (
{
closed = 1;
nodes = (
(129,0,l),
(129,309,l),
(366,309,ls),
(504,309,o),
(588,388,o),
(588,506,cs),
(588,623,o),
(504,700,o),
(366,700,cs),
(83,700,l),
(83,0,l)
);
},
{
closed = 1;
nodes = (
(129,657,l),
(364,657,ls),
(478,657,o),
(541,597,o),
(541,506,cs),
(541,413,o),
(478,352,o),
(364,352,cs),
(129,352,l)
);
}
);
width = 631;
},
{
layerId = "00637EAA-82D4-47CE-A25D-74860BA059DC";
shapes = (
{
closed = 1;
nodes = (
(154,0,l),
(154,295,l),
(381,295,ls),
(517,295,o),
(607,376,o),
(607,498,cs),
(607,620,o),
(518,700,o),
(381,700,cs),
(77,700,l),
(77,0,l)
);
},
{
closed = 1;
nodes = (
(154,631,l),
(375,631,ls),
(470,631,o),
(530,580,o),
(530,497,cs),
(530,414,o),
(470,362,o),
(375,362,cs),
(154,362,l)
);
}
);
width = 647;
},
{
layerId = "7F797451-F356-4E8F-9E4B-AB77A40997AF";
shapes = (
{
closed = 1;
nodes = (
(230,0,l),
(230,251,l),
(427,251,ls),
(563,251,o),
(665,346,o),
(665,473,cs),
(665,604,o),
(565,700,o),
(427,700,cs),
(58,700,l),
(58,0,l)
);
},
{
closed = 1;
nodes = (
(230,553,l),
(407,553,ls),
(457,553,o),
(491,520,o),
(491,472,cs),
(491,425,o),
(457,393,o),
(407,393,cs),
(230,393,l)
);
}
);
width = 695;
}
);
unicode = 80;
},
{
glyphname = Thorn;
kernLeft = H;
lastChange = "2024-11-06 22:35:57 +0000";
layers = (
{
layerId = m001;
shapes = (
{
closed = 1;
nodes = (
(129,0,l),
(129,164,l),
(356,164,ls),
(494,164,o),
(578,243,o),
(578,361,cs),
(578,478,o),
(494,555,o),
(356,555,cs),
(129,555,l),
(129,700,l),
(83,700,l),
(83,0,l)
);
},
{
closed = 1;
nodes = (
(129,512,l),
(354,512,ls),
(468,512,o),
(531,452,o),
(531,361,cs),
(531,268,o),
(468,207,o),
(354,207,cs),
(129,207,l)
);
}
);
width = 621;
},
{
layerId = "00637EAA-82D4-47CE-A25D-74860BA059DC";
shapes = (
{
closed = 1;
nodes = (
(154,0,l),
(154,142,l),
(383,142,ls),
(506,142,o),
(598,231,o),
(598,349,cs),
(598,470,o),
(506,559,o),
(383,559,cs),
(154,559,l),
(154,700,l),
(77,700,l),
(77,0,l)
);
},
{
closed = 1;
nodes = (
(154,490,l),
(375,490,ls),
(457,491,o),
(520,430,o),
(520,349,cs),
(520,269,o),
(457,209,o),
(375,209,cs),
(154,209,l)
);
}
);
width = 637;
},
{
layerId = "7F797451-F356-4E8F-9E4B-AB77A40997AF";
shapes = (
{
closed = 1;
nodes = (
(230,0,l),
(230,126,l),
(427,126,ls),
(563,126,o),
(665,221,o),
(665,348,cs),
(665,479,o),
(565,574,o),
(427,575,cs),
(230,575,l),
(230,700,l),
(58,700,l),
(58,0,l)
);
},
{
closed = 1;
nodes = (
(230,428,l),
(407,428,ls),
(457,428,o),
(491,395,o),
(491,347,cs),
(491,300,o),
(457,268,o),
(407,268,cs),
(230,268,l)
);
}
);
width = 695;
}
);
unicode = 222;
},
{
glyphname = Q;
kernLeft = O;
kernRight = O;
lastChange = "2024-11-06 22:35:57 +0000";
layers = (
{
layerId = m001;
shapes = (
{
closed = 1;
nodes = (
(717,-7,l),
(641,79,l),
(714,145,o),
(760,241,o),
(760,350,cs),
(760,552,o),
(602,711,o),
(404,711,cs),
(206,711,o),
(48,552,o),
(48,350,cs),
(48,148,o),
(206,-11,o),
(404,-11,cs),
(480,-11,o),
(550,12,o),
(608,53,c),
(667,-15,l)
);
},
{
closed = 1;
nodes = (
(230,32,o),
(95,171,o),
(95,350,cs),
(95,529,o),
(230,668,o),
(404,668,cs),
(578,668,o),
(713,529,o),
(713,350,cs),
(713,255,o),
(675,171,o),
(612,113,c),
(519,221,l),
(469,213,l),
(579,86,l),
(530,52,o),
(470,32,o),
(404,32,cs)
);
}
);
userData = {
com.typemytype.robofont.guideline.magnetic.biOKLUprQS = 5;
com.typemytype.robofont.guideline.magnetic.lqUJpaHxAy = 5;
com.typemytype.robofont.guideline.magnetic.ydRjl4VIfo = 5;
};
width = 808;
},
{
layerId = "00637EAA-82D4-47CE-A25D-74860BA059DC";
shapes = (
{
closed = 1;
nodes = (
(724,-5,l),
(650,84,l),
(721,149,o),
(765,244,o),
(765,350,cs),
(765,552,o),
(606,711,o),
(405,711,cs),
(203,711,o),
(44,552,o),
(44,350,cs),
(44,148,o),
(203,-11,o),
(405,-11,cs),
(475,-11,o),
(541,9,o),
(596,43,c),
(645,-16,l)
);
},
{
closed = 1;
nodes = (
(245,60,o),
(122,187,o),
(122,350,cs),
(122,514,o),
(245,640,o),
(405,640,cs),
(564,640,o),
(687,514,o),
(687,350,cs),
(687,267,o),
(655,193,o),
(602,140,c),
(527,230,l),
(448,218,l),
(548,99,l),
(507,74,o),
(458,60,o),
(405,60,cs)
);
}
);
userData = {
com.typemytype.robofont.guideline.magnetic.biOKLUprQS = 5;
com.typemytype.robofont.guideline.magnetic.lqUJpaHxAy = 5;
com.typemytype.robofont.guideline.magnetic.ydRjl4VIfo = 5;
};
width = 809;
},
{
layerId = "7F797451-F356-4E8F-9E4B-AB77A40997AF";
shapes = (
{
closed = 1;
nodes = (
(746,13,l),
(678,99,l),
(742,164,o),
(781,252,o),
(781,350,cs),
(781,552,o),
(617,711,o),
(407,711,cs),
(197,711,o),
(33,552,o),
(33,350,cs),
(33,148,o),
(197,-11,o),
(407,-11,cs),
(460,-11,o),
(509,-1,o),
(554,17,c),
(600,-41,l)
);
},
{
closed = 1;
nodes = (
(295,147,o),
(210,234,o),
(210,350,cs),
(210,466,o),
(295,553,o),
(407,553,cs),
(519,553,o),
(604,466,o),
(604,350,cs),
(604,307,o),
(592,267,o),
(571,235,c),
(529,289,l),
(383,235,l),
(449,151,l),
(435,148,o),
(421,147,o),
(407,147,cs)
);
}
);
userData = {
com.typemytype.robofont.guideline.magnetic.biOKLUprQS = 5;
com.typemytype.robofont.guideline.magnetic.lqUJpaHxAy = 5;
com.typemytype.robofont.guideline.magnetic.ydRjl4VIfo = 5;
};
width = 814;
}
);
unicode = 81;
},
{
glyphname = R;
kernLeft = H;
kernRight = R;
lastChange = "2024-11-06 22:35:57 +0000";
layers = (
{
anchors = (
{
name = bottom;
pos = (307,0);
},
{
name = top;
pos = (307,700);
}
);
layerId = m001;
shapes = (
{
closed = 1;
nodes = (
(129,0,l),
(129,312,l),
(388,312,l),
(539,0,l),
(589,0,l),
(434,319,l),
(532,342,o),
(586,415,o),
(586,506,cs),
(586,617,o),
(507,700,o),
(365,700,cs),
(83,700,l),
(83,0,l)
);
},
{
closed = 1;
nodes = (
(129,657,l),
(362,657,ls),
(477,657,o),
(539,592,o),
(539,506,cs),
(539,420,o),
(477,355,o),
(362,355,cs),
(129,355,l)
);
}
);
width = 629;
},
{
anchors = (
{
name = bottom;
pos = (319,0);
},
{
name = top;
pos = (317,700);
}
);
layerId = "00637EAA-82D4-47CE-A25D-74860BA059DC";
shapes = (
{
closed = 1;
nodes = (
(154,0,l),
(154,301,l),
(378,301,l),
(528,0,l),
(613,0,l),
(456,311,l),
(547,337,o),
(605,407,o),
(605,499,cs),
(605,620,o),
(514,700,o),
(377,700,cs),
(77,700,l),
(77,0,l)
);
},
{
closed = 1;
nodes = (
(154,631,l),
(372,631,ls),
(466,631,o),
(528,579,o),
(528,499,cs),
(528,418,o),
(466,366,o),
(372,366,cs),
(154,366,l)
);
}
);
width = 645;
},
{
anchors = (
{
name = bottom;
pos = (358,0);
},
{
name = top;
pos = (347,700);
}
);
layerId = "7F797451-F356-4E8F-9E4B-AB77A40997AF";
shapes = (
{
closed = 1;
nodes = (
(230,0,l),
(230,255,l),
(361,255,l),
(493,0,l),
(685,0,l),
(532,280,l),
(611,316,o),
(663,389,o),
(663,477,cs),
(663,607,o),
(560,700,o),
(416,700,cs),
(58,700,l),
(58,0,l)
);
},
{
closed = 1;
nodes = (
(230,553,l),
(400,553,ls),
(453,553,o),
(489,521,o),
(489,474,cs),
(489,427,o),
(453,395,o),
(400,395,cs),
(230,395,l)
);
}
);
width = 693;
}
);
unicode = 82;
},
{
glyphname = S;
kernLeft = S;
kernRight = S;
lastChange = "2024-11-06 22:35:57 +0000";
layers = (
{
anchors = (
{
name = bottom;
pos = (298,2);
},
{
name = top;
pos = (272,702);
}
);
layerId = m001;
shapes = (
{
closed = 1;
nodes = (
(448,-11,o),
(555,73,o),
(555,190,cs),
(555,300,o),
(491,355,o),
(332,381,cs),
(247,395,ls),
(131,414,o),
(86,451,o),
(86,525,cs),
(86,609,o),
(163,668,o),
(272,668,cs),
(353,668,o),
(435,638,o),
(513,580,c),
(541,618,l),
(458,679,o),
(364,711,o),
(272,711,cs),
(135,711,o),
(39,634,o),
(39,523,cs),
(39,426,o),
(102,372,o),
(242,349,cs),
(327,335,ls),
(457,314,o),
(508,274,o),
(508,193,cs),
(508,100,o),
(420,32,o),
(300,32,cs),
(204,32,o),
(117,74,o),
(51,153,c),
(15,123,l),
(88,36,o),
(188,-11,o),
(300,-11,cs)
);
}
);
userData = {
SBAlt = right;
};
width = 586;
},
{
anchors = (
{
name = bottom;
pos = (288,2);
},
{
name = top;
pos = (281,702);
}
);
layerId = "00637EAA-82D4-47CE-A25D-74860BA059DC";
shapes = (
{
closed = 1;
nodes = (
(462,-10,o),
(572,76,o),
(572,199,cs),
(572,308,o),
(506,366,o),
(353,391,cs),
(253,407,ls),
(151,423,o),
(111,455,o),
(111,520,cs),
(111,593,o),
(179,643,o),
(279,643,cs),
(359,643,o),
(437,614,o),
(514,556,c),
(558,616,l),
(479,676,o),
(380,709,o),
(282,709,cs),
(135,709,o),
(36,630,o),
(36,514,cs),
(36,415,o),
(98,359,o),
(233,337,cs),
(334,321,ls),
(449,302,o),
(495,267,o),
(495,195,cs),
(495,114,o),
(417,57,o),
(307,57,cs),
(216,57,o),
(134,96,o),
(62,173,c),
(11,120,l),
(88,36,o),
(193,-10,o),
(304,-10,cs)
);
}
);
userData = {
SBAlt = right;
};
width = 600;
},
{
anchors = (
{
name = bottom;
pos = (318,0);
},
{
name = top;
pos = (307,700);
}
);
layerId = "7F797451-F356-4E8F-9E4B-AB77A40997AF";
shapes = (
{
closed = 1;
nodes = (
(506,-10,o),
(623,78,o),
(623,220,cs),
(623,328,o),
(552,397,o),
(417,419,cs),
(272,443,ls),
(213,453,o),
(189,470,o),
(189,505,cs),
(189,543,o),
(232,566,o),
(302,566,cs),
(376,566,o),
(443,540,o),
(517,483,c),
(608,610,l),
(531,672,o),
(418,710,o),
(314,710,cs),
(135,710,o),
(27,628,o),
(27,492,cs),
(27,389,o),
(90,320,o),
(204,300,cs),
(358,273,ls),
(428,261,o),
(455,242,o),
(455,203,cs),
(455,160,o),
(408,135,o),
(329,135,cs),
(248,135,o),
(181,163,o),
(96,232,c),
(0,107,l),
(87,33,o),
(203,-10,o),
(316,-10,cs)
);
}
);
userData = {
SBAlt = right;
};
width = 644;
}
);
note = "Version created Fri Aug  3 17:49:29 2018";
unicode = 83;
},
{
glyphname = Scedilla;
kernLeft = S;
kernRight = S;
lastChange = "2024-11-06 22:35:57 +0000";
layers = (
{
layerId = m001;
shapes = (
{
closed = 1;
nodes = (
(350,-222,o),
(393,-187,o),
(393,-136,cs),
(393,-90,o),
(355,-59,o),
(298,-58,c),
(311,-11,l),
(453,-7,o),
(555,76,o),
(555,190,cs),
(555,300,o),
(491,355,o),
(332,381,cs),
(247,395,ls),
(131,414,o),
(86,451,o),
(86,525,cs),
(86,609,o),
(163,668,o),
(272,668,cs),
(353,668,o),
(435,638,o),
(513,580,c),
(541,618,l),
(458,679,o),
(364,711,o),
(272,711,cs),
(135,711,o),
(39,634,o),
(39,523,cs),
(39,426,o),
(102,372,o),
(242,349,cs),
(327,335,ls),
(457,314,o),
(508,274,o),
(508,193,cs),
(508,100,o),
(420,32,o),
(300,32,cs),
(204,32,o),
(117,74,o),
(51,153,c),
(15,123,l),
(83,42,o),
(175,-5,o),
(278,-10,c),
(257,-87,l),
(280,-87,ls),
(328,-87,o),
(356,-106,o),
(356,-137,cs),
(356,-170,o),
(329,-191,o),
(287,-191,cs),
(257,-191,o),
(229,-180,o),
(202,-159,c),
(179,-184,l),
(205,-208,o),
(245,-222,o),
(287,-222,cs)
);
}
);
width = 586;
},
{
layerId = "00637EAA-82D4-47CE-A25D-74860BA059DC";
shapes = (
{
closed = 1;
nodes = (
(341,-226,o),
(389,-188,o),
(389,-135,cs),
(389,-87,o),
(352,-56,o),
(294,-53,c),
(306,-10,l),
(462,-10,o),
(572,76,o),
(572,199,cs),
(572,308,o),
(506,366,o),
(353,391,cs),
(253,407,ls),
(151,423,o),
(111,455,o),
(111,520,cs),
(111,593,o),
(179,643,o),
(279,643,cs),
(359,643,o),
(437,614,o),
(514,556,c),
(558,616,l),
(479,676,o),
(380,709,o),
(282,709,cs),
(135,709,o),
(36,630,o),
(36,514,cs),
(36,415,o),
(98,359,o),
(233,337,cs),
(334,321,ls),
(449,302,o),
(495,267,o),
(495,195,cs),
(495,114,o),
(417,57,o),
(307,57,cs),
(216,57,o),
(134,96,o),
(62,173,c),
(11,120,l),
(78,46,o),
(167,2,o),
(263,-8,c),
(240,-89,l),
(269,-89,ls),
(312,-89,o),
(338,-107,o),
(338,-136,cs),
(338,-165,o),
(314,-185,o),
(274,-185,cs),
(244,-185,o),
(216,-174,o),
(191,-153,c),
(161,-185,l),
(190,-212,o),
(230,-226,o),
(274,-226,cs)
);
}
);
width = 600;
},
{
layerId = "7F797451-F356-4E8F-9E4B-AB77A40997AF";
shapes = (
{
closed = 1;
nodes = (
(375,-239,o),
(435,-193,o),
(435,-134,cs),
(435,-83,o),
(399,-48,o),
(340,-42,c),
(350,-9,l),
(520,1,o),
(623,87,o),
(623,220,cs),
(623,328,o),
(552,397,o),
(417,419,cs),
(272,443,ls),
(213,453,o),
(189,470,o),
(189,505,cs),
(189,543,o),
(232,566,o),
(302,566,cs),
(376,566,o),
(443,540,o),
(517,483,c),
(608,610,l),
(531,672,o),
(418,710,o),
(314,710,cs),
(135,710,o),
(27,628,o),
(27,492,cs),
(27,389,o),
(90,320,o),
(204,300,cs),
(358,273,ls),
(428,261,o),
(455,242,o),
(455,203,cs),
(455,160,o),
(408,135,o),
(329,135,cs),
(248,135,o),
(181,163,o),
(96,232,c),
(0,107,l),
(76,42,o),
(175,1,o),
(275,-8,c),
(248,-99,l),
(295,-99,ls),
(325,-99,o),
(344,-112,o),
(344,-132,cs),
(344,-154,o),
(326,-166,o),
(293,-166,cs),
(267,-166,o),
(241,-156,o),
(217,-138,c),
(166,-192,l),
(202,-224,o),
(244,-239,o),
(296,-239,cs)
);
}
);
width = 644;
}
);
unicode = 350;
},
{
color = 4;
glyphname = Germandbls;
lastChange = "2024-11-10 18:27:51 +0000";
layers = (
{
anchors = (
{
name = bottom;
pos = (304,0);
},
{
name = top;
pos = (304,700);
}
);
layerId = m001;
shapes = (
{
closed = 1;
nodes = (
(490,-11,o),
(572,63,o),
(572,154,cs),
(572,228,o),
(533,282,o),
(448,325,cs),
(375,362,o),
(352,380,o),
(352,399,cs),
(352,413,o),
(357,420,o),
(403,478,cs),
(534,641,l),
(534,700,l),
(83,700,l),
(83,0,l),
(129,0,l),
(129,657,l),
(483,657,l),
(351,485,ls),
(313,435,o),
(305,419,o),
(305,394,cs),
(305,358,o),
(333,332,o),
(419,287,cs),
(496,247,o),
(525,211,o),
(525,154,cs),
(525,88,o),
(464,32,o),
(390,32,cs),
(334,32,o),
(277,55,o),
(243,92,c),
(216,53,l),
(263,7,o),
(313,-11,o),
(391,-11,cs)
);
}
);
width = 620;
},
{
anchors = (
{
name = bottom;
pos = (305,0);
},
{
name = top;
pos = (305,700);
}
);
layerId = "00637EAA-82D4-47CE-A25D-74860BA059DC";
shapes = (
{
closed = 1;
nodes = (
(499,-11,o),
(586,66,o),
(586,160,cs),
(586,235,o),
(548,290,o),
(472,327,cs),
(390,368,o),
(380,375,o),
(380,393,cs),
(380,407,o),
(390,425,o),
(417,458,cs),
(538,611,l),
(538,700,l),
(77,700,l),
(77,0,l),
(154,0,l),
(154,631,l),
(459,631,l),
(348,485,ls),
(310,435,o),
(302,418,o),
(302,390,cs),
(302,349,o),
(327,325,o),
(415,278,cs),
(489,239,o),
(508,214,o),
(508,154,cs),
(508,101,o),
(458,60,o),
(394,60,cs),
(350,60,o),
(303,80,o),
(260,118,c),
(218,51,l),
(266,12,o),
(332,-11,o),
(395,-11,cs)
);
}
);
width = 630;
},
{
anchors = (
{
name = bottom;
pos = (356,0);
},
{
name = top;
pos = (356,700);
}
);
layerId = "7F797451-F356-4E8F-9E4B-AB77A40997AF";
shapes = (
{
closed = 1;
nodes = (
(583,-11,o),
(654,62,o),
(654,183,cs),
(654,260,o),
(625,309,o),
(560,341,cs),
(515,363,o),
(496,381,o),
(496,398,cs),
(496,412,o),
(509,430,o),
(522,448,cs),
(635,602,l),
(635,700,l),
(58,700,l),
(58,0,l),
(230,0,l),
(230,543,l),
(404,543,l),
(358,475,ls),
(335,441,o),
(320,406,o),
(320,375,cs),
(320,333,o),
(347,283,o),
(402,255,cs),
(458,227,o),
(477,210,o),
(477,185,cs),
(477,157,o),
(454,147,o),
(425,147,cs),
(400,147,o),
(375,155,o),
(330,186,c),
(272,42,l),
(327,7,o),
(393,-11,o),
(456,-11,cs)
);
}
);
width = 687;
}
);
unicode = 7838;
},
{
glyphname = T;
kernLeft = T;
kernRight = T;
lastChange = "2024-11-06 22:35:57 +0000";
layers = (
{
anchors = (
{
name = bottom;
pos = (300,0);
},
{
name = top;
pos = (300,700);
}
);
layerId = m001;
shapes = (
{
closed = 1;
nodes = (
(323,0,l),
(323,657,l),
(583,657,l),
(583,700,l),
(17,700,l),
(17,657,l),
(277,657,l),
(277,0,l)
);
}
);
width = 600;
},
{
anchors = (
{
name = bottom;
pos = (308,0);
},
{
name = top;
pos = (308,700);
}
);
layerId = "00637EAA-82D4-47CE-A25D-74860BA059DC";
shapes = (
{
closed = 1;
nodes = (
(347,0,l),
(347,631,l),
(600,631,l),
(600,700,l),
(17,700,l),
(17,631,l),
(270,631,l),
(270,0,l)
);
}
);
width = 617;
},
{
anchors = (
{
name = bottom;
pos = (333,0);
},
{
name = top;
pos = (333,700);
}
);
layerId = "7F797451-F356-4E8F-9E4B-AB77A40997AF";
shapes = (
{
closed = 1;
nodes = (
(419,0,l),
(419,548,l),
(648,548,l),
(648,700,l),
(18,700,l),
(18,548,l),
(247,548,l),
(247,0,l)
);
}
);
width = 666;
}
);
unicode = 84;
},
{
glyphname = Tbar;
kernLeft = T;
kernRight = T;
lastChange = "2024-11-06 22:35:57 +0000";
layers = (
{
layerId = m001;
shapes = (
{
closed = 1;
nodes = (
(323,0,l),
(323,334,l),
(487,334,l),
(487,375,l),
(323,375,l),
(323,657,l),
(583,657,l),
(583,700,l),
(17,700,l),
(17,657,l),
(277,657,l),
(277,375,l),
(113,375,l),
(113,334,l),
(277,334,l),
(277,0,l)
);
}
);
width = 600;
},
{
layerId = "00637EAA-82D4-47CE-A25D-74860BA059DC";
shapes = (
{
closed = 1;
nodes = (
(347,0,l),
(347,306,l),
(496,306,l),
(496,372,l),
(347,372,l),
(347,631,l),
(600,631,l),
(600,700,l),
(17,700,l),
(17,631,l),
(270,631,l),
(270,372,l),
(121,372,l),
(121,306,l),
(270,306,l),
(270,0,l)
);
}
);
width = 617;
},
{
layerId = "7F797451-F356-4E8F-9E4B-AB77A40997AF";
shapes = (
{
closed = 1;
nodes = (
(419,0,l),
(419,269,l),
(551,269,l),
(551,404,l),
(419,404,l),
(419,548,l),
(648,548,l),
(648,700,l),
(18,700,l),
(18,548,l),
(247,548,l),
(247,404,l),
(115,404,l),
(115,269,l),
(247,269,l),
(247,0,l)
);
}
);
width = 666;
}
);
unicode = 358;
},
{
glyphname = Tcedilla;
kernLeft = T;
kernRight = T;
lastChange = "2024-11-06 22:35:57 +0000";
layers = (
{
layerId = m001;
shapes = (
{
closed = 1;
nodes = (
(352,-224,o),
(395,-189,o),
(395,-138,cs),
(395,-92,o),
(357,-61,o),
(300,-60,c),
(316,0,l),
(323,0,l),
(323,657,l),
(583,657,l),
(583,700,l),
(17,700,l),
(17,657,l),
(277,657,l),
(277,0,l),
(283,0,l),
(259,-89,l),
(282,-89,ls),
(330,-89,o),
(358,-108,o),
(358,-139,cs),
(358,-172,o),
(331,-193,o),
(289,-193,cs),
(259,-193,o),
(231,-182,o),
(204,-161,c),
(181,-186,l),
(207,-210,o),
(247,-224,o),
(289,-224,cs)
);
}
);
width = 600;
},
{
layerId = "00637EAA-82D4-47CE-A25D-74860BA059DC";
shapes = (
{
closed = 1;
nodes = (
(362,-228,o),
(410,-190,o),
(410,-137,cs),
(410,-89,o),
(373,-58,o),
(315,-55,c),
(330,0,l),
(347,0,l),
(347,631,l),
(600,631,l),
(600,700,l),
(17,700,l),
(17,631,l),
(270,631,l),
(270,0,l),
(287,0,l),
(261,-91,l),
(290,-91,ls),
(333,-91,o),
(359,-109,o),
(359,-138,cs),
(359,-167,o),
(335,-187,o),
(295,-187,cs),
(265,-187,o),
(237,-176,o),
(212,-155,c),
(182,-187,l),
(211,-214,o),
(251,-228,o),
(295,-228,cs)
);
}
);
width = 617;
},
{
layerId = "7F797451-F356-4E8F-9E4B-AB77A40997AF";
shapes = (
{
closed = 1;
nodes = (
(390,-239,o),
(450,-193,o),
(450,-134,cs),
(450,-83,o),
(414,-48,o),
(355,-42,c),
(368,0,l),
(419,0,l),
(419,548,l),
(648,548,l),
(648,700,l),
(18,700,l),
(18,548,l),
(247,548,l),
(247,0,l),
(292,0,l),
(263,-99,l),
(310,-99,ls),
(340,-99,o),
(359,-112,o),
(359,-132,cs),
(359,-154,o),
(341,-166,o),
(308,-166,cs),
(282,-166,o),
(256,-156,o),
(232,-138,c),
(181,-192,l),
(217,-224,o),
(259,-239,o),
(311,-239,cs)
);
}
);
width = 666;
}
);
unicode = 354;
},
{
glyphname = U;
kernLeft = U;
kernRight = U;
lastChange = "2024-11-06 22:35:57 +0000";
layers = (
{
anchors = (
{
name = bottom;
pos = (427,0);
},
{
name = top;
pos = (347,700);
}
);
layerId = m001;
shapes = (
{
closed = 1;
nodes = (
(513,-11,o),
(626,99,o),
(626,293,cs),
(626,700,l),
(580,700,l),
(580,293,ls),
(580,126,o),
(483,32,o),
(347,32,cs),
(211,32,o),
(114,126,o),
(114,293,cs),
(114,700,l),
(68,700,l),
(68,293,ls),
(68,99,o),
(181,-11,o),
(347,-11,cs)
);
}
);
width = 694;
},
{
anchors = (
{
name = bottom;
pos = (433,0);
},
{
name = top;
pos = (352,700);
}
);
layerId = "00637EAA-82D4-47CE-A25D-74860BA059DC";
shapes = (
{
closed = 1;
nodes = (
(529,-11,o),
(641,108,o),
(641,296,cs),
(641,700,l),
(564,700,l),
(564,296,ls),
(564,152,o),
(481,60,o),
(352,60,cs),
(223,60,o),
(140,152,o),
(140,296,cs),
(140,700,l),
(63,700,l),
(63,296,ls),
(63,107,o),
(174,-11,o),
(352,-11,cs)
);
}
);
width = 704;
},
{
anchors = (
{
name = bottom;
pos = (450,0);
},
{
name = top;
pos = (367,700);
}
);
layerId = "7F797451-F356-4E8F-9E4B-AB77A40997AF";
shapes = (
{
closed = 1;
nodes = (
(559,-10,o),
(685,114,o),
(685,305,cs),
(685,700,l),
(513,700,l),
(513,305,ls),
(513,210,o),
(456,149,o),
(367,149,cs),
(278,149,o),
(220,210,o),
(220,305,cs),
(220,700,l),
(48,700,l),
(48,305,ls),
(48,112,o),
(172,-10,o),
(366,-10,cs)
);
}
);
width = 733;
}
);
unicode = 85;
},
{
glyphname = Uogonek;
kernLeft = U;
kernRight = U;
lastChange = "2024-11-06 22:35:57 +0000";
layers = (
{
layerId = m001;
shapes = (
{
closed = 1;
nodes = (
(398,-221,o),
(421,-214,o),
(441,-201,c),
(428,-172,l),
(413,-182,o),
(395,-187,o),
(377,-187,cs),
(339,-187,o),
(315,-168,o),
(315,-131,cs),
(315,-95,o),
(341,-56,o),
(423,-2,c),
(547,27,o),
(626,130,o),
(626,293,cs),
(626,700,l),
(580,700,l),
(580,293,ls),
(580,126,o),
(483,32,o),
(347,32,cs),
(211,32,o),
(114,126,o),
(114,293,cs),
(114,700,l),
(68,700,l),
(68,293,ls),
(68,92,o),
(189,-18,o),
(364,-11,c),
(299,-59,o),
(276,-97,o),
(276,-138,cs),
(276,-185,o),
(310,-221,o),
(372,-221,cs)
);
}
);
width = 694;
},
{
layerId = "00637EAA-82D4-47CE-A25D-74860BA059DC";
shapes = (
{
closed = 1;
nodes = (
(402,-221,o),
(426,-214,o),
(448,-200,c),
(433,-161,l),
(419,-171,o),
(402,-175,o),
(385,-175,cs),
(348,-175,o),
(327,-156,o),
(327,-123,cs),
(327,-85,o),
(359,-48,o),
(429,-3,c),
(561,27,o),
(641,137,o),
(641,296,cs),
(641,700,l),
(564,700,l),
(564,296,ls),
(564,152,o),
(481,60,o),
(352,60,cs),
(223,60,o),
(140,152,o),
(140,296,cs),
(140,700,l),
(63,700,l),
(63,296,ls),
(63,102,o),
(180,-13,o),
(361,-11,c),
(301,-55,o),
(276,-92,o),
(276,-135,cs),
(276,-187,o),
(315,-221,o),
(374,-221,cs)
);
}
);
width = 704;
},
{
layerId = "7F797451-F356-4E8F-9E4B-AB77A40997AF";
shapes = (
{
closed = 1;
nodes = (
(417,-221,o),
(449,-212,o),
(472,-198,c),
(451,-128,l),
(441,-135,o),
(427,-139,o),
(415,-139,cs),
(386,-139,o),
(368,-124,o),
(368,-98,cs),
(368,-65,o),
(393,-34,o),
(449,-2,c),
(594,29,o),
(685,143,o),
(685,305,cs),
(685,700,l),
(513,700,l),
(513,305,ls),
(513,210,o),
(456,149,o),
(367,149,cs),
(278,149,o),
(220,210,o),
(220,305,cs),
(220,700,l),
(48,700,l),
(48,305,ls),
(48,118,o),
(165,-3,o),
(351,-10,c),
(300,-45,o),
(277,-82,o),
(277,-127,cs),
(277,-183,o),
(320,-221,o),
(385,-221,cs)
);
}
);
width = 733;
}
);
unicode = 370;
},
{
glyphname = V;
lastChange = "2024-11-06 22:35:57 +0000";
layers = (
{
layerId = m001;
shapes = (
{
closed = 1;
nodes = (
(356,0,l),
(650,700,l),
(602,700,l),
(328,43,l),
(55,700,l),
(5,700,l),
(299,0,l)
);
}
);
width = 655;
},
{
layerId = "00637EAA-82D4-47CE-A25D-74860BA059DC";
shapes = (
{
closed = 1;
nodes = (
(384,0,l),
(675,700,l),
(597,700,l),
(340,72,l),
(87,700,l),
(4,700,l),
(291,0,l)
);
}
);
width = 679;
},
{
layerId = "7F797451-F356-4E8F-9E4B-AB77A40997AF";
shapes = (
{
closed = 1;
nodes = (
(473,0,l),
(760,700,l),
(581,700,l),
(378,179,l),
(179,700,l),
(-7,700,l),
(276,0,l)
);
}
);
width = 753;
}
);
unicode = 86;
},
{
glyphname = W;
kernLeft = W;
kernRight = W;
lastChange = "2024-11-06 22:35:57 +0000";
layers = (
{
anchors = (
{
name = top;
pos = (443,700);
}
);
guides = (
{
pos = (428,700);
userData = {
UFO.identifier = nxb2yW0p9q;
};
}
);
layerId = m001;
shapes = (
{
closed = 1;
nodes = (
(257,0,l),
(443,633,l),
(626,0,l),
(670,0,l),
(857,700,l),
(813,700,l),
(648,73,l),
(467,700,l),
(421,700,l),
(237,76,l),
(73,700,l),
(27,700,l),
(213,0,l)
);
}
);
width = 884;
},
{
anchors = (
{
name = top;
pos = (439,700);
}
);
layerId = "00637EAA-82D4-47CE-A25D-74860BA059DC";
shapes = (
{
closed = 1;
nodes = (
(264,0,l),
(442,593,l),
(619,0,l),
(697,0,l),
(848,700,l),
(773,700,l),
(653,124,l),
(480,700,l),
(405,700,l),
(232,122,l),
(113,700,l),
(35,700,l),
(186,0,l)
);
}
);
width = 882;
},
{
anchors = (
{
name = top;
pos = (483,700);
}
);
layerId = "7F797451-F356-4E8F-9E4B-AB77A40997AF";
shapes = (
{
closed = 1;
nodes = (
(361,0,l),
(485,446,l),
(608,0,l),
(790,0,l),
(946,700,l),
(775,700,l),
(690,268,l),
(568,700,l),
(407,700,l),
(285,268,l),
(200,700,l),
(23,700,l),
(179,0,l)
);
}
);
width = 969;
}
);
unicode = 87;
},
{
glyphname = X;
kernRight = K;
lastChange = "2024-11-06 22:35:57 +0000";
layers = (
{
layerId = m001;
shapes = (
{
closed = 1;
nodes = (
(61,0,l),
(305,328,l),
(547,0,l),
(604,0,l),
(333,365,l),
(584,700,l),
(529,700,l),
(306,400,l),
(83,700,l),
(26,700,l),
(278,363,l),
(6,0,l)
);
}
);
userData = {
SBAlt = left;
};
width = 610;
},
{
layerId = "00637EAA-82D4-47CE-A25D-74860BA059DC";
shapes = (
{
closed = 1;
nodes = (
(93,0,l),
(318,305,l),
(542,0,l),
(635,0,l),
(364,364,l),
(614,700,l),
(524,700,l),
(319,422,l),
(114,700,l),
(20,700,l),
(273,363,l),
(3,0,l)
);
}
);
userData = {
SBAlt = left;
};
width = 638;
},
{
layerId = "7F797451-F356-4E8F-9E4B-AB77A40997AF";
shapes = (
{
closed = 1;
nodes = (
(192,0,l),
(358,234,l),
(525,0,l),
(730,0,l),
(460,361,l),
(709,700,l),
(512,700,l),
(362,489,l),
(212,700,l),
(7,700,l),
(260,361,l),
(-5,0,l)
);
}
);
userData = {
SBAlt = left;
};
width = 724;
}
);
unicode = 88;
},
{
glyphname = Y;
kernLeft = Y;
kernRight = Y;
lastChange = "2024-11-06 22:35:57 +0000";
layers = (
{
anchors = (
{
name = top;
pos = (305,700);
}
);
guides = (
{
pos = (305,700);
userData = {
UFO.identifier = ll1LYW1fNs;
};
}
);
layerId = m001;
shapes = (
{
closed = 1;
nodes = (
(327,0,l),
(327,290,l),
(602,700,l),
(549,700,l),
(305,334,l),
(62,700,l),
(7,700,l),
(281,292,l),
(281,0,l)
);
}
);
userData = {
SBAlt = right;
};
width = 609;
},
{
anchors = (
{
name = top;
pos = (320,700);
}
);
layerId = "00637EAA-82D4-47CE-A25D-74860BA059DC";
shapes = (
{
closed = 1;
nodes = (
(358,0,l),
(358,282,l),
(637,700,l),
(550,700,l),
(322,353,l),
(93,700,l),
(3,700,l),
(281,285,l),
(281,0,l)
);
}
);
userData = {
SBAlt = right;
};
width = 639;
},
{
anchors = (
{
name = top;
pos = (366,700);
}
);
layerId = "7F797451-F356-4E8F-9E4B-AB77A40997AF";
shapes = (
{
closed = 1;
nodes = (
(452,0,l),
(452,261,l),
(742,700,l),
(555,700,l),
(371,413,l),
(188,700,l),
(-10,700,l),
(280,261,l),
(280,0,l)
);
}
);
userData = {
SBAlt = right;
};
width = 732;
}
);
unicode = 89;
},
{
glyphname = Z;
kernLeft = Z;
kernRight = Z;
lastChange = "2024-11-06 22:35:57 +0000";
layers = (
{
anchors = (
{
name = top;
pos = (304,700);
}
);
layerId = m001;
shapes = (
{
closed = 1;
nodes = (
(568,0,l),
(568,43,l),
(86,43,l),
(558,665,l),
(558,700,l),
(29,700,l),
(29,657,l),
(497,657,l),
(25,35,l),
(25,0,l)
);
}
);
width = 598;
},
{
anchors = (
{
name = top;
pos = (308,700);
}
);
layerId = "00637EAA-82D4-47CE-A25D-74860BA059DC";
shapes = (
{
closed = 1;
nodes = (
(578,0,l),
(578,68,l),
(123,68,l),
(570,645,l),
(570,700,l),
(28,700,l),
(28,632,l),
(469,632,l),
(24,55,l),
(24,0,l)
);
}
);
width = 604;
},
{
anchors = (
{
name = top;
pos = (320,700);
}
);
layerId = "7F797451-F356-4E8F-9E4B-AB77A40997AF";
shapes = (
{
closed = 1;
nodes = (
(609,0,l),
(609,149,l),
(245,149,l),
(606,584,l),
(606,700,l),
(23,700,l),
(23,551,l),
(382,551,l),
(20,116,l),
(20,0,l)
);
}
);
width = 622;
}
);
unicode = 90;
},
{
glyphname = a;
kernLeft = a;
kernRight = n;
lastChange = "2024-11-06 22:35:57 +0000";
layers = (
{
anchors = (
{
name = bottom;
pos = (428,0);
},
{
name = top;
pos = (234,492);
}
);
layerId = m001;
shapes = (
{
closed = 1;
nodes = (
(283,-10,o),
(339,13,o),
(384,55,c),
(384,0,l),
(428,0,l),
(428,336,ls),
(428,444,o),
(360,502,o),
(242,502,cs),
(184,502,o),
(128,487,o),
(66,455,c),
(85,416,l),
(149,449,o),
(195,463,o),
(241,463,cs),
(333,463,o),
(384,418,o),
(384,328,cs),
(384,246,l),
(340,274,o),
(286,289,o),
(228,289,cs),
(110,289,o),
(34,229,o),
(34,138,cs),
(34,50,o),
(108,-10,o),
(216,-10,cs)
);
},
{
closed = 1;
nodes = (
(78,206,o),
(136,251,o),
(223,251,cs),
(290,251,o),
(340,235,o),
(384,202,c),
(384,100,l),
(341,54,o),
(289,29,o),
(219,29,cs),
(137,29,o),
(78,75,o),
(78,139,cs)
);
}
);
width = 494;
},
{
anchors = (
{
name = bottom;
pos = (455,0);
},
{
name = top;
pos = (249,501);
}
);
layerId = "00637EAA-82D4-47CE-A25D-74860BA059DC";
shapes = (
{
closed = 1;
nodes = (
(284,-9,o),
(338,10,o),
(383,49,c),
(383,0,l),
(455,0,l),
(455,337,ls),
(455,449,o),
(384,511,o),
(257,511,cs),
(196,511,o),
(137,496,o),
(65,461,c),
(93,404,l),
(153,435,o),
(201,448,o),
(250,448,cs),
(337,448,o),
(383,407,o),
(383,327,cs),
(383,261,l),
(340,283,o),
(289,295,o),
(236,295,cs),
(113,295,o),
(36,236,o),
(36,142,cs),
(36,52,o),
(111,-9,o),
(221,-9,cs)
);
},
{
closed = 1;
nodes = (
(107,203,o),
(158,241,o),
(238,241,cs),
(296,241,o),
(342,229,o),
(383,201,c),
(383,107,l),
(343,67,o),
(294,49,o),
(234,49,cs),
(159,49,o),
(107,88,o),
(107,144,cs)
);
}
);
width = 516;
},
{
anchors = (
{
name = bottom;
pos = (525,0);
},
{
name = top;
pos = (278,529);
}
);
layerId = "7F797451-F356-4E8F-9E4B-AB77A40997AF";
shapes = (
{
closed = 1;
nodes = (
(276,-9,o),
(322,3,o),
(365,32,c),
(365,0,l),
(525,0,l),
(525,339,ls),
(525,466,o),
(440,539,o),
(293,539,cs),
(212,539,o),
(132,520,o),
(46,481,c),
(104,362,l),
(173,391,o),
(222,404,o),
(264,404,cs),
(331,404,o),
(365,378,o),
(365,325,cs),
(365,299,l),
(326,309,o),
(286,314,o),
(245,314,cs),
(107,314,o),
(27,256,o),
(27,155,cs),
(27,58,o),
(106,-9,o),
(219,-9,cs)
);
},
{
closed = 1;
nodes = (
(181,191,o),
(213,210,o),
(269,210,cs),
(302,210,o),
(334,206,o),
(365,198,c),
(365,130,l),
(337,113,o),
(303,105,o),
(264,105,cs),
(212,105,o),
(181,125,o),
(181,158,cs)
);
}
);
width = 571;
}
);
note = "Version created Mon Aug  6 16:22:34 2018";
unicode = 97;
},
{
glyphname = aogonek;
kernLeft = a;
kernRight = n;
lastChange = "2024-11-06 22:35:57 +0000";
layers = (
{
layerId = m001;
shapes = (
{
closed = 1;
nodes = (
(399,-221,o),
(422,-214,o),
(442,-201,c),
(429,-172,l),
(414,-182,o),
(396,-187,o),
(378,-187,cs),
(340,-187,o),
(316,-168,o),
(316,-131,cs),
(316,-94,o),
(343,-55,o),
(428,0,c),
(428,336,ls),
(428,444,o),
(360,502,o),
(242,502,cs),
(184,502,o),
(128,487,o),
(66,455,c),
(85,416,l),
(149,449,o),
(195,463,o),
(241,463,cs),
(333,463,o),
(384,418,o),
(384,328,cs),
(384,246,l),
(340,274,o),
(286,289,o),
(228,289,cs),
(110,289,o),
(34,229,o),
(34,138,cs),
(34,50,o),
(108,-10,o),
(216,-10,cs),
(283,-10,o),
(339,13,o),
(384,55,c),
(384,0,l),
(385,0,l),
(308,-46,o),
(277,-94,o),
(277,-138,cs),
(277,-185,o),
(311,-221,o),
(373,-221,cs)
);
},
{
closed = 1;
nodes = (
(137,29,o),
(78,75,o),
(78,139,cs),
(78,206,o),
(136,251,o),
(223,251,cs),
(290,251,o),
(340,235,o),
(384,202,c),
(384,100,l),
(341,54,o),
(289,29,o),
(219,29,cs)
);
}
);
width = 494;
},
{
layerId = "00637EAA-82D4-47CE-A25D-74860BA059DC";
shapes = (
{
closed = 1;
nodes = (
(425,-221,o),
(449,-214,o),
(471,-200,c),
(456,-161,l),
(442,-171,o),
(425,-175,o),
(408,-175,cs),
(371,-175,o),
(350,-156,o),
(350,-123,cs),
(350,-84,o),
(382,-46,o),
(455,0,c),
(455,337,ls),
(455,449,o),
(384,511,o),
(257,511,cs),
(196,511,o),
(137,496,o),
(65,461,c),
(93,404,l),
(153,435,o),
(201,448,o),
(250,448,cs),
(337,448,o),
(383,407,o),
(383,327,cs),
(383,261,l),
(340,283,o),
(289,295,o),
(236,295,cs),
(113,295,o),
(36,236,o),
(36,142,cs),
(36,52,o),
(111,-9,o),
(221,-9,cs),
(284,-9,o),
(338,10,o),
(383,49,c),
(383,0,l),
(398,0,l),
(328,-48,o),
(299,-88,o),
(299,-135,cs),
(299,-187,o),
(338,-221,o),
(397,-221,cs)
);
},
{
closed = 1;
nodes = (
(159,49,o),
(107,88,o),
(107,144,cs),
(107,203,o),
(158,241,o),
(238,241,cs),
(296,241,o),
(342,229,o),
(383,201,c),
(383,107,l),
(343,67,o),
(294,49,o),
(234,49,cs)
);
}
);
width = 516;
},
{
layerId = "7F797451-F356-4E8F-9E4B-AB77A40997AF";
shapes = (
{
closed = 1;
nodes = (
(490,-221,o),
(522,-212,o),
(545,-198,c),
(524,-128,l),
(514,-135,o),
(500,-139,o),
(488,-139,cs),
(459,-139,o),
(441,-124,o),
(441,-98,cs),
(441,-64,o),
(467,-33,o),
(525,0,c),
(525,339,ls),
(525,466,o),
(440,539,o),
(293,539,cs),
(212,539,o),
(132,520,o),
(46,481,c),
(104,362,l),
(173,391,o),
(222,404,o),
(264,404,cs),
(331,404,o),
(365,378,o),
(365,325,cs),
(365,299,l),
(326,309,o),
(286,314,o),
(245,314,cs),
(107,314,o),
(27,256,o),
(27,155,cs),
(27,58,o),
(106,-9,o),
(219,-9,cs),
(276,-9,o),
(322,3,o),
(365,32,c),
(365,0,l),
(437,0,l),
(377,-38,o),
(350,-78,o),
(350,-127,cs),
(350,-183,o),
(393,-221,o),
(458,-221,cs)
);
},
{
closed = 1;
nodes = (
(212,105,o),
(181,125,o),
(181,158,cs),
(181,191,o),
(213,210,o),
(269,210,cs),
(302,210,o),
(334,206,o),
(365,198,c),
(365,130,l),
(337,113,o),
(303,105,o),
(264,105,cs)
);
}
);
width = 571;
}
);
unicode = 261;
},
{
glyphname = ae;
kernLeft = a;
kernRight = e;
lastChange = "2024-11-06 22:35:57 +0000";
layers = (
{
guides = (
{
pos = (438,502);
userData = {
UFO.identifier = pzR8s5Lxrq;
};
}
);
layerId = m001;
shapes = (
{
closed = 1;
nodes = (
(309,-10,o),
(382,30,o),
(432,99,c),
(476,32,o),
(550,-10,o),
(634,-10,cs),
(699,-10,o),
(759,8,o),
(813,47,c),
(787,82,l),
(748,51,o),
(690,32,o),
(634,32,cs),
(526,32,o),
(440,120,o),
(434,234,c),
(853,234,l),
(853,252,l),
(853,389,o),
(757,502,o),
(630,502,cs),
(543,502,o),
(469,457,o),
(427,387,c),
(408,462,o),
(345,502,o),
(247,502,cs),
(189,502,o),
(133,487,o),
(71,455,c),
(90,416,l),
(154,449,o),
(200,463,o),
(246,463,cs),
(338,463,o),
(389,418,o),
(389,328,cs),
(389,247,l),
(345,274,o),
(291,289,o),
(233,289,cs),
(115,289,o),
(39,229,o),
(39,138,cs),
(39,50,o),
(113,-10,o),
(221,-10,cs)
);
},
{
closed = 1;
nodes = (
(448,381,o),
(527,460,o),
(629,460,cs),
(724,460,o),
(796,377,o),
(806,276,c),
(436,276,l)
);
},
{
closed = 1;
nodes = (
(142,29,o),
(83,75,o),
(83,139,cs),
(83,206,o),
(141,251,o),
(228,251,cs),
(297,251,o),
(348,234,o),
(393,198,c),
(397,174,o),
(404,152,o),
(414,131,c),
(366,67,o),
(307,29,o),
(224,29,cs)
);
}
);
width = 898;
},
{
layerId = "00637EAA-82D4-47CE-A25D-74860BA059DC";
shapes = (
{
closed = 1;
nodes = (
(307,-9,o),
(380,26,o),
(435,92,c),
(481,30,o),
(556,-9,o),
(641,-9,cs),
(713,-9,o),
(772,11,o),
(828,53,c),
(782,102,l),
(748,73,o),
(696,56,o),
(644,56,cs),
(545,56,o),
(467,129,o),
(456,228,c),
(867,228,l),
(867,251,l),
(867,395,o),
(763,509,o),
(630,509,cs),
(552,509,o),
(484,473,o),
(440,413,c),
(414,477,o),
(351,511,o),
(257,511,cs),
(196,511,o),
(137,496,o),
(65,461,c),
(93,404,l),
(153,435,o),
(201,448,o),
(250,448,cs),
(337,448,o),
(383,407,o),
(383,327,cs),
(383,263,l),
(341,284,o),
(291,295,o),
(239,295,cs),
(116,295,o),
(37,235,o),
(37,142,cs),
(37,52,o),
(111,-9,o),
(221,-9,cs)
);
},
{
closed = 1;
nodes = (
(472,379,o),
(541,444,o),
(628,444,cs),
(711,444,o),
(780,376,o),
(793,287,c),
(458,287,l)
);
},
{
closed = 1;
nodes = (
(160,49,o),
(108,88,o),
(108,144,cs),
(108,202,o),
(161,241,o),
(241,241,cs),
(299,241,o),
(346,229,o),
(387,201,c),
(392,178,o),
(399,157,o),
(408,137,c),
(360,78,o),
(303,49,o),
(234,49,cs)
);
}
);
width = 907;
},
{
layerId = "7F797451-F356-4E8F-9E4B-AB77A40997AF";
shapes = (
{
closed = 1;
nodes = (
(310,-9,o),
(377,16,o),
(443,75,c),
(495,22,o),
(569,-10,o),
(653,-10,cs),
(741,-10,o),
(807,14,o),
(874,70,c),
(767,165,l),
(742,139,o),
(705,125,o),
(661,125,cs),
(600,125,o),
(552,159,o),
(531,209,c),
(908,209,l),
(908,249,l),
(908,416,o),
(796,538,o),
(641,538,cs),
(576,538,o),
(518,516,o),
(472,476,c),
(433,517,o),
(372,539,o),
(293,539,cs),
(212,539,o),
(132,520,o),
(46,481,c),
(104,362,l),
(173,391,o),
(222,404,o),
(264,404,cs),
(331,404,o),
(365,378,o),
(365,325,cs),
(365,299,l),
(326,309,o),
(286,314,o),
(245,314,cs),
(110,314,o),
(32,256,o),
(32,155,cs),
(32,58,o),
(109,-9,o),
(219,-9,cs)
);
},
{
closed = 1;
nodes = (
(544,375,o),
(584,406,o),
(638,406,cs),
(690,406,o),
(732,373,o),
(749,322,c),
(528,322,l)
);
},
{
closed = 1;
nodes = (
(215,105,o),
(186,125,o),
(186,158,cs),
(186,191,o),
(216,210,o),
(269,210,cs),
(305,210,o),
(340,205,o),
(374,195,c),
(378,181,o),
(383,166,o),
(389,153,c),
(352,121,o),
(309,105,o),
(264,105,cs)
);
}
);
width = 934;
}
);
unicode = 230;
},
{
glyphname = b;
kernLeft = b;
kernRight = o;
lastChange = "2024-11-06 22:35:57 +0000";
layers = (
{
layerId = m001;
shapes = (
{
closed = 1;
nodes = (
(112,0,l),
(112,58,l),
(158,17,o),
(218,-10,o),
(281,-10,cs),
(418,-10,o),
(526,103,o),
(526,246,cs),
(526,390,o),
(418,503,o),
(281,502,cs),
(215,502,o),
(156,478,o),
(112,433,c),
(112,711,l),
(68,700,l),
(68,0,l)
);
},
{
closed = 1;
nodes = (
(210,32,o),
(147,67,o),
(112,114,c),
(112,378,l),
(145,427,o),
(208,460,o),
(281,460,cs),
(393,460,o),
(481,366,o),
(481,246,cs),
(481,126,o),
(393,32,o),
(281,32,cs)
);
}
);
userData = {
com.typemytype.robofont.guideline.magnetic.4yrjmX8Bku = 5;
com.typemytype.robofont.guideline.magnetic.hMNSHbc6V0 = 5;
com.typemytype.robofont.guideline.magnetic.oMcBIsVaaS = 5;
};
width = 571;
},
{
layerId = "00637EAA-82D4-47CE-A25D-74860BA059DC";
shapes = (
{
closed = 1;
nodes = (
(136,0,l),
(136,50,l),
(181,13,o),
(238,-8,o),
(297,-8,cs),
(440,-8,o),
(550,105,o),
(550,251,cs),
(550,396,o),
(440,509,o),
(298,509,cs),
(235,509,o),
(179,488,o),
(137,448,c),
(137,717,l),
(63,700,l),
(63,0,l)
);
},
{
closed = 1;
nodes = (
(229,57,o),
(172,83,o),
(137,126,c),
(137,374,l),
(172,418,o),
(228,444,o),
(291,444,cs),
(396,444,o),
(477,360,o),
(477,250,cs),
(477,140,o),
(397,57,o),
(291,57,cs)
);
}
);
userData = {
com.typemytype.robofont.guideline.magnetic.4yrjmX8Bku = 5;
com.typemytype.robofont.guideline.magnetic.hMNSHbc6V0 = 5;
com.typemytype.robofont.guideline.magnetic.oMcBIsVaaS = 5;
};
width = 590;
},
{
layerId = "7F797451-F356-4E8F-9E4B-AB77A40997AF";
shapes = (
{
closed = 1;
nodes = (
(210,0,l),
(210,30,l),
(250,6,o),
(297,-7,o),
(347,-7,cs),
(501,-7,o),
(622,112,o),
(622,264,cs),
(622,416,o),
(503,536,o),
(352,536,cs),
(301,536,o),
(253,521,o),
(212,492,c),
(212,725,l),
(50,700,l),
(50,0,l)
);
},
{
closed = 1;
nodes = (
(280,130,o),
(240,145,o),
(212,171,c),
(212,356,l),
(241,384,o),
(279,398,o),
(324,398,cs),
(402,398,o),
(463,340,o),
(463,264,cs),
(463,188,o),
(403,130,o),
(324,130,cs)
);
}
);
userData = {
com.typemytype.robofont.guideline.magnetic.4yrjmX8Bku = 5;
com.typemytype.robofont.guideline.magnetic.hMNSHbc6V0 = 5;
com.typemytype.robofont.guideline.magnetic.oMcBIsVaaS = 5;
};
width = 648;
}
);
unicode = 98;
},
{
glyphname = c;
kernLeft = o;
kernRight = c;
lastChange = "2024-11-06 22:35:57 +0000";
layers = (
{
anchors = (
{
name = bottom;
pos = (291,0);
},
{
name = top;
pos = (290,492);
}
);
layerId = m001;
shapes = (
{
closed = 1;
nodes = (
(357,-10,o),
(428,18,o),
(479,65,c),
(449,101,l),
(406,59,o),
(348,32,o),
(290,32,cs),
(178,32,o),
(90,126,o),
(90,246,cs),
(90,366,o),
(178,460,o),
(290,460,cs),
(348,460,o),
(406,433,o),
(449,391,c),
(479,427,l),
(428,474,o),
(357,502,o),
(290,502,cs),
(153,502,o),
(45,390,o),
(45,246,cs),
(45,102,o),
(153,-10,o),
(290,-10,cs)
);
}
);
userData = {
com.typemytype.robofont.guideline.magnetic.UjUq2FwnAV = 5;
com.typemytype.robofont.guideline.magnetic.vnK2GtybQC = 5;
com.typemytype.robofont.guideline.magnetic.yE2TcVrfNN = 5;
};
width = 504;
},
{
anchors = (
{
name = bottom;
pos = (296,0);
},
{
name = top;
pos = (294,501);
}
);
layerId = "00637EAA-82D4-47CE-A25D-74860BA059DC";
shapes = (
{
closed = 1;
nodes = (
(367,-9,o),
(436,20,o),
(489,71,c),
(443,121,l),
(400,79,o),
(351,58,o),
(297,58,cs),
(194,58,o),
(113,142,o),
(113,251,cs),
(113,358,o),
(193,443,o),
(296,443,cs),
(350,443,o),
(404,420,o),
(444,378,c),
(491,432,l),
(439,482,o),
(368,511,o),
(295,511,cs),
(152,511,o),
(40,396,o),
(40,251,cs),
(40,105,o),
(152,-9,o),
(295,-9,cs)
);
}
);
userData = {
com.typemytype.robofont.guideline.magnetic.UjUq2FwnAV = 5;
com.typemytype.robofont.guideline.magnetic.vnK2GtybQC = 5;
com.typemytype.robofont.guideline.magnetic.yE2TcVrfNN = 5;
};
width = 513;
},
{
anchors = (
{
name = bottom;
pos = (309,0);
},
{
name = top;
pos = (304,529);
}
);
layerId = "7F797451-F356-4E8F-9E4B-AB77A40997AF";
shapes = (
{
closed = 1;
nodes = (
(390,-10,o),
(471,26,o),
(525,87,c),
(429,187,l),
(394,148,o),
(358,130,o),
(314,130,cs),
(241,130,o),
(187,187,o),
(187,264,cs),
(187,341,o),
(240,399,o),
(310,399,cs),
(357,399,o),
(394,380,o),
(431,338,c),
(530,441,l),
(475,503,o),
(393,539,o),
(306,539,cs),
(148,539,o),
(26,419,o),
(26,264,cs),
(26,109,o),
(148,-10,o),
(306,-10,cs)
);
}
);
userData = {
com.typemytype.robofont.guideline.magnetic.UjUq2FwnAV = 5;
com.typemytype.robofont.guideline.magnetic.vnK2GtybQC = 5;
com.typemytype.robofont.guideline.magnetic.yE2TcVrfNN = 5;
};
width = 539;
}
);
unicode = 99;
},
{
glyphname = ccedilla;
kernLeft = o;
kernRight = c;
lastChange = "2024-11-06 22:35:57 +0000";
layers = (
{
layerId = m001;
shapes = (
{
closed = 1;
nodes = (
(343,-224,o),
(386,-189,o),
(386,-138,cs),
(386,-92,o),
(348,-61,o),
(291,-60,c),
(304,-10,l),
(367,-6,o),
(432,21,o),
(479,65,c),
(449,101,l),
(406,59,o),
(348,32,o),
(290,32,cs),
(178,32,o),
(90,126,o),
(90,246,cs),
(90,366,o),
(178,460,o),
(290,460,cs),
(348,460,o),
(406,433,o),
(449,391,c),
(479,427,l),
(428,474,o),
(357,502,o),
(290,502,cs),
(153,502,o),
(45,390,o),
(45,246,cs),
(45,109,o),
(143,0,o),
(271,-9,c),
(250,-89,l),
(273,-89,ls),
(321,-89,o),
(349,-108,o),
(349,-139,cs),
(349,-172,o),
(322,-193,o),
(280,-193,cs),
(250,-193,o),
(222,-182,o),
(195,-161,c),
(172,-186,l),
(198,-210,o),
(238,-224,o),
(280,-224,cs)
);
}
);
width = 504;
},
{
layerId = "00637EAA-82D4-47CE-A25D-74860BA059DC";
shapes = (
{
closed = 1;
nodes = (
(349,-228,o),
(397,-190,o),
(397,-137,cs),
(397,-89,o),
(360,-58,o),
(302,-55,c),
(315,-8,l),
(380,-3,o),
(441,25,o),
(489,71,c),
(443,121,l),
(400,79,o),
(351,58,o),
(297,58,cs),
(194,58,o),
(113,142,o),
(113,251,cs),
(113,358,o),
(193,443,o),
(296,443,cs),
(350,443,o),
(404,420,o),
(444,378,c),
(491,432,l),
(439,482,o),
(368,511,o),
(295,511,cs),
(152,511,o),
(40,396,o),
(40,251,cs),
(40,113,o),
(140,4,o),
(272,-8,c),
(248,-91,l),
(277,-91,ls),
(320,-91,o),
(346,-109,o),
(346,-138,cs),
(346,-167,o),
(322,-187,o),
(282,-187,cs),
(252,-187,o),
(224,-176,o),
(199,-155,c),
(169,-187,l),
(198,-214,o),
(238,-228,o),
(282,-228,cs)
);
}
);
width = 513;
},
{
layerId = "7F797451-F356-4E8F-9E4B-AB77A40997AF";
shapes = (
{
closed = 1;
nodes = (
(366,-239,o),
(426,-193,o),
(426,-134,cs),
(426,-83,o),
(390,-48,o),
(331,-42,c),
(342,-8,l),
(413,1,o),
(479,35,o),
(525,87,c),
(429,187,l),
(394,148,o),
(358,130,o),
(314,130,cs),
(241,130,o),
(187,187,o),
(187,264,cs),
(187,341,o),
(240,399,o),
(310,399,cs),
(357,399,o),
(394,380,o),
(431,338,c),
(530,441,l),
(475,503,o),
(393,539,o),
(306,539,cs),
(148,539,o),
(26,419,o),
(26,264,cs),
(26,122,o),
(128,11,o),
(266,-7,c),
(239,-99,l),
(286,-99,ls),
(316,-99,o),
(335,-112,o),
(335,-132,cs),
(335,-154,o),
(317,-166,o),
(284,-166,cs),
(258,-166,o),
(232,-156,o),
(208,-138,c),
(157,-192,l),
(193,-224,o),
(235,-239,o),
(287,-239,cs)
);
}
);
width = 539;
}
);
unicode = 231;
},
{
glyphname = d;
kernLeft = o;
kernRight = d;
lastChange = "2024-11-15 10:53:08 +0000";
layers = (
{
anchors = (
{
name = bottom;
pos = (286,0);
},
{
name = center;
pos = (428,814);
},
{
name = top;
pos = (286,492);
},
{
name = topright;
pos = (603,704);
}
);
layerId = m001;
shapes = (
{
closed = 1;
nodes = (
(356,-10,o),
(415,14,o),
(459,59,c),
(459,0,l),
(503,0,l),
(503,711,l),
(459,700,l),
(459,434,l),
(413,475,o),
(353,502,o),
(290,502,cs),
(153,502,o),
(45,389,o),
(45,246,cs),
(45,102,o),
(153,-11,o),
(290,-10,cs)
);
},
{
closed = 1;
nodes = (
(178,32,o),
(90,126,o),
(90,246,cs),
(90,366,o),
(178,460,o),
(290,460,cs),
(361,460,o),
(424,425,o),
(459,378,c),
(459,114,l),
(426,65,o),
(363,32,o),
(290,32,cs)
);
}
);
userData = {
com.typemytype.robofont.guideline.magnetic.BmBtoe1U2f = 5;
com.typemytype.robofont.guideline.magnetic.Gh5hrXYXhN = 5;
com.typemytype.robofont.guideline.magnetic.QwnFCJBzbb = 5;
};
width = 571;
},
{
anchors = (
{
name = bottom;
pos = (295,0);
},
{
name = center;
pos = (443,814);
},
{
name = top;
pos = (295,501);
},
{
name = topright;
pos = (627,717);
}
);
layerId = "00637EAA-82D4-47CE-A25D-74860BA059DC";
shapes = (
{
closed = 1;
nodes = (
(355,-8,o),
(411,13,o),
(454,53,c),
(454,0,l),
(527,0,l),
(527,717,l),
(453,700,l),
(453,452,l),
(408,489,o),
(351,509,o),
(293,509,cs),
(150,509,o),
(40,396,o),
(40,251,cs),
(40,105,o),
(151,-8,o),
(292,-8,cs)
);
},
{
closed = 1;
nodes = (
(194,57,o),
(113,142,o),
(113,252,cs),
(113,362,o),
(194,444,o),
(299,444,cs),
(361,444,o),
(418,418,o),
(453,375,c),
(453,127,l),
(418,83,o),
(362,57,o),
(299,57,cs)
);
}
);
userData = {
com.typemytype.robofont.guideline.magnetic.BmBtoe1U2f = 5;
com.typemytype.robofont.guideline.magnetic.Gh5hrXYXhN = 5;
com.typemytype.robofont.guideline.magnetic.QwnFCJBzbb = 5;
};
width = 590;
},
{
anchors = (
{
name = bottom;
pos = (324,0);
},
{
name = center;
pos = (486,814);
},
{
name = top;
pos = (324,529);
},
{
name = topright;
pos = (678,715);
}
);
layerId = "7F797451-F356-4E8F-9E4B-AB77A40997AF";
shapes = (
{
closed = 1;
nodes = (
(348,-7,o),
(397,9,o),
(438,39,c),
(438,0,l),
(598,0,l),
(598,725,l),
(436,700,l),
(436,501,l),
(396,524,o),
(350,536,o),
(301,536,cs),
(147,536,o),
(26,417,o),
(26,265,cs),
(26,113,o),
(145,-7,o),
(296,-7,cs)
);
},
{
closed = 1;
nodes = (
(246,131,o),
(185,189,o),
(185,265,cs),
(185,341,o),
(245,399,o),
(324,399,cs),
(368,399,o),
(408,384,o),
(436,358,c),
(436,173,l),
(407,145,o),
(369,131,o),
(324,131,cs)
);
}
);
userData = {
com.typemytype.robofont.guideline.magnetic.BmBtoe1U2f = 5;
com.typemytype.robofont.guideline.magnetic.Gh5hrXYXhN = 5;
com.typemytype.robofont.guideline.magnetic.QwnFCJBzbb = 5;
};
width = 648;
}
);
unicode = 100;
},
{
glyphname = dcroat;
kernLeft = o;
kernRight = d;
lastChange = "2024-11-06 22:35:57 +0000";
layers = (
{
layerId = m001;
shapes = (
{
closed = 1;
nodes = (
(356,-10,o),
(415,14,o),
(459,59,c),
(459,0,l),
(503,0,l),
(503,590,l),
(569,590,l),
(569,627,l),
(503,627,l),
(503,711,l),
(459,700,l),
(459,627,l),
(283,627,l),
(283,590,l),
(459,590,l),
(459,434,l),
(413,475,o),
(353,502,o),
(290,502,cs),
(153,502,o),
(45,389,o),
(45,246,cs),
(45,102,o),
(153,-11,o),
(290,-10,cs)
);
},
{
closed = 1;
nodes = (
(178,32,o),
(90,126,o),
(90,246,cs),
(90,366,o),
(178,460,o),
(290,460,cs),
(361,460,o),
(424,425,o),
(459,378,c),
(459,114,l),
(426,65,o),
(363,32,o),
(290,32,cs)
);
}
);
width = 571;
},
{
layerId = "00637EAA-82D4-47CE-A25D-74860BA059DC";
shapes = (
{
closed = 1;
nodes = (
(355,-8,o),
(411,13,o),
(454,53,c),
(454,0,l),
(527,0,l),
(527,586,l),
(589,586,l),
(589,644,l),
(527,644,l),
(527,717,l),
(453,700,l),
(453,644,l),
(289,644,l),
(289,586,l),
(453,586,l),
(453,452,l),
(408,489,o),
(351,509,o),
(293,509,cs),
(150,509,o),
(40,396,o),
(40,251,cs),
(40,105,o),
(151,-8,o),
(292,-8,cs)
);
},
{
closed = 1;
nodes = (
(194,57,o),
(113,142,o),
(113,252,cs),
(113,362,o),
(194,444,o),
(299,444,cs),
(361,444,o),
(418,418,o),
(453,375,c),
(453,127,l),
(418,83,o),
(362,57,o),
(299,57,cs)
);
}
);
width = 589;
},
{
layerId = "7F797451-F356-4E8F-9E4B-AB77A40997AF";
shapes = (
{
closed = 1;
nodes = (
(348,-7,o),
(397,9,o),
(438,39,c),
(438,0,l),
(598,0,l),
(598,576,l),
(651,576,l),
(651,671,l),
(598,671,l),
(598,735,l),
(436,700,l),
(436,671,l),
(306,671,l),
(306,576,l),
(436,576,l),
(436,501,l),
(396,524,o),
(350,536,o),
(301,536,cs),
(147,536,o),
(26,417,o),
(26,265,cs),
(26,113,o),
(145,-7,o),
(296,-7,cs)
);
},
{
closed = 1;
nodes = (
(246,131,o),
(185,189,o),
(185,265,cs),
(185,341,o),
(245,399,o),
(324,399,cs),
(368,399,o),
(408,384,o),
(436,358,c),
(436,173,l),
(407,145,o),
(369,131,o),
(324,131,cs)
);
}
);
width = 646;
}
);
unicode = 273;
},
{
glyphname = eth;
kernLeft = o;
kernRight = o;
lastChange = "2024-11-06 22:35:57 +0000";
layers = (
{
layerId = m001;
shapes = (
{
closed = 1;
nodes = (
(438,-10,o),
(540,107,o),
(540,283,cs),
(540,430,o),
(497,546,o),
(415,624,c),
(519,688,l),
(497,722,l),
(382,651,l),
(342,681,o),
(294,703,o),
(238,717,c),
(225,681,l),
(271,670,o),
(311,652,o),
(346,629,c),
(249,569,l),
(270,535,l),
(379,602,l),
(441,546,o),
(480,467,o),
(494,372,c),
(454,447,o),
(378,494,o),
(290,494,cs),
(150,494,o),
(45,388,o),
(45,246,cs),
(45,102,o),
(153,-10,o),
(290,-10,cs)
);
},
{
closed = 1;
nodes = (
(178,32,o),
(90,123,o),
(90,242,cs),
(90,361,o),
(178,452,o),
(291,452,cs),
(404,452,o),
(492,361,o),
(492,242,cs),
(492,123,o),
(404,32,o),
(291,32,cs)
);
}
);
width = 588;
},
{
layerId = "00637EAA-82D4-47CE-A25D-74860BA059DC";
shapes = (
{
closed = 1;
nodes = (
(446,-10,o),
(548,110,o),
(548,292,cs),
(548,433,o),
(504,547,o),
(422,627,c),
(519,687,l),
(488,733,l),
(378,664,l),
(339,693,o),
(293,715,o),
(242,731,c),
(212,677,l),
(252,666,o),
(288,650,o),
(319,628,c),
(232,574,l),
(263,528,l),
(365,592,l),
(421,538,o),
(458,467,o),
(472,384,c),
(434,449,o),
(367,490,o),
(285,490,cs),
(148,490,o),
(41,383,o),
(41,246,cs),
(41,102,o),
(150,-10,o),
(290,-10,cs)
);
},
{
closed = 1;
nodes = (
(191,57,o),
(113,137,o),
(113,242,cs),
(113,346,o),
(191,426,o),
(292,426,cs),
(392,426,o),
(470,346,o),
(470,242,cs),
(470,137,o),
(392,57,o),
(292,57,cs)
);
}
);
width = 601;
},
{
layerId = "7F797451-F356-4E8F-9E4B-AB77A40997AF";
shapes = (
{
closed = 1;
nodes = (
(461,-9,o),
(568,117,o),
(568,320,cs),
(568,439,o),
(522,548,o),
(439,637,c),
(514,685,l),
(454,766,l),
(361,706,l),
(328,730,o),
(291,752,o),
(251,771,c),
(165,665,l),
(190,654,o),
(214,641,o),
(237,626,c),
(177,587,l),
(237,506,l),
(319,559,l),
(353,523,o),
(379,485,o),
(390,449,c),
(356,471,o),
(316,481,o),
(266,481,cs),
(138,481,o),
(26,371,o),
(26,246,cs),
(26,102,o),
(140,-9,o),
(287,-9,cs)
);
},
{
closed = 1;
nodes = (
(231,132,o),
(182,181,o),
(182,241,cs),
(182,300,o),
(231,348,o),
(292,348,cs),
(351,348,o),
(400,300,o),
(400,241,cs),
(400,181,o),
(352,132,o),
(292,132,cs)
);
}
);
width = 596;
}
);
unicode = 240;
},
{
glyphname = e;
kernLeft = o;
kernRight = e;
lastChange = "2024-11-06 22:35:57 +0000";
layers = (
{
anchors = (
{
name = bottom;
pos = (365,0);
},
{
name = top;
pos = (281,492);
}
);
layerId = m001;
shapes = (
{
closed = 1;
nodes = (
(355,-10,o),
(415,8,o),
(469,47,c),
(443,82,l),
(404,51,o),
(346,32,o),
(290,32,cs),
(182,32,o),
(96,120,o),
(90,234,c),
(509,234,l),
(509,252,ls),
(509,389,o),
(413,502,o),
(286,502,cs),
(149,502,o),
(45,390,o),
(45,246,cs),
(45,102,o),
(153,-10,o),
(290,-10,cs)
);
},
{
closed = 1;
nodes = (
(104,381,o),
(183,460,o),
(285,460,cs),
(380,460,o),
(452,378,o),
(462,276,c),
(92,276,l)
);
}
);
userData = {
SBAlt = left;
com.typemytype.robofont.guideline.magnetic.3EZO9zNDyF = 5;
com.typemytype.robofont.guideline.magnetic.3jKz4iMjwa = 5;
com.typemytype.robofont.guideline.magnetic.siQwTZGZzn = 5;
};
width = 549;
},
{
anchors = (
{
name = bottom;
pos = (374,0);
},
{
name = top;
pos = (286,501);
}
);
layerId = "00637EAA-82D4-47CE-A25D-74860BA059DC";
shapes = (
{
closed = 1;
nodes = (
(370,-9,o),
(429,11,o),
(485,53,c),
(439,102,l),
(405,73,o),
(353,56,o),
(301,56,cs),
(202,56,o),
(124,129,o),
(113,228,c),
(524,228,l),
(524,251,ls),
(524,395,o),
(420,509,o),
(287,509,cs),
(149,509,o),
(40,395,o),
(40,251,cs),
(40,104,o),
(153,-9,o),
(298,-9,cs)
);
},
{
closed = 1;
nodes = (
(129,379,o),
(198,444,o),
(285,444,cs),
(368,444,o),
(437,376,o),
(450,287,c),
(115,287,l)
);
}
);
userData = {
SBAlt = left;
com.typemytype.robofont.guideline.magnetic.3EZO9zNDyF = 5;
com.typemytype.robofont.guideline.magnetic.3jKz4iMjwa = 5;
com.typemytype.robofont.guideline.magnetic.siQwTZGZzn = 5;
};
width = 564;
},
{
anchors = (
{
name = bottom;
pos = (402,0);
},
{
name = top;
pos = (300,529);
}
);
layerId = "7F797451-F356-4E8F-9E4B-AB77A40997AF";
shapes = (
{
closed = 1;
nodes = (
(402,-10,o),
(468,14,o),
(535,70,c),
(428,165,l),
(403,139,o),
(366,125,o),
(322,125,cs),
(261,125,o),
(213,159,o),
(192,209,c),
(569,209,l),
(569,249,ls),
(569,416,o),
(457,538,o),
(302,538,cs),
(147,538,o),
(26,418,o),
(26,264,cs),
(26,110,o),
(152,-10,o),
(314,-10,cs)
);
},
{
closed = 1;
nodes = (
(205,375,o),
(245,406,o),
(299,406,cs),
(351,406,o),
(393,373,o),
(410,322,c),
(189,322,l)
);
}
);
userData = {
SBAlt = left;
com.typemytype.robofont.guideline.magnetic.3EZO9zNDyF = 5;
com.typemytype.robofont.guideline.magnetic.3jKz4iMjwa = 5;
com.typemytype.robofont.guideline.magnetic.siQwTZGZzn = 5;
};
width = 595;
}
);
unicode = 101;
},
{
glyphname = eogonek;
kernLeft = o;
kernRight = e;
lastChange = "2024-11-06 22:35:57 +0000";
layers = (
{
layerId = m001;
shapes = (
{
closed = 1;
nodes = (
(336,-221,o),
(359,-214,o),
(379,-201,c),
(366,-172,l),
(351,-182,o),
(333,-187,o),
(315,-187,cs),
(277,-187,o),
(253,-168,o),
(253,-131,cs),
(253,-94,o),
(279,-56,o),
(362,-2,c),
(400,7,o),
(436,23,o),
(469,47,c),
(443,82,l),
(404,51,o),
(346,32,o),
(290,32,cs),
(182,32,o),
(96,120,o),
(90,234,c),
(509,234,l),
(509,252,ls),
(509,389,o),
(413,502,o),
(286,502,cs),
(149,502,o),
(45,390,o),
(45,246,cs),
(45,98,o),
(158,-15,o),
(302,-10,c),
(238,-59,o),
(214,-97,o),
(214,-138,cs),
(214,-185,o),
(248,-221,o),
(310,-221,cs)
);
},
{
closed = 1;
nodes = (
(104,381,o),
(183,460,o),
(285,460,cs),
(380,460,o),
(452,378,o),
(462,276,c),
(92,276,l)
);
}
);
width = 549;
},
{
layerId = "00637EAA-82D4-47CE-A25D-74860BA059DC";
shapes = (
{
closed = 1;
nodes = (
(343,-221,o),
(367,-214,o),
(389,-200,c),
(374,-161,l),
(360,-171,o),
(343,-175,o),
(326,-175,cs),
(289,-175,o),
(268,-156,o),
(268,-123,cs),
(268,-84,o),
(301,-46,o),
(373,-1,c),
(413,9,o),
(450,26,o),
(485,53,c),
(439,102,l),
(405,73,o),
(353,56,o),
(301,56,cs),
(202,56,o),
(124,129,o),
(113,228,c),
(524,228,l),
(524,251,ls),
(524,395,o),
(420,509,o),
(287,509,cs),
(149,509,o),
(40,395,o),
(40,251,cs),
(40,104,o),
(153,-9,o),
(303,-9,c),
(243,-53,o),
(217,-91,o),
(217,-135,cs),
(217,-187,o),
(256,-221,o),
(315,-221,cs)
);
},
{
closed = 1;
nodes = (
(129,379,o),
(198,444,o),
(285,444,cs),
(368,444,o),
(437,376,o),
(450,287,c),
(115,287,l)
);
}
);
width = 564;
},
{
layerId = "7F797451-F356-4E8F-9E4B-AB77A40997AF";
shapes = (
{
closed = 1;
nodes = (
(367,-221,o),
(399,-212,o),
(422,-198,c),
(401,-128,l),
(391,-135,o),
(377,-139,o),
(365,-139,cs),
(336,-139,o),
(318,-124,o),
(318,-98,cs),
(318,-64,o),
(344,-33,o),
(401,0,c),
(450,11,o),
(492,34,o),
(535,70,c),
(428,165,l),
(403,139,o),
(366,125,o),
(322,125,cs),
(261,125,o),
(213,159,o),
(192,209,c),
(569,209,l),
(569,249,ls),
(569,416,o),
(457,538,o),
(302,538,cs),
(147,538,o),
(26,418,o),
(26,264,cs),
(26,113,o),
(145,-2,o),
(301,-10,c),
(250,-45,o),
(227,-82,o),
(227,-127,cs),
(227,-183,o),
(270,-221,o),
(335,-221,cs)
);
},
{
closed = 1;
nodes = (
(205,375,o),
(245,406,o),
(299,406,cs),
(351,406,o),
(393,373,o),
(410,322,c),
(189,322,l)
);
}
);
width = 595;
}
);
unicode = 281;
},
{
glyphname = f;
kernLeft = t;
kernRight = f;
lastChange = "2024-11-06 22:35:57 +0000";
layers = (
{
layerId = m001;
shapes = (
{
closed = 1;
nodes = (
(179,0,l),
(179,452,l),
(331,452,l),
(331,492,l),
(179,492,l),
(179,600,ls),
(179,669,o),
(209,698,o),
(270,698,cs),
(293,698,o),
(308,695,o),
(331,688,c),
(331,731,l),
(312,737,o),
(296,740,o),
(271,740,cs),
(183,740,o),
(135,690,o),
(135,601,cs),
(135,492,l),
(17,492,l),
(17,452,l),
(135,452,l),
(135,0,l)
);
}
);
userData = {
com.typemytype.robofont.guideline.magnetic.U34vPi2PeJ = 5;
com.typemytype.robofont.guideline.magnetic.hSdwiQ96LD = 5;
com.typemytype.robofont.guideline.magnetic.taESRfxB9k = 5;
};
width = 348;
},
{
layerId = "00637EAA-82D4-47CE-A25D-74860BA059DC";
shapes = (
{
closed = 1;
nodes = (
(208,0,l),
(208,438,l),
(357,438,l),
(357,501,l),
(208,501,l),
(208,594,ls),
(208,655,o),
(236,683,o),
(295,683,cs),
(318,683,o),
(334,680,o),
(357,673,c),
(357,739,l),
(337,746,o),
(317,748,o),
(290,748,cs),
(190,748,o),
(135,694,o),
(135,596,cs),
(135,501,l),
(17,501,l),
(17,438,l),
(135,438,l),
(135,0,l)
);
}
);
userData = {
com.typemytype.robofont.guideline.magnetic.U34vPi2PeJ = 5;
com.typemytype.robofont.guideline.magnetic.hSdwiQ96LD = 5;
com.typemytype.robofont.guideline.magnetic.taESRfxB9k = 5;
};
width = 374;
},
{
layerId = "7F797451-F356-4E8F-9E4B-AB77A40997AF";
shapes = (
{
closed = 1;
nodes = (
(296,0,l),
(296,394,l),
(435,394,l),
(435,529,l),
(296,529,l),
(296,558,ls),
(296,598,o),
(321,617,o),
(371,617,cs),
(392,617,o),
(410,615,o),
(435,610,c),
(435,744,l),
(413,750,o),
(377,754,o),
(349,754,cs),
(210,754,o),
(134,686,o),
(134,561,cs),
(134,529,l),
(18,529,l),
(18,394,l),
(134,394,l),
(134,0,l)
);
}
);
userData = {
com.typemytype.robofont.guideline.magnetic.U34vPi2PeJ = 5;
com.typemytype.robofont.guideline.magnetic.hSdwiQ96LD = 5;
com.typemytype.robofont.guideline.magnetic.taESRfxB9k = 5;
};
width = 453;
}
);
unicode = 102;
},
{
glyphname = g;
kernLeft = o;
kernRight = q;
lastChange = "2024-11-06 22:35:57 +0000";
layers = (
{
anchors = (
{
name = top;
pos = (283,492);
}
);
layerId = m001;
shapes = (
{
closed = 1;
nodes = (
(431,-214,o),
(503,-148,o),
(503,-23,cs),
(503,492,l),
(459,492,l),
(459,434,l),
(413,475,o),
(353,502,o),
(290,502,cs),
(153,502,o),
(45,389,o),
(45,246,cs),
(45,102,o),
(153,-11,o),
(290,-10,cs),
(356,-10,o),
(415,14,o),
(459,59,c),
(459,-25,ls),
(459,-122,o),
(404,-172,o),
(302,-172,cs),
(249,-172,o),
(203,-158,o),
(145,-125,c),
(120,-161,l),
(173,-194,o),
(240,-214,o),
(305,-214,cs)
);
},
{
closed = 1;
nodes = (
(178,32,o),
(90,126,o),
(90,246,cs),
(90,366,o),
(178,460,o),
(290,460,cs),
(361,460,o),
(424,425,o),
(459,378,c),
(459,114,l),
(426,65,o),
(363,32,o),
(290,32,cs)
);
}
);
width = 571;
},
{
anchors = (
{
name = top;
pos = (292,501);
}
);
layerId = "00637EAA-82D4-47CE-A25D-74860BA059DC";
shapes = (
{
closed = 1;
nodes = (
(446,-214,o),
(523,-143,o),
(523,-15,cs),
(523,501,l),
(450,501,l),
(450,451,l),
(404,489,o),
(349,510,o),
(292,510,cs),
(150,510,o),
(40,397,o),
(40,253,cs),
(40,108,o),
(151,-4,o),
(290,-4,cs),
(349,-4,o),
(404,16,o),
(449,54,c),
(449,-16,ls),
(449,-104,o),
(399,-150,o),
(304,-150,cs),
(252,-150,o),
(203,-136,o),
(143,-104,c),
(111,-162,l),
(167,-195,o),
(237,-214,o),
(307,-214,cs)
);
},
{
closed = 1;
nodes = (
(193,61,o),
(113,145,o),
(113,253,cs),
(113,361,o),
(192,444,o),
(296,444,cs),
(359,444,o),
(415,419,o),
(449,376,c),
(449,130,l),
(415,86,o),
(360,61,o),
(296,61,cs)
);
}
);
width = 586;
},
{
anchors = (
{
name = top;
pos = (320,529);
}
);
layerId = "7F797451-F356-4E8F-9E4B-AB77A40997AF";
shapes = (
{
closed = 1;
nodes = (
(497,-214,o),
(594,-135,o),
(594,8,cs),
(594,529,l),
(434,529,l),
(434,501,l),
(395,524,o),
(349,536,o),
(301,536,cs),
(147,536,o),
(26,418,o),
(26,268,cs),
(26,117,o),
(145,-2,o),
(295,-2,cs),
(345,-2,o),
(392,13,o),
(432,40,c),
(432,10,ls),
(432,-51,o),
(393,-82,o),
(317,-82,cs),
(261,-82,o),
(205,-69,o),
(148,-42,c),
(94,-168,l),
(157,-198,o),
(235,-214,o),
(320,-214,cs)
);
},
{
closed = 1;
nodes = (
(245,134,o),
(185,192,o),
(185,268,cs),
(185,342,o),
(246,399,o),
(324,399,cs),
(366,399,o),
(404,384,o),
(432,360,c),
(432,173,l),
(404,147,o),
(367,134,o),
(323,134,cs)
);
}
);
width = 644;
}
);
note = "Version created Sun Jan 13 16:53:00 2019";
unicode = 103;
},
{
color = (0,0,255,191);
glyphname = gcommaaccent;
kernLeft = o;
kernRight = q;
lastChange = "2024-11-06 22:35:57 +0000";
layers = (
{
layerId = m001;
shapes = (
{
closed = 1;
nodes = (
(305,772,l),
(254,604,l),
(304,604,l),
(340,772,l)
);
},
{
ref = g;
}
);
width = 566;
},
{
layerId = "00637EAA-82D4-47CE-A25D-74860BA059DC";
shapes = (
{
closed = 1;
nodes = (
(313,785,l),
(253,606,l),
(327,606,l),
(368,785,l)
);
},
{
ref = g;
}
);
width = 585;
},
{
layerId = "7F797451-F356-4E8F-9E4B-AB77A40997AF";
shapes = (
{
closed = 1;
nodes = (
(336,832,l),
(247,617,l),
(398,617,l),
(453,832,l)
);
},
{
ref = g;
}
);
width = 642;
}
);
unicode = 291;
},
{
glyphname = h;
kernLeft = b;
kernRight = n;
lastChange = "2024-11-06 22:35:57 +0000";
layers = (
{
anchors = (
{
name = top;
pos = (89,700);
}
);
layerId = m001;
shapes = (
{
closed = 1;
nodes = (
(112,0,l),
(112,370,l),
(143,428,o),
(198,461,o),
(265,461,cs),
(361,461,o),
(419,400,o),
(419,302,cs),
(419,0,l),
(463,0,l),
(463,314,ls),
(463,426,o),
(387,502,o),
(275,502,cs),
(207,502,o),
(152,476,o),
(112,423,c),
(112,711,l),
(68,700,l),
(68,0,l)
);
}
);
userData = {
com.typemytype.robofont.guideline.magnetic.Cl320K55Dv = 5;
com.typemytype.robofont.guideline.magnetic.FcHvO3Gktm = 5;
com.typemytype.robofont.guideline.magnetic.J34TY3QDDz = 5;
};
width = 529;
},
{
anchors = (
{
name = top;
pos = (99,700);
}
);
layerId = "00637EAA-82D4-47CE-A25D-74860BA059DC";
shapes = (
{
closed = 1;
nodes = (
(137,0,l),
(137,369,l),
(167,418,o),
(215,446,o),
(275,446,cs),
(361,446,o),
(415,391,o),
(415,302,cs),
(415,0,l),
(488,0,l),
(488,317,ls),
(488,432,o),
(409,511,o),
(295,511,cs),
(230,511,o),
(176,488,o),
(137,442,c),
(137,717,l),
(63,700,l),
(63,0,l)
);
}
);
userData = {
com.typemytype.robofont.guideline.magnetic.Cl320K55Dv = 5;
com.typemytype.robofont.guideline.magnetic.FcHvO3Gktm = 5;
com.typemytype.robofont.guideline.magnetic.J34TY3QDDz = 5;
};
width = 549;
},
{
anchors = (
{
name = top;
pos = (130,700);
}
);
layerId = "7F797451-F356-4E8F-9E4B-AB77A40997AF";
shapes = (
{
closed = 1;
nodes = (
(212,0,l),
(212,358,l),
(234,385,o),
(266,400,o),
(307,400,cs),
(365,400,o),
(403,362,o),
(403,304,cs),
(403,0,l),
(565,0,l),
(565,326,ls),
(565,451,o),
(478,539,o),
(354,539,cs),
(300,539,o),
(251,523,o),
(212,493,c),
(212,735,l),
(50,700,l),
(50,0,l)
);
}
);
userData = {
com.typemytype.robofont.guideline.magnetic.Cl320K55Dv = 5;
com.typemytype.robofont.guideline.magnetic.FcHvO3Gktm = 5;
com.typemytype.robofont.guideline.magnetic.J34TY3QDDz = 5;
};
width = 611;
}
);
unicode = 104;
},
{
glyphname = hbar;
kernLeft = b;
kernRight = n;
lastChange = "2024-11-06 22:35:57 +0000";
layers = (
{
layerId = m001;
shapes = (
{
closed = 1;
nodes = (
(112,0,l),
(112,370,l),
(143,428,o),
(198,461,o),
(265,461,cs),
(361,461,o),
(419,400,o),
(419,302,cs),
(419,0,l),
(463,0,l),
(463,314,ls),
(463,426,o),
(387,502,o),
(275,502,cs),
(207,502,o),
(152,476,o),
(112,423,c),
(112,590,l),
(288,590,l),
(288,627,l),
(112,627,l),
(112,711,l),
(68,700,l),
(68,627,l),
(2,627,l),
(2,590,l),
(68,590,l),
(68,0,l)
);
}
);
width = 529;
},
{
layerId = "00637EAA-82D4-47CE-A25D-74860BA059DC";
shapes = (
{
closed = 1;
nodes = (
(137,0,l),
(137,369,l),
(167,418,o),
(215,446,o),
(275,446,cs),
(361,446,o),
(415,391,o),
(415,302,cs),
(415,0,l),
(488,0,l),
(488,317,ls),
(488,432,o),
(409,511,o),
(295,511,cs),
(230,511,o),
(176,488,o),
(137,442,c),
(137,586,l),
(300,586,l),
(300,644,l),
(137,644,l),
(137,717,l),
(63,700,l),
(63,644,l),
(0,644,l),
(0,586,l),
(63,586,l),
(63,0,l)
);
}
);
width = 549;
},
{
layerId = "7F797451-F356-4E8F-9E4B-AB77A40997AF";
shapes = (
{
closed = 1;
nodes = (
(212,0,l),
(212,358,l),
(234,385,o),
(266,400,o),
(307,400,cs),
(365,400,o),
(403,362,o),
(403,304,cs),
(403,0,l),
(565,0,l),
(565,326,ls),
(565,451,o),
(478,539,o),
(354,539,cs),
(300,539,o),
(251,523,o),
(212,493,c),
(212,576,l),
(340,576,l),
(340,671,l),
(212,671,l),
(212,735,l),
(50,700,l),
(50,671,l),
(-5,671,l),
(-5,576,l),
(50,576,l),
(50,0,l)
);
}
);
width = 611;
}
);
unicode = 295;
},
{
glyphname = i;
kernLeft = b;
kernRight = d;
lastChange = "2024-11-06 22:35:57 +0000";
layers = (
{
anchors = (
{
name = bottom;
pos = (112,0);
},
{
name = top;
pos = (90,492);
}
);
layerId = m001;
shapes = (
{
closed = 1;
nodes = (
(112,0,l),
(112,492,l),
(68,492,l),
(68,0,l)
);
},
{
closed = 1;
nodes = (
(112,603,o),
(128,620,o),
(128,641,cs),
(128,662,o),
(112,679,o),
(90,679,cs),
(68,679,o),
(52,662,o),
(52,641,cs),
(52,620,o),
(68,603,o),
(90,603,cs)
);
}
);
userData = {
SBAlt = left;
com.typemytype.robofont.guideline.magnetic.5k65HKVtXG = 5;
com.typemytype.robofont.guideline.magnetic.9MkqZPjp4I = 5;
com.typemytype.robofont.guideline.magnetic.qWbxKaCMh8 = 5;
com.typemytype.robofont.guideline.magnetic.xSfsqhpgEG = 5;
com.typemytype.robofont.guideline.magnetic.xenQAPR9xz = 5;
};
width = 180;
},
{
anchors = (
{
name = bottom;
pos = (137,0);
},
{
name = top;
pos = (100,501);
}
);
layerId = "00637EAA-82D4-47CE-A25D-74860BA059DC";
shapes = (
{
closed = 1;
nodes = (
(137,0,l),
(137,501,l),
(63,501,l),
(63,0,l)
);
},
{
closed = 1;
nodes = (
(128,597,o),
(150,620,o),
(150,647,cs),
(150,675,o),
(128,697,o),
(100,697,cs),
(73,697,o),
(50,675,o),
(50,647,cs),
(50,620,o),
(73,597,o),
(100,597,cs)
);
}
);
userData = {
SBAlt = left;
com.typemytype.robofont.guideline.magnetic.5k65HKVtXG = 5;
com.typemytype.robofont.guideline.magnetic.9MkqZPjp4I = 5;
com.typemytype.robofont.guideline.magnetic.qWbxKaCMh8 = 5;
com.typemytype.robofont.guideline.magnetic.xSfsqhpgEG = 5;
com.typemytype.robofont.guideline.magnetic.xenQAPR9xz = 5;
};
width = 200;
},
{
anchors = (
{
name = bottom;
pos = (212,0);
},
{
name = top;
pos = (131,529);
}
);
layerId = "7F797451-F356-4E8F-9E4B-AB77A40997AF";
shapes = (
{
closed = 1;
nodes = (
(212,0,l),
(212,529,l),
(50,529,l),
(50,0,l)
);
},
{
closed = 1;
nodes = (
(180,578,o),
(220,618,o),
(220,667,cs),
(220,716,o),
(180,756,o),
(131,756,cs),
(82,756,o),
(42,716,o),
(42,667,cs),
(42,618,o),
(82,578,o),
(131,578,cs)
);
}
);
userData = {
SBAlt = left;
com.typemytype.robofont.guideline.magnetic.5k65HKVtXG = 5;
com.typemytype.robofont.guideline.magnetic.9MkqZPjp4I = 5;
com.typemytype.robofont.guideline.magnetic.qWbxKaCMh8 = 5;
com.typemytype.robofont.guideline.magnetic.xSfsqhpgEG = 5;
com.typemytype.robofont.guideline.magnetic.xenQAPR9xz = 5;
};
width = 262;
}
);
unicode = 105;
},
{
glyphname = idotless;
kernLeft = n;
kernRight = q;
lastChange = "2024-11-06 22:39:46 +0000";
layers = (
{
anchors = (
{
name = bottom;
pos = (112,0);
},
{
name = top;
pos = (86,492);
}
);
layerId = m001;
shapes = (
{
closed = 1;
nodes = (
(112,0,l),
(112,492,l),
(68,492,l),
(68,0,l)
);
}
);
userData = {
SBAlt = left;
com.typemytype.robofont.guideline.magnetic.J5Izm0StGq = 5;
com.typemytype.robofont.guideline.magnetic.Lr7k9jtM6W = 5;
com.typemytype.robofont.guideline.magnetic.etmZdFcHPj = 5;
com.typemytype.robofont.guideline.magnetic.grACk2t8sd = 5;
com.typemytype.robofont.guideline.magnetic.iYw45XIMy5 = 5;
};
width = 180;
},
{
anchors = (
{
name = bottom;
pos = (120,0);
},
{
name = top;
pos = (100,501);
}
);
layerId = "00637EAA-82D4-47CE-A25D-74860BA059DC";
shapes = (
{
closed = 1;
nodes = (
(137,0,l),
(137,501,l),
(63,501,l),
(63,0,l)
);
}
);
userData = {
SBAlt = left;
com.typemytype.robofont.guideline.magnetic.J5Izm0StGq = 5;
com.typemytype.robofont.guideline.magnetic.Lr7k9jtM6W = 5;
com.typemytype.robofont.guideline.magnetic.etmZdFcHPj = 5;
com.typemytype.robofont.guideline.magnetic.grACk2t8sd = 5;
com.typemytype.robofont.guideline.magnetic.iYw45XIMy5 = 5;
};
width = 200;
},
{
anchors = (
{
name = bottom;
pos = (131,0);
},
{
name = top;
pos = (131,529);
}
);
layerId = "7F797451-F356-4E8F-9E4B-AB77A40997AF";
shapes = (
{
closed = 1;
nodes = (
(212,0,l),
(212,529,l),
(50,529,l),
(50,0,l)
);
}
);
userData = {
SBAlt = left;
com.typemytype.robofont.guideline.magnetic.J5Izm0StGq = 5;
com.typemytype.robofont.guideline.magnetic.Lr7k9jtM6W = 5;
com.typemytype.robofont.guideline.magnetic.etmZdFcHPj = 5;
com.typemytype.robofont.guideline.magnetic.grACk2t8sd = 5;
com.typemytype.robofont.guideline.magnetic.iYw45XIMy5 = 5;
};
width = 262;
}
);
unicode = 305;
},
{
glyphname = iogonek;
kernLeft = b;
kernRight = d;
lastChange = "2024-11-06 22:35:57 +0000";
layers = (
{
layerId = m001;
shapes = (
{
closed = 1;
nodes = (
(112,603,o),
(128,620,o),
(128,641,cs),
(128,662,o),
(112,679,o),
(90,679,cs),
(68,679,o),
(52,662,o),
(52,641,cs),
(52,620,o),
(68,603,o),
(90,603,cs)
);
},
{
closed = 1;
nodes = (
(83,-221,o),
(106,-214,o),
(126,-201,c),
(113,-172,l),
(98,-182,o),
(80,-187,o),
(62,-187,cs),
(24,-187,o),
(0,-168,o),
(0,-131,cs),
(0,-94,o),
(27,-55,o),
(112,0,c),
(112,492,l),
(68,492,l),
(68,0,l),
(69,0,l),
(-8,-48,o),
(-39,-94,o),
(-39,-138,cs),
(-39,-185,o),
(-5,-221,o),
(57,-221,cs)
);
}
);
width = 180;
},
{
layerId = "00637EAA-82D4-47CE-A25D-74860BA059DC";
shapes = (
{
closed = 1;
nodes = (
(128,597,o),
(150,620,o),
(150,647,cs),
(150,675,o),
(128,697,o),
(100,697,cs),
(73,697,o),
(50,675,o),
(50,647,cs),
(50,620,o),
(73,597,o),
(100,597,cs)
);
},
{
closed = 1;
nodes = (
(106,-221,o),
(130,-214,o),
(152,-200,c),
(137,-161,l),
(123,-171,o),
(106,-175,o),
(89,-175,cs),
(52,-175,o),
(31,-156,o),
(31,-123,cs),
(31,-84,o),
(64,-46,o),
(137,0,c),
(137,501,l),
(63,501,l),
(63,0,l),
(79,0,l),
(9,-48,o),
(-20,-88,o),
(-20,-135,cs),
(-20,-187,o),
(19,-221,o),
(78,-221,cs)
);
}
);
width = 200;
},
{
layerId = "7F797451-F356-4E8F-9E4B-AB77A40997AF";
shapes = (
{
closed = 1;
nodes = (
(180,578,o),
(220,618,o),
(220,667,cs),
(220,716,o),
(180,756,o),
(131,756,cs),
(82,756,o),
(42,716,o),
(42,667,cs),
(42,618,o),
(82,578,o),
(131,578,cs)
);
},
{
closed = 1;
nodes = (
(177,-221,o),
(209,-212,o),
(232,-198,c),
(211,-128,l),
(201,-135,o),
(187,-139,o),
(175,-139,cs),
(146,-139,o),
(128,-124,o),
(128,-98,cs),
(128,-64,o),
(154,-33,o),
(212,0,c),
(212,529,l),
(50,529,l),
(50,0,l),
(124,0,l),
(64,-38,o),
(37,-78,o),
(37,-127,cs),
(37,-183,o),
(80,-221,o),
(145,-221,cs)
);
}
);
width = 262;
}
);
unicode = 303;
},
{
glyphname = j;
kernLeft = b;
kernRight = d;
lastChange = "2024-11-06 22:35:57 +0000";
layers = (
{
layerId = m001;
shapes = (
{
closed = 1;
nodes = (
(111,604,o),
(127,621,o),
(127,641,cs),
(127,661,o),
(111,678,o),
(90,678,cs),
(69,678,o),
(53,661,o),
(53,641,cs),
(53,621,o),
(69,604,o),
(90,604,cs)
);
},
{
closed = 1;
nodes = (
(74,-214,o),
(112,-173,o),
(112,-102,cs),
(112,492,l),
(68,492,l),
(68,-97,ls),
(68,-150,o),
(49,-171,o),
(1,-171,cs),
(-12,-171,o),
(-21,-170,o),
(-33,-167,c),
(-33,-211,l),
(-20,-212,o),
(-12,-214,o),
(2,-214,cs)
);
}
);
userData = {
SBAlt = right;
com.typemytype.robofont.guideline.magnetic.3fWrW4koPg = 5;
com.typemytype.robofont.guideline.magnetic.JQvUkkb6NP = 5;
com.typemytype.robofont.guideline.magnetic.MDYhxBUqqL = 5;
com.typemytype.robofont.guideline.magnetic.YLqywgbo8S = 5;
com.typemytype.robofont.guideline.magnetic.jGkGNQAgks = 5;
};
width = 180;
},
{
layerId = "00637EAA-82D4-47CE-A25D-74860BA059DC";
shapes = (
{
closed = 1;
nodes = (
(128,597,o),
(150,620,o),
(150,647,cs),
(150,675,o),
(128,697,o),
(100,697,cs),
(73,697,o),
(50,675,o),
(50,647,cs),
(50,620,o),
(73,597,o),
(100,597,cs)
);
},
{
closed = 1;
nodes = (
(90,-214,o),
(137,-169,o),
(137,-88,cs),
(137,501,l),
(63,501,l),
(63,-82,ls),
(63,-130,o),
(45,-150,o),
(-1,-150,cs),
(-16,-150,o),
(-26,-149,o),
(-38,-146,c),
(-38,-208,l),
(-27,-211,o),
(-11,-214,o),
(8,-214,cs)
);
}
);
userData = {
SBAlt = right;
com.typemytype.robofont.guideline.magnetic.3fWrW4koPg = 5;
com.typemytype.robofont.guideline.magnetic.JQvUkkb6NP = 5;
com.typemytype.robofont.guideline.magnetic.MDYhxBUqqL = 5;
com.typemytype.robofont.guideline.magnetic.YLqywgbo8S = 5;
com.typemytype.robofont.guideline.magnetic.jGkGNQAgks = 5;
};
width = 200;
},
{
layerId = "7F797451-F356-4E8F-9E4B-AB77A40997AF";
shapes = (
{
closed = 1;
nodes = (
(180,578,o),
(220,618,o),
(220,667,cs),
(220,716,o),
(180,756,o),
(131,756,cs),
(82,756,o),
(42,716,o),
(42,667,cs),
(42,618,o),
(82,578,o),
(131,578,cs)
);
},
{
closed = 1;
nodes = (
(145,-214,o),
(212,-153,o),
(212,-47,cs),
(212,529,l),
(50,529,l),
(50,-38,ls),
(50,-71,o),
(32,-86,o),
(-7,-86,cs),
(-26,-86,o),
(-39,-85,o),
(-54,-82,c),
(-54,-204,l),
(-36,-210,o),
(-1,-214,o),
(27,-214,cs)
);
}
);
userData = {
SBAlt = right;
com.typemytype.robofont.guideline.magnetic.3fWrW4koPg = 5;
com.typemytype.robofont.guideline.magnetic.JQvUkkb6NP = 5;
com.typemytype.robofont.guideline.magnetic.MDYhxBUqqL = 5;
com.typemytype.robofont.guideline.magnetic.YLqywgbo8S = 5;
com.typemytype.robofont.guideline.magnetic.jGkGNQAgks = 5;
};
width = 262;
}
);
unicode = 106;
},
{
glyphname = jdotless;
kernLeft = n;
kernRight = q;
lastChange = "2024-11-06 22:39:46 +0000";
layers = (
{
anchors = (
{
name = top;
pos = (90,492);
}
);
layerId = m001;
shapes = (
{
closed = 1;
nodes = (
(75,-214,o),
(112,-173,o),
(112,-103,cs),
(112,492,l),
(68,492,l),
(68,-97,ls),
(68,-150,o),
(49,-171,o),
(2,-171,cs),
(-12,-171,o),
(-21,-170,o),
(-33,-167,c),
(-33,-211,l),
(-20,-212,o),
(-11,-214,o),
(3,-214,cs)
);
}
);
userData = {
SBAlt = right;
com.typemytype.robofont.guideline.magnetic.97LX7XXmhx = 5;
com.typemytype.robofont.guideline.magnetic.B9U8lrZ7hq = 5;
com.typemytype.robofont.guideline.magnetic.ZSwIafhTlO = 5;
com.typemytype.robofont.guideline.magnetic.lIgCNpJWfY = 5;
com.typemytype.robofont.guideline.magnetic.vcsBhI9HU1 = 5;
};
width = 180;
},
{
anchors = (
{
name = top;
pos = (100,501);
}
);
layerId = "00637EAA-82D4-47CE-A25D-74860BA059DC";
shapes = (
{
closed = 1;
nodes = (
(92,-214,o),
(137,-168,o),
(137,-89,cs),
(137,501,l),
(63,501,l),
(63,-82,ls),
(63,-130,o),
(45,-150,o),
(0,-150,cs),
(-16,-150,o),
(-25,-149,o),
(-38,-146,c),
(-38,-208,l),
(-24,-211,o),
(-8,-214,o),
(9,-214,cs)
);
}
);
userData = {
SBAlt = right;
com.typemytype.robofont.guideline.magnetic.97LX7XXmhx = 5;
com.typemytype.robofont.guideline.magnetic.B9U8lrZ7hq = 5;
com.typemytype.robofont.guideline.magnetic.ZSwIafhTlO = 5;
com.typemytype.robofont.guideline.magnetic.lIgCNpJWfY = 5;
com.typemytype.robofont.guideline.magnetic.vcsBhI9HU1 = 5;
};
width = 200;
},
{
anchors = (
{
name = top;
pos = (131,529);
}
);
layerId = "7F797451-F356-4E8F-9E4B-AB77A40997AF";
shapes = (
{
closed = 1;
nodes = (
(145,-214,o),
(212,-154,o),
(212,-48,cs),
(212,529,l),
(50,529,l),
(50,-38,ls),
(50,-71,o),
(32,-86,o),
(-6,-86,cs),
(-25,-86,o),
(-38,-85,o),
(-54,-82,c),
(-54,-204,l),
(-36,-210,o),
(0,-214,o),
(28,-214,cs)
);
}
);
userData = {
SBAlt = right;
com.typemytype.robofont.guideline.magnetic.97LX7XXmhx = 5;
com.typemytype.robofont.guideline.magnetic.B9U8lrZ7hq = 5;
com.typemytype.robofont.guideline.magnetic.ZSwIafhTlO = 5;
com.typemytype.robofont.guideline.magnetic.lIgCNpJWfY = 5;
com.typemytype.robofont.guideline.magnetic.vcsBhI9HU1 = 5;
};
width = 262;
}
);
unicode = 567;
},
{
glyphname = k;
kernLeft = b;
kernRight = k;
lastChange = "2024-11-06 22:35:57 +0000";
layers = (
{
anchors = (
{
name = bottom;
pos = (231,0);
}
);
layerId = m001;
shapes = (
{
closed = 1;
nodes = (
(112,0,l),
(112,242,l),
(397,0,l),
(464,0,l),
(162,254,l),
(452,492,l),
(390,492,l),
(112,263,l),
(112,711,l),
(68,700,l),
(68,0,l)
);
}
);
width = 461;
},
{
anchors = (
{
name = bottom;
pos = (248,0);
}
);
layerId = "00637EAA-82D4-47CE-A25D-74860BA059DC";
shapes = (
{
closed = 1;
nodes = (
(137,0,l),
(137,240,l),
(401,0,l),
(502,0,l),
(214,263,l),
(489,501,l),
(399,501,l),
(137,275,l),
(137,717,l),
(63,700,l),
(63,0,l)
);
}
);
width = 494;
},
{
anchors = (
{
name = bottom;
pos = (303,0);
}
);
layerId = "7F797451-F356-4E8F-9E4B-AB77A40997AF";
shapes = (
{
closed = 1;
nodes = (
(212,0,l),
(212,237,l),
(415,0,l),
(620,0,l),
(369,290,l),
(604,529,l),
(423,529,l),
(212,313,l),
(212,725,l),
(50,700,l),
(50,0,l)
);
}
);
width = 597;
}
);
unicode = 107;
},
{
glyphname = kgreenlandic;
kernLeft = n;
kernRight = k;
lastChange = "2024-11-06 22:35:57 +0000";
layers = (
{
layerId = m001;
shapes = (
{
closed = 1;
nodes = (
(112,0,l),
(112,242,l),
(397,0,l),
(464,0,l),
(162,254,l),
(452,492,l),
(390,492,l),
(112,263,l),
(112,492,l),
(68,492,l),
(68,0,l)
);
}
);
width = 461;
},
{
layerId = "00637EAA-82D4-47CE-A25D-74860BA059DC";
shapes = (
{
closed = 1;
nodes = (
(137,0,l),
(137,240,l),
(401,0,l),
(502,0,l),
(214,263,l),
(489,501,l),
(399,501,l),
(137,275,l),
(137,501,l),
(63,501,l),
(63,0,l)
);
}
);
width = 494;
},
{
layerId = "7F797451-F356-4E8F-9E4B-AB77A40997AF";
shapes = (
{
closed = 1;
nodes = (
(212,0,l),
(212,237,l),
(415,0,l),
(620,0,l),
(369,290,l),
(604,529,l),
(423,529,l),
(212,313,l),
(212,529,l),
(50,529,l),
(50,0,l)
);
}
);
width = 597;
}
);
unicode = 312;
},
{
glyphname = l;
kernLeft = b;
kernRight = d;
lastChange = "2024-11-15 10:53:12 +0000";
layers = (
{
anchors = (
{
name = bottom;
pos = (90,0);
},
{
name = center;
pos = (90,246);
},
{
name = top;
pos = (90,698);
},
{
name = topright;
pos = (212,704);
}
);
layerId = m001;
shapes = (
{
closed = 1;
nodes = (
(112,0,l),
(112,711,l),
(68,700,l),
(68,0,l)
);
}
);
userData = {
SBAlt = left;
};
width = 180;
},
{
anchors = (
{
name = bottom;
pos = (100,0);
},
{
name = center;
pos = (100,251);
},
{
name = top;
pos = (100,701);
},
{
name = topright;
pos = (237,717);
}
);
layerId = "00637EAA-82D4-47CE-A25D-74860BA059DC";
shapes = (
{
closed = 1;
nodes = (
(137,0,l),
(137,717,l),
(63,700,l),
(63,0,l)
);
}
);
userData = {
SBAlt = left;
};
width = 200;
},
{
anchors = (
{
name = bottom;
pos = (131,0);
},
{
name = center;
pos = (131,265);
},
{
name = top;
pos = (131,701);
},
{
name = topright;
pos = (276,715);
}
);
layerId = "7F797451-F356-4E8F-9E4B-AB77A40997AF";
shapes = (
{
closed = 1;
nodes = (
(212,0,l),
(212,725,l),
(50,700,l),
(50,0,l)
);
}
);
userData = {
SBAlt = left;
};
width = 262;
}
);
unicode = 108;
},
{
glyphname = lslash;
kernLeft = b;
lastChange = "2024-11-06 22:35:57 +0000";
layers = (
{
layerId = m001;
shapes = (
{
closed = 1;
nodes = (
(132,0,l),
(132,382,l),
(209,449,l),
(209,500,l),
(132,433,l),
(132,711,l),
(88,700,l),
(88,395,l),
(9,326,l),
(9,274,l),
(88,343,l),
(88,0,l)
);
}
);
width = 218;
},
{
layerId = "00637EAA-82D4-47CE-A25D-74860BA059DC";
shapes = (
{
closed = 1;
nodes = (
(158,0,l),
(158,374,l),
(233,435,l),
(233,510,l),
(158,449,l),
(158,717,l),
(84,700,l),
(84,389,l),
(9,328,l),
(9,254,l),
(84,315,l),
(84,0,l)
);
}
);
width = 240;
},
{
layerId = "7F797451-F356-4E8F-9E4B-AB77A40997AF";
shapes = (
{
closed = 1;
nodes = (
(237,0,l),
(237,347,l),
(305,393,l),
(305,538,l),
(237,492,l),
(237,735,l),
(75,700,l),
(75,382,l),
(7,336,l),
(7,191,l),
(75,237,l),
(75,0,l)
);
}
);
width = 308;
}
);
unicode = 322;
},
{
glyphname = m;
kernLeft = n;
kernRight = n;
lastChange = "2024-11-06 22:35:57 +0000";
layers = (
{
layerId = m001;
shapes = (
{
closed = 1;
nodes = (
(112,0,l),
(112,375,l),
(145,430,o),
(193,461,o),
(254,461,cs),
(344,461,o),
(398,400,o),
(398,302,cs),
(398,0,l),
(442,0,l),
(442,314,ls),
(442,332,o),
(440,349,o),
(436,366,c),
(469,425,o),
(519,461,o),
(584,461,cs),
(674,461,o),
(728,400,o),
(728,302,cs),
(728,0,l),
(772,0,l),
(772,314,ls),
(772,426,o),
(700,502,o),
(594,502,cs),
(520,502,o),
(464,468,o),
(423,404,c),
(394,464,o),
(335,502,o),
(264,502,cs),
(199,502,o),
(150,477,o),
(112,428,c),
(112,492,l),
(68,492,l),
(68,0,l)
);
}
);
userData = {
com.typemytype.robofont.guideline.magnetic.2p700Jnc6A = 5;
com.typemytype.robofont.guideline.magnetic.A1LnxY8ZDp = 5;
com.typemytype.robofont.guideline.magnetic.HwhaXdJhkL = 5;
};
width = 838;
},
{
layerId = "00637EAA-82D4-47CE-A25D-74860BA059DC";
shapes = (
{
closed = 1;
nodes = (
(137,0,l),
(137,373,l),
(168,421,o),
(211,446,o),
(265,446,cs),
(344,446,o),
(394,391,o),
(394,302,cs),
(394,0,l),
(467,0,l),
(467,317,ls),
(467,334,o),
(465,349,o),
(462,364,c),
(494,418,o),
(540,446,o),
(595,446,cs),
(675,446,o),
(725,391,o),
(725,302,cs),
(725,0,l),
(798,0,l),
(798,317,ls),
(798,432,o),
(723,511,o),
(614,511,cs),
(541,511,o),
(483,481,o),
(442,420,c),
(411,476,o),
(354,511,o),
(284,511,cs),
(224,511,o),
(175,489,o),
(137,446,c),
(137,501,l),
(63,501,l),
(63,0,l)
);
}
);
userData = {
com.typemytype.robofont.guideline.magnetic.2p700Jnc6A = 5;
com.typemytype.robofont.guideline.magnetic.A1LnxY8ZDp = 5;
com.typemytype.robofont.guideline.magnetic.HwhaXdJhkL = 5;
};
width = 859;
},
{
layerId = "7F797451-F356-4E8F-9E4B-AB77A40997AF";
shapes = (
{
closed = 1;
nodes = (
(212,0,l),
(212,362,l),
(232,387,o),
(261,400,o),
(297,400,cs),
(349,400,o),
(383,362,o),
(383,304,cs),
(383,0,l),
(545,0,l),
(545,326,ls),
(545,338,o),
(544,349,o),
(543,360,c),
(564,386,o),
(594,400,o),
(630,400,cs),
(682,400,o),
(716,362,o),
(716,304,cs),
(716,0,l),
(878,0,l),
(878,326,ls),
(878,451,o),
(793,539,o),
(673,539,cs),
(603,539,o),
(544,513,o),
(501,466,c),
(465,512,o),
(410,539,o),
(344,539,cs),
(294,539,o),
(249,524,o),
(212,495,c),
(212,529,l),
(50,529,l),
(50,0,l)
);
}
);
userData = {
com.typemytype.robofont.guideline.magnetic.2p700Jnc6A = 5;
com.typemytype.robofont.guideline.magnetic.A1LnxY8ZDp = 5;
com.typemytype.robofont.guideline.magnetic.HwhaXdJhkL = 5;
};
width = 924;
}
);
unicode = 109;
},
{
glyphname = n;
kernLeft = n;
kernRight = n;
lastChange = "2024-11-06 22:35:57 +0000";
layers = (
{
anchors = (
{
name = bottom;
pos = (266,0);
},
{
name = top;
pos = (266,492);
}
);
layerId = m001;
shapes = (
{
closed = 1;
nodes = (
(112,0,l),
(112,370,l),
(143,428,o),
(198,461,o),
(265,461,cs),
(361,461,o),
(419,400,o),
(419,302,c),
(419,0,l),
(463,0,l),
(463,314,ls),
(463,426,o),
(387,502,o),
(275,502,c),
(207,502,o),
(152,476,o),
(112,423,c),
(112,492,l),
(68,492,l),
(68,0,l)
);
}
);
userData = {
com.typemytype.robofont.guideline.magnetic.g3Kj9ur6zR = 5;
com.typemytype.robofont.guideline.magnetic.sNoCRITGuy = 5;
com.typemytype.robofont.guideline.magnetic.z3TATrT8em = 5;
};
width = 529;
},
{
anchors = (
{
name = bottom;
pos = (276,0);
},
{
name = top;
pos = (276,501);
}
);
layerId = "00637EAA-82D4-47CE-A25D-74860BA059DC";
shapes = (
{
closed = 1;
nodes = (
(137,0,l),
(137,369,l),
(167,418,o),
(215,446,o),
(275,446,cs),
(361,446,o),
(415,391,o),
(415,302,c),
(415,0,l),
(488,0,l),
(488,317,ls),
(488,432,o),
(409,511,o),
(295,511,c),
(230,511,o),
(176,488,o),
(137,442,c),
(137,501,l),
(63,501,l),
(63,0,l)
);
}
);
userData = {
com.typemytype.robofont.guideline.magnetic.g3Kj9ur6zR = 5;
com.typemytype.robofont.guideline.magnetic.sNoCRITGuy = 5;
com.typemytype.robofont.guideline.magnetic.z3TATrT8em = 5;
};
width = 549;
},
{
anchors = (
{
name = bottom;
pos = (308,0);
},
{
name = top;
pos = (308,529);
}
);
layerId = "7F797451-F356-4E8F-9E4B-AB77A40997AF";
shapes = (
{
closed = 1;
nodes = (
(212,0,l),
(212,358,l),
(234,385,o),
(266,400,o),
(307,400,cs),
(365,400,o),
(403,362,o),
(403,304,c),
(403,0,l),
(565,0,l),
(565,326,ls),
(565,451,o),
(478,539,o),
(354,539,c),
(300,539,o),
(251,523,o),
(212,493,c),
(212,529,l),
(50,529,l),
(50,0,l)
);
}
);
userData = {
com.typemytype.robofont.guideline.magnetic.g3Kj9ur6zR = 5;
com.typemytype.robofont.guideline.magnetic.sNoCRITGuy = 5;
com.typemytype.robofont.guideline.magnetic.z3TATrT8em = 5;
};
width = 611;
}
);
unicode = 110;
},
{
glyphname = eng;
kernLeft = n;
kernRight = n;
lastChange = "2024-11-06 22:35:57 +0000";
layers = (
{
layerId = m001;
shapes = (
{
closed = 1;
nodes = (
(426,-214,o),
(463,-173,o),
(463,-103,cs),
(463,314,ls),
(463,426,o),
(387,502,o),
(275,502,cs),
(207,502,o),
(152,476,o),
(112,423,c),
(112,492,l),
(68,492,l),
(68,0,l),
(112,0,l),
(112,370,l),
(143,428,o),
(198,461,o),
(265,461,cs),
(361,461,o),
(419,400,o),
(419,302,cs),
(419,-97,ls),
(419,-150,o),
(400,-171,o),
(353,-171,cs),
(339,-171,o),
(330,-170,o),
(318,-167,c),
(318,-211,l),
(331,-212,o),
(340,-214,o),
(354,-214,cs)
);
}
);
width = 529;
},
{
layerId = "00637EAA-82D4-47CE-A25D-74860BA059DC";
shapes = (
{
closed = 1;
nodes = (
(443,-208,o),
(488,-162,o),
(488,-83,cs),
(488,317,ls),
(488,432,o),
(409,511,o),
(295,511,cs),
(230,511,o),
(176,488,o),
(137,442,c),
(137,501,l),
(63,501,l),
(63,0,l),
(137,0,l),
(137,369,l),
(167,418,o),
(215,446,o),
(275,446,cs),
(361,446,o),
(415,391,o),
(415,302,cs),
(415,-76,ls),
(415,-124,o),
(396,-144,o),
(352,-144,cs),
(336,-144,o),
(326,-143,o),
(313,-140,c),
(313,-202,l),
(327,-205,o),
(344,-208,o),
(360,-208,cs)
);
}
);
width = 549;
},
{
layerId = "7F797451-F356-4E8F-9E4B-AB77A40997AF";
shapes = (
{
closed = 1;
nodes = (
(498,-218,o),
(565,-158,o),
(565,-52,cs),
(565,326,ls),
(565,451,o),
(478,539,o),
(354,539,cs),
(300,539,o),
(251,523,o),
(212,493,c),
(212,529,l),
(50,529,l),
(50,0,l),
(212,0,l),
(212,358,l),
(234,385,o),
(266,400,o),
(307,400,cs),
(365,400,o),
(403,362,o),
(403,304,cs),
(403,-42,ls),
(403,-75,o),
(385,-90,o),
(347,-90,cs),
(328,-90,o),
(315,-89,o),
(299,-86,c),
(299,-208,l),
(317,-214,o),
(353,-218,o),
(381,-218,cs)
);
}
);
width = 611;
}
);
unicode = 331;
},
{
glyphname = o;
kernLeft = o;
kernRight = o;
lastChange = "2024-11-06 22:35:57 +0000";
layers = (
{
anchors = (
{
name = top;
pos = (290,492);
}
);
guides = (
{
pos = (466,247);
userData = {
UFO.identifier = TeW4s3YEME;
};
}
);
layerId = m001;
shapes = (
{
closed = 1;
nodes = (
(427,-10,o),
(535,103,o),
(535,246,cs),
(535,390,o),
(427,502,o),
(290,502,cs),
(153,502,o),
(45,390,o),
(45,246,cs),
(45,103,o),
(153,-10,o),
(290,-10,cs)
);
},
{
closed = 1;
nodes = (
(178,32,o),
(90,126,o),
(90,246,cs),
(90,366,o),
(178,460,o),
(290,460,cs),
(402,460,o),
(490,366,o),
(490,246,cs),
(490,126,o),
(402,32,o),
(290,32,cs)
);
}
);
userData = {
com.typemytype.robofont.guideline.magnetic.GFdcbLeA44 = 5;
com.typemytype.robofont.guideline.magnetic.L2oGOM2VOm = 5;
com.typemytype.robofont.guideline.magnetic.bfCfVZKlFe = 5;
};
width = 580;
},
{
anchors = (
{
name = top;
pos = (296,501);
}
);
layerId = "00637EAA-82D4-47CE-A25D-74860BA059DC";
shapes = (
{
closed = 1;
nodes = (
(439,-10,o),
(552,104,o),
(552,250,cs),
(552,396,o),
(439,510,o),
(296,510,cs),
(153,510,o),
(40,396,o),
(40,250,cs),
(40,104,o),
(153,-10,o),
(296,-10,cs)
);
},
{
closed = 1;
nodes = (
(194,56,o),
(113,141,o),
(113,250,cs),
(113,359,o),
(194,444,o),
(296,444,cs),
(398,444,o),
(479,359,o),
(479,250,cs),
(479,141,o),
(398,56,o),
(296,56,cs)
);
}
);
userData = {
com.typemytype.robofont.guideline.magnetic.GFdcbLeA44 = 5;
com.typemytype.robofont.guideline.magnetic.L2oGOM2VOm = 5;
com.typemytype.robofont.guideline.magnetic.bfCfVZKlFe = 5;
};
width = 592;
},
{
anchors = (
{
name = top;
pos = (313,529);
}
);
layerId = "7F797451-F356-4E8F-9E4B-AB77A40997AF";
shapes = (
{
closed = 1;
nodes = (
(474,-10,o),
(600,110,o),
(600,264,cs),
(600,418,o),
(474,539,o),
(313,539,cs),
(152,539,o),
(26,418,o),
(26,264,cs),
(26,110,o),
(152,-10,o),
(313,-10,cs)
);
},
{
closed = 1;
nodes = (
(240,130,o),
(184,189,o),
(184,264,cs),
(184,340,o),
(241,399,o),
(313,399,cs),
(385,399,o),
(442,340,o),
(442,264,cs),
(442,189,o),
(386,130,o),
(313,130,cs)
);
}
);
userData = {
com.typemytype.robofont.guideline.magnetic.GFdcbLeA44 = 5;
com.typemytype.robofont.guideline.magnetic.L2oGOM2VOm = 5;
com.typemytype.robofont.guideline.magnetic.bfCfVZKlFe = 5;
};
width = 626;
}
);
unicode = 111;
},
{
glyphname = oslash;
kernLeft = o;
kernRight = o;
lastChange = "2024-11-06 22:35:57 +0000";
layers = (
{
layerId = m001;
shapes = (
{
closed = 1;
nodes = (
(427,-10,o),
(535,103,o),
(535,246,cs),
(535,317,o),
(509,379,o),
(466,425,c),
(522,492,l),
(467,492,l),
(435,454,l),
(395,484,o),
(345,502,o),
(290,502,cs),
(153,502,o),
(45,390,o),
(45,246,cs),
(45,176,o),
(71,113,o),
(114,67,c),
(58,0,l),
(113,0,l),
(145,39,l),
(185,8,o),
(235,-10,o),
(290,-10,cs)
);
},
{
closed = 1;
nodes = (
(110,139,o),
(90,189,o),
(90,246,cs),
(90,366,o),
(178,460,o),
(290,460,cs),
(334,460,o),
(375,445,o),
(407,420,c),
(142,101,l)
);
},
{
closed = 1;
nodes = (
(246,32,o),
(205,47,o),
(173,72,c),
(438,391,l),
(470,353,o),
(490,303,o),
(490,246,cs),
(490,126,o),
(402,32,o),
(290,32,cs)
);
}
);
width = 580;
},
{
layerId = "00637EAA-82D4-47CE-A25D-74860BA059DC";
shapes = (
{
closed = 1;
nodes = (
(438,-10,o),
(551,104,o),
(551,251,cs),
(551,322,o),
(524,386,o),
(480,433,c),
(537,501,l),
(471,501,l),
(441,466,l),
(400,494,o),
(350,511,o),
(296,511,cs),
(153,511,o),
(40,397,o),
(40,251,cs),
(40,179,o),
(67,116,o),
(111,69,c),
(53,0,l),
(119,0,l),
(149,36,l),
(190,7,o),
(241,-10,o),
(296,-10,cs)
);
},
{
closed = 1;
nodes = (
(129,158,o),
(113,202,o),
(113,251,cs),
(113,360,o),
(194,445,o),
(296,445,cs),
(334,445,o),
(369,433,o),
(398,413,c),
(156,124,l)
);
},
{
closed = 1;
nodes = (
(257,56,o),
(222,68,o),
(193,89,c),
(435,378,l),
(462,344,o),
(478,300,o),
(478,251,cs),
(478,142,o),
(398,56,o),
(296,56,cs)
);
}
);
width = 592;
},
{
layerId = "7F797451-F356-4E8F-9E4B-AB77A40997AF";
shapes = (
{
closed = 1;
nodes = (
(474,-10,o),
(600,110,o),
(600,264,cs),
(600,339,o),
(570,405,o),
(522,455,c),
(583,529,l),
(478,529,l),
(457,503,l),
(415,526,o),
(366,539,o),
(313,539,cs),
(152,539,o),
(26,418,o),
(26,264,cs),
(26,190,o),
(55,123,o),
(104,74,c),
(43,0,l),
(147,0,l),
(168,26,l),
(211,3,o),
(260,-10,o),
(313,-10,cs)
);
},
{
closed = 1;
nodes = (
(191,214,o),
(184,238,o),
(184,264,cs),
(184,340,o),
(241,399,o),
(313,399,cs),
(331,399,o),
(348,395,o),
(363,389,c),
(202,194,l)
);
},
{
closed = 1;
nodes = (
(295,130,o),
(278,134,o),
(263,140,c),
(423,335,l),
(435,315,o),
(442,290,o),
(442,264,cs),
(442,189,o),
(386,130,o),
(313,130,cs)
);
}
);
width = 626;
}
);
unicode = 248;
},
{
glyphname = oe;
kernLeft = o;
kernRight = e;
lastChange = "2024-11-06 22:35:57 +0000";
layers = (
{
layerId = m001;
shapes = (
{
closed = 1;
nodes = (
(390,-10,o),
(475,52,o),
(512,142,c),
(550,51,o),
(635,-10,o),
(736,-10,cs),
(801,-10,o),
(861,8,o),
(915,47,c),
(889,82,l),
(850,51,o),
(792,32,o),
(736,32,cs),
(628,32,o),
(542,120,o),
(536,234,c),
(955,234,l),
(955,252,l),
(955,389,o),
(859,502,o),
(732,502,cs),
(632,502,o),
(549,441,o),
(512,351,c),
(475,441,o),
(390,502,o),
(290,502,cs),
(153,502,o),
(45,390,o),
(45,246,cs),
(45,103,o),
(153,-10,o),
(290,-10,cs)
);
},
{
closed = 1;
nodes = (
(178,32,o),
(90,126,o),
(90,246,cs),
(90,366,o),
(178,460,o),
(290,460,cs),
(402,460,o),
(490,366,o),
(490,246,cs),
(490,126,o),
(402,32,o),
(290,32,cs)
);
},
{
closed = 1;
nodes = (
(550,381,o),
(629,460,o),
(731,460,cs),
(826,460,o),
(898,377,o),
(908,276,c),
(538,276,l)
);
}
);
width = 1000;
},
{
layerId = "00637EAA-82D4-47CE-A25D-74860BA059DC";
shapes = (
{
closed = 1;
nodes = (
(390,-10,o),
(471,41,o),
(514,120,c),
(557,42,o),
(640,-9,o),
(737,-9,cs),
(808,-9,o),
(868,11,o),
(924,53,c),
(878,102,l),
(843,73,o),
(792,56,o),
(740,56,cs),
(641,56,o),
(563,129,o),
(552,228,c),
(962,228,l),
(962,251,l),
(962,395,o),
(858,509,o),
(726,509,cs),
(634,509,o),
(556,458,o),
(514,382,c),
(471,460,o),
(390,511,o),
(296,511,cs),
(153,511,o),
(40,397,o),
(40,251,cs),
(40,104,o),
(153,-10,o),
(296,-10,cs)
);
},
{
closed = 1;
nodes = (
(193,56,o),
(113,142,o),
(113,251,cs),
(113,360,o),
(194,445,o),
(296,445,cs),
(398,445,o),
(478,360,o),
(478,251,cs),
(478,142,o),
(398,56,o),
(296,56,cs)
);
},
{
closed = 1;
nodes = (
(568,379,o),
(636,444,o),
(723,444,cs),
(806,444,o),
(875,376,o),
(889,287,c),
(554,287,l)
);
}
);
width = 1003;
},
{
layerId = "7F797451-F356-4E8F-9E4B-AB77A40997AF";
shapes = (
{
closed = 1;
nodes = (
(396,-10,o),
(469,24,o),
(520,80,c),
(571,24,o),
(646,-10,o),
(732,-10,cs),
(820,-10,o),
(886,14,o),
(953,70,c),
(846,165,l),
(821,139,o),
(784,125,o),
(740,125,cs),
(679,125,o),
(631,159,o),
(610,209,c),
(987,209,l),
(987,249,l),
(987,416,o),
(875,538,o),
(720,538,cs),
(638,538,o),
(567,505,o),
(518,450,c),
(468,505,o),
(395,539,o),
(313,539,cs),
(152,539,o),
(26,418,o),
(26,264,cs),
(26,110,o),
(152,-10,o),
(313,-10,cs)
);
},
{
closed = 1;
nodes = (
(240,130,o),
(184,189,o),
(184,264,cs),
(184,340,o),
(241,399,o),
(313,399,cs),
(385,399,o),
(442,340,o),
(442,264,cs),
(442,189,o),
(386,130,o),
(313,130,cs)
);
},
{
closed = 1;
nodes = (
(623,375,o),
(663,406,o),
(717,406,cs),
(769,406,o),
(811,373,o),
(828,322,c),
(607,322,l)
);
}
);
width = 1013;
}
);
unicode = 339;
},
{
glyphname = p;
kernLeft = n;
kernRight = o;
lastChange = "2024-11-06 22:35:57 +0000";
layers = (
{
layerId = m001;
shapes = (
{
closed = 1;
nodes = (
(112,-204,l),
(112,58,l),
(158,17,o),
(218,-10,o),
(281,-10,cs),
(418,-10,o),
(526,103,o),
(526,246,cs),
(526,390,o),
(418,503,o),
(281,502,cs),
(215,502,o),
(156,478,o),
(112,433,c),
(112,492,l),
(68,492,l),
(68,-204,l)
);
},
{
closed = 1;
nodes = (
(210,32,o),
(147,67,o),
(112,114,c),
(112,378,l),
(145,427,o),
(208,460,o),
(281,460,cs),
(393,460,o),
(481,366,o),
(481,246,cs),
(481,126,o),
(393,32,o),
(281,32,cs)
);
}
);
userData = {
com.typemytype.robofont.guideline.magnetic.1d19P4aoXY = 5;
com.typemytype.robofont.guideline.magnetic.nnMhkbhLuZ = 5;
com.typemytype.robofont.guideline.magnetic.t45J0IqYLj = 5;
};
width = 571;
},
{
layerId = "00637EAA-82D4-47CE-A25D-74860BA059DC";
shapes = (
{
closed = 1;
nodes = (
(137,-204,l),
(137,50,l),
(182,13,o),
(238,-8,o),
(297,-8,cs),
(440,-8,o),
(550,105,o),
(550,251,cs),
(550,396,o),
(440,509,o),
(298,509,cs),
(235,509,o),
(179,488,o),
(136,447,c),
(136,501,l),
(63,501,l),
(63,-204,l)
);
},
{
closed = 1;
nodes = (
(229,57,o),
(172,83,o),
(137,126,c),
(137,374,l),
(172,418,o),
(228,444,o),
(291,444,cs),
(396,444,o),
(477,360,o),
(477,250,cs),
(477,140,o),
(397,57,o),
(291,57,cs)
);
}
);
userData = {
com.typemytype.robofont.guideline.magnetic.1d19P4aoXY = 5;
com.typemytype.robofont.guideline.magnetic.nnMhkbhLuZ = 5;
com.typemytype.robofont.guideline.magnetic.t45J0IqYLj = 5;
};
width = 590;
},
{
layerId = "7F797451-F356-4E8F-9E4B-AB77A40997AF";
shapes = (
{
closed = 1;
nodes = (
(212,-204,l),
(212,28,l),
(252,5,o),
(298,-7,o),
(347,-7,cs),
(501,-7,o),
(622,112,o),
(622,264,cs),
(622,416,o),
(503,536,o),
(352,536,cs),
(300,536,o),
(251,520,o),
(210,490,c),
(210,529,l),
(50,529,l),
(50,-204,l)
);
},
{
closed = 1;
nodes = (
(280,130,o),
(240,145,o),
(212,171,c),
(212,356,l),
(241,384,o),
(279,398,o),
(324,398,cs),
(402,398,o),
(463,340,o),
(463,264,cs),
(463,188,o),
(403,130,o),
(324,130,cs)
);
}
);
userData = {
com.typemytype.robofont.guideline.magnetic.1d19P4aoXY = 5;
com.typemytype.robofont.guideline.magnetic.nnMhkbhLuZ = 5;
com.typemytype.robofont.guideline.magnetic.t45J0IqYLj = 5;
};
width = 648;
}
);
unicode = 112;
},
{
glyphname = thorn;
kernLeft = b;
kernRight = o;
lastChange = "2024-11-06 22:35:57 +0000";
layers = (
{
layerId = m001;
shapes = (
{
closed = 1;
nodes = (
(112,-204,l),
(112,58,l),
(158,17,o),
(218,-10,o),
(281,-10,cs),
(418,-10,o),
(526,103,o),
(526,246,cs),
(526,390,o),
(418,503,o),
(281,502,cs),
(215,502,o),
(156,478,o),
(112,433,c),
(112,711,l),
(68,700,l),
(68,-204,l)
);
},
{
closed = 1;
nodes = (
(393,460,o),
(481,366,o),
(481,246,cs),
(481,126,o),
(393,32,o),
(281,32,cs),
(210,32,o),
(147,67,o),
(112,114,c),
(112,378,l),
(145,427,o),
(208,460,o),
(281,460,cs)
);
}
);
width = 571;
},
{
layerId = "00637EAA-82D4-47CE-A25D-74860BA059DC";
shapes = (
{
closed = 1;
nodes = (
(137,-204,l),
(137,50,l),
(182,13,o),
(238,-8,o),
(297,-8,cs),
(440,-8,o),
(550,105,o),
(550,251,cs),
(550,396,o),
(440,509,o),
(298,509,cs),
(235,509,o),
(179,488,o),
(137,448,c),
(137,717,l),
(63,700,l),
(63,-204,l)
);
},
{
closed = 1;
nodes = (
(396,444,o),
(477,360,o),
(477,250,cs),
(477,140,o),
(397,57,o),
(291,57,cs),
(229,57,o),
(172,83,o),
(137,126,c),
(137,374,l),
(172,418,o),
(228,444,o),
(291,444,cs)
);
}
);
width = 591;
},
{
layerId = "7F797451-F356-4E8F-9E4B-AB77A40997AF";
shapes = (
{
closed = 1;
nodes = (
(212,-211,l),
(212,28,l),
(252,5,o),
(298,-7,o),
(347,-7,cs),
(501,-7,o),
(622,112,o),
(622,264,cs),
(622,416,o),
(503,536,o),
(352,536,cs),
(301,536,o),
(253,521,o),
(212,492,c),
(212,735,l),
(50,700,l),
(50,-211,l)
);
},
{
closed = 1;
nodes = (
(402,398,o),
(463,340,o),
(463,264,cs),
(463,188,o),
(403,130,o),
(324,130,cs),
(280,130,o),
(240,145,o),
(212,171,c),
(212,356,l),
(241,384,o),
(279,398,o),
(324,398,cs)
);
}
);
width = 651;
}
);
unicode = 254;
},
{
glyphname = q;
kernLeft = o;
kernRight = q;
lastChange = "2024-11-06 22:35:57 +0000";
layers = (
{
layerId = m001;
shapes = (
{
closed = 1;
nodes = (
(503,-204,l),
(503,492,l),
(459,492,l),
(459,434,l),
(413,475,o),
(353,502,o),
(290,502,cs),
(153,502,o),
(45,389,o),
(45,246,cs),
(45,102,o),
(153,-11,o),
(290,-10,cs),
(356,-10,o),
(415,14,o),
(459,59,c),
(459,-204,l)
);
},
{
closed = 1;
nodes = (
(178,32,o),
(90,126,o),
(90,246,cs),
(90,366,o),
(178,460,o),
(290,460,cs),
(361,460,o),
(424,425,o),
(459,378,c),
(459,114,l),
(426,65,o),
(363,32,o),
(290,32,cs)
);
}
);
userData = {
com.typemytype.robofont.guideline.magnetic.GUrsLFYDTC = 5;
com.typemytype.robofont.guideline.magnetic.W9zBSxFKZ7 = 5;
com.typemytype.robofont.guideline.magnetic.nsRZ48vRkR = 5;
};
width = 571;
},
{
layerId = "00637EAA-82D4-47CE-A25D-74860BA059DC";
shapes = (
{
closed = 1;
nodes = (
(527,-204,l),
(527,501,l),
(454,501,l),
(454,452,l),
(410,488,o),
(353,509,o),
(293,509,cs),
(150,509,o),
(40,396,o),
(40,251,cs),
(40,105,o),
(151,-8,o),
(292,-8,cs),
(354,-8,o),
(410,13,o),
(453,52,c),
(453,-204,l)
);
},
{
closed = 1;
nodes = (
(194,57,o),
(113,142,o),
(113,252,cs),
(113,362,o),
(194,444,o),
(299,444,cs),
(361,444,o),
(418,418,o),
(453,375,c),
(453,127,l),
(418,83,o),
(362,57,o),
(299,57,cs)
);
}
);
userData = {
com.typemytype.robofont.guideline.magnetic.GUrsLFYDTC = 5;
com.typemytype.robofont.guideline.magnetic.W9zBSxFKZ7 = 5;
com.typemytype.robofont.guideline.magnetic.nsRZ48vRkR = 5;
};
width = 590;
},
{
layerId = "7F797451-F356-4E8F-9E4B-AB77A40997AF";
shapes = (
{
closed = 1;
nodes = (
(598,-204,l),
(598,529,l),
(438,529,l),
(438,499,l),
(398,523,o),
(351,536,o),
(301,536,cs),
(147,536,o),
(26,417,o),
(26,265,cs),
(26,113,o),
(145,-7,o),
(296,-7,cs),
(347,-7,o),
(395,8,o),
(436,37,c),
(436,-204,l)
);
},
{
closed = 1;
nodes = (
(246,131,o),
(185,189,o),
(185,265,cs),
(185,341,o),
(245,399,o),
(324,399,cs),
(368,399,o),
(408,384,o),
(436,358,c),
(436,173,l),
(407,145,o),
(369,131,o),
(324,131,cs)
);
}
);
userData = {
com.typemytype.robofont.guideline.magnetic.GUrsLFYDTC = 5;
com.typemytype.robofont.guideline.magnetic.W9zBSxFKZ7 = 5;
com.typemytype.robofont.guideline.magnetic.nsRZ48vRkR = 5;
};
width = 648;
}
);
unicode = 113;
},
{
glyphname = r;
kernLeft = n;
kernRight = r;
lastChange = "2024-11-06 22:35:57 +0000";
layers = (
{
anchors = (
{
name = bottom;
pos = (92,1);
},
{
name = top;
pos = (160,493);
}
);
layerId = m001;
shapes = (
{
closed = 1;
nodes = (
(113,1,l),
(113,346,l),
(139,421,o),
(187,461,o),
(253,461,cs),
(266,461,o),
(281,459,o),
(296,454,c),
(296,499,l),
(279,502,o),
(267,503,o),
(253,503,cs),
(191,503,o),
(141,470,o),
(113,415,c),
(113,493,l),
(69,493,l),
(69,1,l)
);
}
);
userData = {
com.typemytype.robofont.guideline.magnetic.Y5AHFPVjqV = 5;
com.typemytype.robofont.guideline.magnetic.dt4hZ5MNML = 5;
com.typemytype.robofont.guideline.magnetic.qrBjNQKFbs = 5;
};
width = 318;
},
{
anchors = (
{
name = bottom;
pos = (100,0);
},
{
name = top;
pos = (181,501);
}
);
layerId = "00637EAA-82D4-47CE-A25D-74860BA059DC";
shapes = (
{
closed = 1;
nodes = (
(137,0,l),
(137,343,l),
(163,410,o),
(210,446,o),
(272,446,cs),
(289,446,o),
(306,443,o),
(324,437,c),
(324,505,l),
(309,510,o),
(296,512,o),
(277,512,cs),
(216,512,o),
(167,482,o),
(137,430,c),
(137,501,l),
(63,501,l),
(63,0,l)
);
}
);
userData = {
com.typemytype.robofont.guideline.magnetic.Y5AHFPVjqV = 5;
com.typemytype.robofont.guideline.magnetic.dt4hZ5MNML = 5;
com.typemytype.robofont.guideline.magnetic.qrBjNQKFbs = 5;
};
width = 346;
},
{
anchors = (
{
name = bottom;
pos = (126,0);
},
{
name = top;
pos = (251,529);
}
);
layerId = "7F797451-F356-4E8F-9E4B-AB77A40997AF";
shapes = (
{
closed = 1;
nodes = (
(212,0,l),
(212,336,l),
(239,378,o),
(284,403,o),
(335,403,cs),
(363,403,o),
(391,397,o),
(412,387,c),
(412,528,l),
(398,537,o),
(382,540,o),
(351,541,cs),
(294,541,o),
(247,518,o),
(212,476,c),
(212,529,l),
(50,529,l),
(50,0,l)
);
}
);
userData = {
com.typemytype.robofont.guideline.magnetic.Y5AHFPVjqV = 5;
com.typemytype.robofont.guideline.magnetic.dt4hZ5MNML = 5;
com.typemytype.robofont.guideline.magnetic.qrBjNQKFbs = 5;
};
width = 432;
}
);
unicode = 114;
},
{
glyphname = s;
kernLeft = s;
kernRight = s;
lastChange = "2024-11-06 22:35:57 +0000";
layers = (
{
anchors = (
{
name = bottom;
pos = (213,0);
},
{
name = top;
pos = (213,492);
}
);
layerId = m001;
shapes = (
{
closed = 1;
nodes = (
(323,-10,o),
(403,53,o),
(403,137,cs),
(403,207,o),
(356,255,o),
(257,267,cs),
(177,277,ls),
(104,286,o),
(73,316,o),
(73,364,cs),
(73,428,o),
(128,461,o),
(205,461,cs),
(262,461,o),
(311,442,o),
(367,402,c),
(393,438,l),
(330,483,o),
(271,502,o),
(204,502,cs),
(99,502,o),
(29,446,o),
(29,364,cs),
(29,291,o),
(79,246,o),
(172,235,cs),
(253,225,ls),
(327,216,o),
(359,183,o),
(359,137,cs),
(359,74,o),
(299,31,o),
(208,31,cs),
(146,31,o),
(87,56,o),
(47,98,c),
(13,70,l),
(60,18,o),
(132,-10,o),
(208,-10,cs)
);
}
);
userData = {
SBAlt = right;
};
width = 423;
},
{
anchors = (
{
name = bottom;
pos = (224,0);
},
{
name = top;
pos = (222,501);
}
);
layerId = "00637EAA-82D4-47CE-A25D-74860BA059DC";
shapes = (
{
closed = 1;
nodes = (
(338,-10,o),
(426,56,o),
(426,143,cs),
(426,221,o),
(376,266,o),
(276,280,cs),
(189,292,ls),
(123,301,o),
(96,323,o),
(96,368,cs),
(96,417,o),
(143,451,o),
(212,451,cs),
(267,451,o),
(318,433,o),
(374,395,c),
(413,445,l),
(351,490,o),
(289,511,o),
(216,511,cs),
(106,511,o),
(28,449,o),
(28,365,cs),
(28,287,o),
(76,242,o),
(176,228,cs),
(263,216,ls),
(327,207,o),
(356,183,o),
(356,139,cs),
(356,86,o),
(300,49,o),
(220,49,cs),
(161,49,o),
(103,73,o),
(57,116,c),
(12,68,l),
(65,18,o),
(140,-10,o),
(223,-10,cs)
);
}
);
userData = {
SBAlt = right;
};
width = 446;
},
{
anchors = (
{
name = bottom;
pos = (260,0);
},
{
name = top;
pos = (248,529);
}
);
layerId = "7F797451-F356-4E8F-9E4B-AB77A40997AF";
shapes = (
{
closed = 1;
nodes = (
(396,-10,o),
(497,66,o),
(497,169,cs),
(497,252,o),
(438,308,o),
(334,323,cs),
(229,339,ls),
(184,346,o),
(167,357,o),
(167,379,cs),
(167,402,o),
(194,417,o),
(236,417,cs),
(288,417,o),
(339,402,o),
(396,369,c),
(473,473,l),
(407,515,o),
(329,537,o),
(252,537,cs),
(110,537,o),
(24,472,o),
(24,365,cs),
(24,278,o),
(81,223,o),
(186,207,cs),
(291,191,ls),
(328,185,o),
(345,173,o),
(345,153,cs),
(345,127,o),
(311,111,o),
(258,111,cs),
(204,111,o),
(153,128,o),
(86,168,c),
(9,59,l),
(71,14,o),
(159,-10,o),
(259,-10,cs)
);
}
);
userData = {
SBAlt = right;
};
width = 509;
}
);
note = "Version created Fri Aug  3 17:49:29 2018";
unicode = 115;
},
{
glyphname = scedilla;
kernLeft = s;
kernRight = s;
lastChange = "2024-11-06 22:35:57 +0000";
layers = (
{
layerId = m001;
shapes = (
{
closed = 1;
nodes = (
(265,-224,o),
(308,-189,o),
(308,-138,cs),
(308,-92,o),
(270,-61,o),
(213,-60,c),
(226,-9,l),
(331,-3,o),
(403,58,o),
(403,136,cs),
(403,207,o),
(356,255,o),
(257,267,cs),
(177,277,ls),
(104,286,o),
(73,316,o),
(73,364,cs),
(73,427,o),
(128,460,o),
(205,460,cs),
(262,460,o),
(311,442,o),
(367,402,c),
(393,438,l),
(330,483,o),
(271,502,o),
(204,502,cs),
(99,502,o),
(29,446,o),
(29,365,cs),
(29,291,o),
(79,246,o),
(172,235,cs),
(253,225,ls),
(327,216,o),
(359,183,o),
(359,137,cs),
(359,75,o),
(299,32,o),
(208,32,cs),
(146,32,o),
(87,56,o),
(47,98,c),
(13,70,l),
(57,21,o),
(123,-6,o),
(193,-10,c),
(172,-89,l),
(195,-89,ls),
(243,-89,o),
(271,-108,o),
(271,-139,cs),
(271,-172,o),
(244,-193,o),
(202,-193,cs),
(172,-193,o),
(144,-182,o),
(117,-161,c),
(94,-186,l),
(120,-210,o),
(160,-224,o),
(202,-224,cs)
);
}
);
width = 423;
},
{
layerId = "00637EAA-82D4-47CE-A25D-74860BA059DC";
shapes = (
{
closed = 1;
nodes = (
(278,-228,o),
(326,-190,o),
(326,-137,cs),
(326,-89,o),
(289,-58,o),
(231,-55,c),
(244,-8,l),
(348,-1,o),
(426,62,o),
(426,144,cs),
(426,221,o),
(376,266,o),
(276,280,cs),
(189,292,ls),
(123,302,o),
(96,323,o),
(96,366,cs),
(96,415,o),
(143,449,o),
(212,449,cs),
(267,449,o),
(318,431,o),
(374,393,c),
(413,443,l),
(351,488,o),
(289,509,o),
(216,509,cs),
(106,509,o),
(28,447,o),
(28,363,cs),
(28,287,o),
(76,243,o),
(176,228,cs),
(263,216,ls),
(327,207,o),
(356,183,o),
(356,140,cs),
(356,87,o),
(300,50,o),
(220,50,cs),
(161,50,o),
(103,74,o),
(57,117,c),
(12,69,l),
(60,24,o),
(127,-4,o),
(201,-8,c),
(177,-91,l),
(206,-91,ls),
(249,-91,o),
(275,-109,o),
(275,-138,cs),
(275,-167,o),
(251,-187,o),
(211,-187,cs),
(181,-187,o),
(153,-176,o),
(128,-155,c),
(98,-187,l),
(127,-214,o),
(167,-228,o),
(211,-228,cs)
);
}
);
width = 446;
},
{
layerId = "7F797451-F356-4E8F-9E4B-AB77A40997AF";
shapes = (
{
closed = 1;
nodes = (
(317,-239,o),
(377,-193,o),
(377,-134,cs),
(377,-83,o),
(341,-48,o),
(282,-42,c),
(292,-8,l),
(412,3,o),
(497,75,o),
(497,169,cs),
(497,252,o),
(438,308,o),
(334,323,cs),
(229,339,ls),
(184,346,o),
(167,357,o),
(167,379,cs),
(167,402,o),
(194,417,o),
(236,417,cs),
(288,417,o),
(339,402,o),
(396,369,c),
(473,473,l),
(407,515,o),
(329,537,o),
(252,537,cs),
(110,537,o),
(24,472,o),
(24,365,cs),
(24,278,o),
(81,223,o),
(186,207,cs),
(291,191,ls),
(328,185,o),
(345,173,o),
(345,153,cs),
(345,127,o),
(311,111,o),
(258,111,cs),
(204,111,o),
(153,128,o),
(86,168,c),
(9,59,l),
(62,20,o),
(134,-3,o),
(217,-9,c),
(190,-99,l),
(237,-99,ls),
(267,-99,o),
(286,-112,o),
(286,-132,cs),
(286,-154,o),
(268,-166,o),
(235,-166,cs),
(209,-166,o),
(183,-156,o),
(159,-138,c),
(108,-192,l),
(144,-224,o),
(186,-239,o),
(238,-239,cs)
);
}
);
width = 509;
}
);
unicode = 351;
},
{
glyphname = germandbls;
kernLeft = b;
kernRight = s;
lastChange = "2024-11-06 22:35:57 +0000";
layers = (
{
layerId = m001;
shapes = (
{
closed = 1;
nodes = (
(485,-10,o),
(551,44,o),
(551,126,cs),
(551,194,o),
(513,241,o),
(438,267,cs),
(360,294,ls),
(317,309,o),
(298,329,o),
(298,359,cs),
(298,445,o),
(467,443,o),
(467,580,cs),
(467,673,o),
(387,740,o),
(278,740,cs),
(148,740,o),
(68,651,o),
(68,506,cs),
(68,0,l),
(112,0,l),
(112,506,ls),
(112,627,o),
(173,696,o),
(278,696,cs),
(364,696,o),
(423,647,o),
(423,580,cs),
(423,468,o),
(254,476,o),
(254,359,cs),
(254,310,o),
(284,275,o),
(347,253,cs),
(425,226,ls),
(483,206,o),
(507,176,o),
(507,126,cs),
(507,69,o),
(461,32,o),
(387,32,cs),
(333,32,o),
(288,49,o),
(252,84,c),
(223,54,l),
(266,12,o),
(323,-10,o),
(387,-10,cs)
);
}
);
width = 571;
},
{
layerId = "00637EAA-82D4-47CE-A25D-74860BA059DC";
shapes = (
{
closed = 1;
nodes = (
(533,-11,o),
(606,46,o),
(606,131,cs),
(606,199,o),
(570,239,o),
(482,269,cs),
(405,295,ls),
(351,313,o),
(337,326,o),
(337,352,cs),
(337,422,o),
(531,420,o),
(531,557,cs),
(531,650,o),
(442,711,o),
(305,711,cs),
(153,711,o),
(63,623,o),
(63,472,cs),
(63,0,l),
(136,0,l),
(136,474,ls),
(136,587,o),
(196,649,o),
(307,649,cs),
(396,649,o),
(459,609,o),
(459,551,cs),
(459,450,o),
(265,459,o),
(265,343,cs),
(265,294,o),
(294,265,o),
(374,239,cs),
(454,213,ls),
(515,193,o),
(537,169,o),
(537,124,cs),
(537,77,o),
(492,46,o),
(423,46,cs),
(366,46,o),
(318,67,o),
(273,113,c),
(228,70,l),
(283,16,o),
(347,-11,o),
(424,-11,cs)
);
}
);
width = 628;
},
{
layerId = "7F797451-F356-4E8F-9E4B-AB77A40997AF";
shapes = (
{
closed = 1;
nodes = (
(619,-11,o),
(701,55,o),
(701,159,cs),
(701,228,o),
(665,269,o),
(575,302,cs),
(495,330,ls),
(463,342,o),
(455,350,o),
(455,368,cs),
(455,416,o),
(618,433,o),
(618,562,cs),
(618,667,o),
(509,735,o),
(341,735,cs),
(159,735,o),
(50,636,o),
(50,470,cs),
(50,0,l),
(211,0,l),
(211,465,ls),
(211,558,o),
(258,607,o),
(345,607,cs),
(410,607,o),
(460,577,o),
(460,538,cs),
(460,471,o),
(301,461,o),
(301,345,cs),
(301,291,o),
(335,255,o),
(410,230,cs),
(497,201,ls),
(540,187,o),
(554,174,o),
(554,148,cs),
(554,117,o),
(527,98,o),
(482,98,cs),
(436,98,o),
(391,117,o),
(347,156,c),
(269,70,l),
(330,15,o),
(401,-11,o),
(489,-11,cs)
);
}
);
width = 708;
}
);
unicode = 223;
},
{
glyphname = t;
kernLeft = t;
kernRight = t_1;
lastChange = "2024-11-15 10:43:03 +0000";
layers = (
{
anchors = (
{
name = bottom;
pos = (210,0);
},
{
name = center;
pos = (169,246);
},
{
name = top;
pos = (169,630);
},
{
name = topright;
pos = (236,720);
}
);
layerId = m001;
shapes = (
{
closed = 1;
nodes = (
(269,-10,o),
(295,-6,o),
(321,3,c),
(321,46,l),
(298,36,o),
(279,32,o),
(249,32,cs),
(192,32,o),
(169,55,o),
(169,111,cs),
(169,452,l),
(321,452,l),
(321,492,l),
(169,492,l),
(169,630,l),
(125,616,l),
(125,492,l),
(17,492,l),
(17,452,l),
(125,452,l),
(125,96,ls),
(125,29,o),
(166,-10,o),
(241,-10,cs)
);
}
);
userData = {
com.typemytype.robofont.guideline.magnetic.PzgL32NM0K = 5;
com.typemytype.robofont.guideline.magnetic.WcutVHa1Iu = 5;
com.typemytype.robofont.guideline.magnetic.tQ97Ub0ZXW = 5;
};
width = 338;
},
{
anchors = (
{
name = bottom;
pos = (235,0);
},
{
name = center;
pos = (183,251);
},
{
name = top;
pos = (183,647);
},
{
name = topright;
pos = (282,772);
}
);
layerId = "00637EAA-82D4-47CE-A25D-74860BA059DC";
shapes = (
{
closed = 1;
nodes = (
(289,-10,o),
(322,-6,o),
(348,3,c),
(348,68,l),
(323,58,o),
(303,55,o),
(275,55,cs),
(220,55,o),
(198,76,o),
(198,130,cs),
(198,438,l),
(349,438,l),
(349,501,l),
(198,501,l),
(198,647,l),
(125,628,l),
(125,501,l),
(17,501,l),
(17,438,l),
(125,438,l),
(125,111,ls),
(125,32,o),
(173,-10,o),
(260,-10,cs)
);
}
);
userData = {
com.typemytype.robofont.guideline.magnetic.PzgL32NM0K = 5;
com.typemytype.robofont.guideline.magnetic.WcutVHa1Iu = 5;
com.typemytype.robofont.guideline.magnetic.tQ97Ub0ZXW = 5;
};
width = 365;
},
{
anchors = (
{
name = bottom;
pos = (264,0);
},
{
name = center;
pos = (224,265);
},
{
name = top;
pos = (224,700);
},
{
name = topright;
pos = (353,793);
}
);
layerId = "7F797451-F356-4E8F-9E4B-AB77A40997AF";
shapes = (
{
closed = 1;
nodes = (
(348,-7,o),
(400,0,o),
(430,9,c),
(430,140,l),
(403,132,o),
(383,129,o),
(357,129,cs),
(305,129,o),
(287,146,o),
(287,193,cs),
(287,394,l),
(435,394,l),
(435,529,l),
(287,529,l),
(287,700,l),
(125,665,l),
(125,529,l),
(18,529,l),
(18,394,l),
(125,394,l),
(125,161,ls),
(125,50,o),
(190,-7,o),
(317,-7,cs)
);
}
);
userData = {
com.typemytype.robofont.guideline.magnetic.PzgL32NM0K = 5;
com.typemytype.robofont.guideline.magnetic.WcutVHa1Iu = 5;
com.typemytype.robofont.guideline.magnetic.tQ97Ub0ZXW = 5;
};
width = 448;
}
);
unicode = 116;
},
{
glyphname = tbar;
kernLeft = t;
kernRight = t_1;
lastChange = "2024-11-06 22:35:57 +0000";
layers = (
{
layerId = m001;
shapes = (
{
closed = 1;
nodes = (
(269,-10,o),
(295,-6,o),
(321,3,c),
(321,46,l),
(298,36,o),
(279,32,o),
(249,32,cs),
(192,32,o),
(169,55,o),
(169,111,cs),
(169,269,l),
(321,269,l),
(321,306,l),
(169,306,l),
(169,452,l),
(321,452,l),
(321,492,l),
(169,492,l),
(169,630,l),
(125,616,l),
(125,492,l),
(17,492,l),
(17,452,l),
(125,452,l),
(125,306,l),
(17,306,l),
(17,269,l),
(125,269,l),
(125,96,ls),
(125,29,o),
(166,-10,o),
(241,-10,cs)
);
}
);
width = 338;
},
{
layerId = "00637EAA-82D4-47CE-A25D-74860BA059DC";
shapes = (
{
closed = 1;
nodes = (
(289,-10,o),
(322,-6,o),
(348,3,c),
(348,68,l),
(323,58,o),
(303,55,o),
(275,55,cs),
(220,55,o),
(198,76,o),
(198,130,cs),
(198,263,l),
(352,263,l),
(352,322,l),
(198,322,l),
(198,438,l),
(349,438,l),
(349,501,l),
(198,501,l),
(198,647,l),
(125,628,l),
(125,501,l),
(17,501,l),
(17,438,l),
(125,438,l),
(125,322,l),
(17,322,l),
(17,263,l),
(125,263,l),
(125,111,ls),
(125,32,o),
(173,-10,o),
(260,-10,cs)
);
}
);
width = 365;
},
{
layerId = "7F797451-F356-4E8F-9E4B-AB77A40997AF";
shapes = (
{
closed = 1;
nodes = (
(348,-7,o),
(400,0,o),
(430,9,c),
(430,140,l),
(403,132,o),
(383,129,o),
(357,129,cs),
(305,129,o),
(287,146,o),
(287,193,cs),
(287,215,l),
(434,215,l),
(434,330,l),
(287,330,l),
(287,394,l),
(435,394,l),
(435,529,l),
(287,529,l),
(287,700,l),
(125,665,l),
(125,529,l),
(18,529,l),
(18,394,l),
(125,394,l),
(125,330,l),
(18,330,l),
(18,215,l),
(125,215,l),
(125,161,ls),
(125,50,o),
(190,-7,o),
(317,-7,cs)
);
}
);
width = 448;
}
);
unicode = 359;
},
{
glyphname = tcaron;
kernLeft = t;
kernRight = t_1;
lastChange = "2024-11-15 10:31:34 +0000";
layers = (
{
background = {
shapes = (
{
closed = 1;
nodes = (
(265,552,l),
(282,710,l),
(234,700,l),
(232,552,l)
);
},
{
closed = 1;
nodes = (
(269,-10,o),
(295,-6,o),
(321,3,c),
(321,46,l),
(298,36,o),
(279,32,o),
(249,32,cs),
(192,32,o),
(169,55,o),
(169,111,cs),
(169,452,l),
(321,452,l),
(321,492,l),
(169,492,l),
(169,630,l),
(125,616,l),
(125,492,l),
(17,492,l),
(17,452,l),
(125,452,l),
(125,96,ls),
(125,29,o),
(166,-10,o),
(241,-10,cs)
);
}
);
};
layerId = m001;
shapes = (
{
ref = t;
},
{
pos = (92,20);
ref = caroncomb.alt;
}
);
width = 338;
},
{
background = {
shapes = (
{
closed = 1;
nodes = (
(334,582,l),
(359,782,l),
(281,768,l),
(275,582,l)
);
},
{
closed = 1;
nodes = (
(289,-9,o),
(322,-5,o),
(348,4,c),
(348,69,l),
(323,59,o),
(303,56,o),
(275,56,cs),
(220,56,o),
(198,77,o),
(198,131,cs),
(198,438,l),
(349,438,l),
(349,501,l),
(198,501,l),
(198,647,l),
(125,628,l),
(125,501,l),
(17,501,l),
(17,438,l),
(125,438,l),
(125,112,ls),
(125,33,o),
(173,-9,o),
(260,-9,cs)
);
}
);
};
layerId = "00637EAA-82D4-47CE-A25D-74860BA059DC";
shapes = (
{
ref = t;
},
{
pos = (180,72);
ref = caroncomb.alt;
}
);
width = 365;
},
{
background = {
shapes = (
{
closed = 1;
nodes = (
(437,591,l),
(477,818,l),
(352,793,l),
(348,591,l)
);
},
{
closed = 1;
nodes = (
(348,-7,o),
(400,0,o),
(430,9,c),
(430,140,l),
(403,132,o),
(383,129,o),
(357,129,cs),
(305,129,o),
(287,146,o),
(287,193,cs),
(287,394,l),
(435,394,l),
(435,529,l),
(287,529,l),
(287,700,l),
(125,665,l),
(125,529,l),
(18,529,l),
(18,394,l),
(125,394,l),
(125,161,ls),
(125,50,o),
(190,-7,o),
(317,-7,cs)
);
}
);
};
layerId = "7F797451-F356-4E8F-9E4B-AB77A40997AF";
shapes = (
{
ref = t;
},
{
pos = (248,93);
ref = caroncomb.alt;
}
);
width = 448;
}
);
unicode = 357;
},
{
glyphname = tcedilla;
kernLeft = t;
kernRight = t_1;
lastChange = "2024-11-06 22:35:57 +0000";
layers = (
{
layerId = m001;
shapes = (
{
closed = 1;
nodes = (
(261,-224,o),
(304,-189,o),
(304,-138,cs),
(304,-92,o),
(266,-61,o),
(209,-60,c),
(223,-9,l),
(228,-10,o),
(235,-10,o),
(241,-10,cs),
(269,-10,o),
(295,-6,o),
(321,3,c),
(321,46,l),
(298,36,o),
(279,32,o),
(249,32,cs),
(192,32,o),
(169,55,o),
(169,111,cs),
(169,452,l),
(321,452,l),
(321,492,l),
(169,492,l),
(169,630,l),
(125,616,l),
(125,492,l),
(17,492,l),
(17,452,l),
(125,452,l),
(125,96,ls),
(125,46,o),
(148,11,o),
(191,-3,c),
(168,-89,l),
(191,-89,ls),
(239,-89,o),
(267,-108,o),
(267,-139,cs),
(267,-172,o),
(240,-193,o),
(198,-193,cs),
(168,-193,o),
(140,-182,o),
(113,-161,c),
(90,-186,l),
(116,-210,o),
(156,-224,o),
(198,-224,cs)
);
}
);
width = 338;
},
{
layerId = "00637EAA-82D4-47CE-A25D-74860BA059DC";
shapes = (
{
closed = 1;
nodes = (
(283,-228,o),
(331,-190,o),
(331,-137,cs),
(331,-89,o),
(294,-58,o),
(236,-55,c),
(249,-9,l),
(253,-9,o),
(256,-9,o),
(260,-9,cs),
(289,-9,o),
(322,-5,o),
(348,4,c),
(348,69,l),
(323,59,o),
(303,56,o),
(275,56,cs),
(220,56,o),
(198,77,o),
(198,131,cs),
(198,438,l),
(349,438,l),
(349,501,l),
(198,501,l),
(198,647,l),
(125,628,l),
(125,501,l),
(17,501,l),
(17,438,l),
(125,438,l),
(125,112,ls),
(125,51,o),
(154,12,o),
(207,-3,c),
(182,-91,l),
(211,-91,ls),
(254,-91,o),
(280,-109,o),
(280,-138,cs),
(280,-167,o),
(256,-187,o),
(216,-187,cs),
(186,-187,o),
(158,-176,o),
(133,-155,c),
(103,-187,l),
(132,-214,o),
(172,-228,o),
(216,-228,cs)
);
}
);
width = 365;
},
{
layerId = "7F797451-F356-4E8F-9E4B-AB77A40997AF";
shapes = (
{
closed = 1;
nodes = (
(340,-239,o),
(400,-193,o),
(400,-134,cs),
(400,-83,o),
(364,-48,o),
(305,-42,c),
(316,-7,l),
(316,-7,o),
(317,-7,o),
(317,-7,c),
(348,-7,o),
(400,0,o),
(430,9,c),
(430,140,l),
(403,132,o),
(383,129,o),
(357,129,cs),
(305,129,o),
(287,146,o),
(287,193,cs),
(287,394,l),
(435,394,l),
(435,529,l),
(287,529,l),
(287,700,l),
(125,665,l),
(125,529,l),
(18,529,l),
(18,394,l),
(125,394,l),
(125,161,ls),
(125,74,o),
(165,20,o),
(243,1,c),
(213,-99,l),
(260,-99,ls),
(290,-99,o),
(309,-112,o),
(309,-132,cs),
(309,-154,o),
(291,-166,o),
(258,-166,cs),
(232,-166,o),
(206,-156,o),
(182,-138,c),
(131,-192,l),
(167,-224,o),
(209,-239,o),
(261,-239,cs)
);
}
);
width = 448;
}
);
unicode = 355;
},
{
glyphname = u;
kernLeft = u;
kernRight = q;
lastChange = "2024-11-06 22:35:57 +0000";
layers = (
{
anchors = (
{
name = bottom;
pos = (461,0);
},
{
name = top;
pos = (264,492);
}
);
layerId = m001;
shapes = (
{
closed = 1;
nodes = (
(323,-10,o),
(378,16,o),
(417,68,c),
(417,0,l),
(461,0,l),
(461,492,l),
(417,492,l),
(417,122,l),
(386,64,o),
(331,31,o),
(264,31,cs),
(168,31,o),
(110,92,o),
(110,190,cs),
(110,492,l),
(66,492,l),
(66,178,ls),
(66,66,o),
(143,-10,o),
(254,-10,cs)
);
}
);
userData = {
com.typemytype.robofont.guideline.magnetic.0m6we0t65U = 5;
com.typemytype.robofont.guideline.magnetic.OWRxSD6wga = 5;
com.typemytype.robofont.guideline.magnetic.t1jRErCmBp = 5;
};
width = 529;
},
{
anchors = (
{
name = bottom;
pos = (486,0);
},
{
name = top;
pos = (274,501);
}
);
layerId = "00637EAA-82D4-47CE-A25D-74860BA059DC";
shapes = (
{
closed = 1;
nodes = (
(320,-10,o),
(373,13,o),
(412,58,c),
(412,0,l),
(486,0,l),
(486,501,l),
(412,501,l),
(412,133,l),
(382,83,o),
(334,55,o),
(274,55,cs),
(188,55,o),
(134,110,o),
(134,199,cs),
(134,501,l),
(61,501,l),
(61,184,ls),
(61,69,o),
(140,-10,o),
(255,-10,cs)
);
}
);
userData = {
com.typemytype.robofont.guideline.magnetic.0m6we0t65U = 5;
com.typemytype.robofont.guideline.magnetic.OWRxSD6wga = 5;
com.typemytype.robofont.guideline.magnetic.t1jRErCmBp = 5;
};
width = 549;
},
{
anchors = (
{
name = bottom;
pos = (563,0);
},
{
name = top;
pos = (306,529);
}
);
layerId = "7F797451-F356-4E8F-9E4B-AB77A40997AF";
shapes = (
{
closed = 1;
nodes = (
(311,-10,o),
(360,6,o),
(399,36,c),
(399,0,l),
(561,0,l),
(561,529,l),
(399,529,l),
(399,171,l),
(377,144,o),
(345,129,o),
(304,129,cs),
(246,129,o),
(208,167,o),
(208,225,cs),
(208,529,l),
(46,529,l),
(46,203,ls),
(46,78,o),
(133,-10,o),
(257,-10,cs)
);
}
);
userData = {
com.typemytype.robofont.guideline.magnetic.0m6we0t65U = 5;
com.typemytype.robofont.guideline.magnetic.OWRxSD6wga = 5;
com.typemytype.robofont.guideline.magnetic.t1jRErCmBp = 5;
};
width = 611;
}
);
unicode = 117;
},
{
glyphname = uogonek;
kernLeft = u;
kernRight = q;
lastChange = "2024-11-06 22:35:57 +0000";
layers = (
{
layerId = m001;
shapes = (
{
closed = 1;
nodes = (
(432,-221,o),
(455,-214,o),
(475,-201,c),
(462,-172,l),
(447,-182,o),
(429,-187,o),
(411,-187,cs),
(373,-187,o),
(349,-168,o),
(349,-131,cs),
(349,-94,o),
(376,-55,o),
(461,0,c),
(461,492,l),
(417,492,l),
(417,122,l),
(386,64,o),
(331,31,o),
(264,31,cs),
(168,31,o),
(110,92,o),
(110,190,cs),
(110,492,l),
(66,492,l),
(66,178,ls),
(66,66,o),
(143,-10,o),
(254,-10,cs),
(323,-10,o),
(378,16,o),
(417,68,c),
(417,0,l),
(418,0,l),
(342,-48,o),
(310,-94,o),
(310,-138,cs),
(310,-185,o),
(344,-221,o),
(406,-221,cs)
);
}
);
width = 529;
},
{
layerId = "00637EAA-82D4-47CE-A25D-74860BA059DC";
shapes = (
{
closed = 1;
nodes = (
(456,-221,o),
(480,-214,o),
(502,-200,c),
(487,-161,l),
(473,-171,o),
(456,-175,o),
(439,-175,cs),
(402,-175,o),
(381,-156,o),
(381,-123,cs),
(381,-84,o),
(413,-46,o),
(486,0,c),
(486,501,l),
(412,501,l),
(412,133,l),
(382,83,o),
(334,55,o),
(274,55,cs),
(188,55,o),
(134,110,o),
(134,199,cs),
(134,501,l),
(61,501,l),
(61,184,ls),
(61,69,o),
(140,-10,o),
(255,-10,cs),
(320,-10,o),
(373,13,o),
(412,58,c),
(412,0,l),
(429,0,l),
(359,-48,o),
(330,-88,o),
(330,-135,cs),
(330,-187,o),
(369,-221,o),
(428,-221,cs)
);
}
);
width = 549;
},
{
layerId = "7F797451-F356-4E8F-9E4B-AB77A40997AF";
shapes = (
{
closed = 1;
nodes = (
(528,-221,o),
(560,-212,o),
(583,-198,c),
(562,-128,l),
(552,-135,o),
(538,-139,o),
(526,-139,cs),
(497,-139,o),
(479,-124,o),
(479,-98,cs),
(479,-64,o),
(503,-32,o),
(561,1,c),
(561,529,l),
(399,529,l),
(399,171,l),
(377,144,o),
(345,129,o),
(304,129,cs),
(246,129,o),
(208,167,o),
(208,225,cs),
(208,529,l),
(46,529,l),
(46,203,ls),
(46,78,o),
(133,-10,o),
(257,-10,cs),
(311,-10,o),
(360,6,o),
(399,36,c),
(399,0,l),
(475,0,l),
(415,-38,o),
(388,-78,o),
(388,-127,cs),
(388,-183,o),
(431,-221,o),
(496,-221,cs)
);
}
);
width = 611;
}
);
unicode = 371;
},
{
glyphname = v;
kernRight = v;
lastChange = "2024-11-06 22:35:57 +0000";
layers = (
{
layerId = m001;
shapes = (
{
closed = 1;
nodes = (
(262,0,l),
(476,492,l),
(430,492,l),
(243,56,l),
(55,492,l),
(7,492,l),
(222,0,l)
);
}
);
userData = {
SBAlt = right;
};
width = 483;
},
{
layerId = "00637EAA-82D4-47CE-A25D-74860BA059DC";
shapes = (
{
closed = 1;
nodes = (
(292,0,l),
(508,501,l),
(429,501,l),
(258,96,l),
(87,501,l),
(5,501,l),
(222,0,l)
);
}
);
userData = {
SBAlt = right;
};
width = 513;
},
{
layerId = "7F797451-F356-4E8F-9E4B-AB77A40997AF";
shapes = (
{
closed = 1;
nodes = (
(382,0,l),
(608,529,l),
(436,529,l),
(305,205,l),
(174,529,l),
(-2,529,l),
(224,0,l)
);
}
);
userData = {
SBAlt = right;
};
width = 606;
}
);
unicode = 118;
},
{
glyphname = w;
kernLeft = w;
kernRight = w;
lastChange = "2024-11-06 22:35:57 +0000";
layers = (
{
anchors = (
{
name = top;
pos = (337,492);
}
);
guides = (
{
pos = (337,492);
userData = {
UFO.identifier = F7Zx6Ukp1N;
};
}
);
layerId = m001;
shapes = (
{
closed = 1;
nodes = (
(210,0,l),
(336,431,l),
(461,0,l),
(505,0,l),
(655,492,l),
(611,492,l),
(483,65,l),
(359,492,l),
(315,492,l),
(190,66,l),
(62,492,l),
(16,492,l),
(166,0,l)
);
}
);
width = 671;
},
{
anchors = (
{
name = top;
pos = (352,501);
}
);
layerId = "00637EAA-82D4-47CE-A25D-74860BA059DC";
shapes = (
{
closed = 1;
nodes = (
(227,0,l),
(352,401,l),
(476,0,l),
(547,0,l),
(689,501,l),
(619,501,l),
(510,101,l),
(386,501,l),
(320,501,l),
(195,101,l),
(87,501,l),
(14,501,l),
(155,0,l)
);
}
);
width = 703;
},
{
anchors = (
{
name = top;
pos = (400,529);
}
);
layerId = "7F797451-F356-4E8F-9E4B-AB77A40997AF";
shapes = (
{
closed = 1;
nodes = (
(308,0,l),
(399,306,l),
(491,0,l),
(646,0,l),
(791,529,l),
(640,529,l),
(563,217,l),
(468,529,l),
(334,529,l),
(239,218,l),
(161,529,l),
(8,529,l),
(152,0,l)
);
}
);
width = 799;
}
);
unicode = 119;
},
{
glyphname = x;
kernRight = k;
lastChange = "2024-11-06 22:35:57 +0000";
layers = (
{
layerId = m001;
shapes = (
{
closed = 1;
nodes = (
(62,0,l),
(229,221,l),
(396,0,l),
(452,0,l),
(256,256,l),
(438,492,l),
(384,492,l),
(230,289,l),
(75,492,l),
(19,492,l),
(202,254,l),
(8,0,l)
);
}
);
userData = {
SBAlt = right;
};
width = 460;
},
{
layerId = "00637EAA-82D4-47CE-A25D-74860BA059DC";
shapes = (
{
closed = 1;
nodes = (
(89,0,l),
(244,204,l),
(397,0,l),
(485,0,l),
(287,259,l),
(472,501,l),
(387,501,l),
(245,313,l),
(103,501,l),
(15,501,l),
(202,258,l),
(5,0,l)
);
}
);
userData = {
SBAlt = right;
};
width = 491;
},
{
layerId = "7F797451-F356-4E8F-9E4B-AB77A40997AF";
shapes = (
{
closed = 1;
nodes = (
(176,0,l),
(286,151,l),
(397,0,l),
(585,0,l),
(379,270,l),
(574,529,l),
(393,529,l),
(290,387,l),
(186,529,l),
(-2,529,l),
(196,268,l),
(-5,0,l)
);
}
);
userData = {
SBAlt = right;
};
width = 580;
}
);
unicode = 120;
},
{
glyphname = y;
kernLeft = y;
kernRight = v;
lastChange = "2024-11-06 22:35:57 +0000";
layers = (
{
anchors = (
{
name = top;
pos = (241,492);
}
);
guides = (
{
pos = (240,492);
userData = {
UFO.identifier = 3oXsD9VrLK;
};
}
);
layerId = m001;
shapes = (
{
closed = 1;
nodes = (
(138,-212,o),
(178,-178,o),
(216,-92,cs),
(472,492,l),
(423,492,l),
(236,55,l),
(57,492,l),
(7,492,l),
(212,2,l),
(172,-88,ls),
(147,-143,o),
(116,-168,o),
(73,-168,cs),
(56,-168,o),
(46,-167,o),
(34,-164,c),
(34,-208,l),
(44,-210,o),
(60,-212,o),
(75,-212,cs)
);
}
);
width = 479;
},
{
anchors = (
{
name = top;
pos = (250,501);
}
);
layerId = "00637EAA-82D4-47CE-A25D-74860BA059DC";
shapes = (
{
closed = 1;
nodes = (
(164,-214,o),
(212,-175,o),
(254,-78,cs),
(504,501,l),
(424,501,l),
(249,90,l),
(87,501,l),
(5,501,l),
(209,1,l),
(179,-68,ls),
(156,-121,o),
(124,-146,o),
(79,-146,cs),
(61,-146,o),
(50,-145,o),
(37,-142,c),
(37,-209,l),
(48,-212,o),
(65,-214,o),
(84,-214,cs)
);
}
);
width = 510;
},
{
anchors = (
{
name = top;
pos = (301,529);
}
);
layerId = "7F797451-F356-4E8F-9E4B-AB77A40997AF";
shapes = (
{
closed = 1;
nodes = (
(240,-216,o),
(309,-165,o),
(368,-27,cs),
(605,529,l),
(430,529,l),
(294,196,l),
(177,529,l),
(-2,529,l),
(201,-7,l),
(201,-8,ls),
(183,-53,o),
(147,-76,o),
(96,-76,cs),
(75,-76,o),
(61,-75,o),
(46,-72,c),
(46,-210,l),
(62,-214,o),
(87,-216,o),
(113,-216,cs)
);
}
);
width = 603;
}
);
unicode = 121;
},
{
glyphname = z;
kernLeft = z;
kernRight = z;
lastChange = "2024-11-06 22:35:57 +0000";
layers = (
{
anchors = (
{
name = top;
pos = (224,492);
}
);
layerId = m001;
shapes = (
{
closed = 1;
nodes = (
(409,0,l),
(409,42,l),
(92,42,l),
(407,453,l),
(407,492,l),
(39,492,l),
(39,450,l),
(351,450,l),
(36,39,l),
(36,0,l)
);
}
);
width = 449;
},
{
anchors = (
{
name = top;
pos = (228,501);
}
);
layerId = "00637EAA-82D4-47CE-A25D-74860BA059DC";
shapes = (
{
closed = 1;
nodes = (
(426,0,l),
(426,66,l),
(120,66,l),
(423,444,l),
(423,501,l),
(34,501,l),
(34,435,l),
(333,435,l),
(31,58,l),
(31,0,l)
);
}
);
width = 463;
},
{
anchors = (
{
name = top;
pos = (252,529);
}
);
layerId = "7F797451-F356-4E8F-9E4B-AB77A40997AF";
shapes = (
{
closed = 1;
nodes = (
(489,0,l),
(489,135,l),
(234,135,l),
(481,416,l),
(481,529,l),
(27,529,l),
(27,394,l),
(271,394,l),
(25,113,l),
(25,0,l)
);
}
);
width = 514;
}
);
unicode = 122;
},
{
glyphname = a.ss01;
kernLeft = o;
kernRight = q;
lastChange = "2024-11-13 22:14:16 +0000";
layers = (
{
anchors = (
{
name = bottom;
pos = (504,0);
},
{
name = top;
pos = (285,492);
}
);
layerId = m001;
shapes = (
{
closed = 1;
nodes = (
(356,-10,o),
(415,14,o),
(459,59,c),
(459,0,l),
(503,0,l),
(503,492,l),
(459,492,l),
(459,434,l),
(413,475,o),
(353,502,o),
(290,502,cs),
(153,502,o),
(45,389,o),
(45,246,cs),
(45,102,o),
(153,-10,o),
(290,-10,cs)
);
},
{
closed = 1;
nodes = (
(178,32,o),
(90,126,o),
(90,246,cs),
(90,366,o),
(178,460,o),
(290,460,cs),
(361,460,o),
(424,425,o),
(459,378,c),
(459,114,l),
(426,65,o),
(363,32,o),
(290,32,cs)
);
}
);
width = 571;
},
{
anchors = (
{
name = bottom;
pos = (527,0);
},
{
name = top;
pos = (295,501);
}
);
layerId = "00637EAA-82D4-47CE-A25D-74860BA059DC";
shapes = (
{
closed = 1;
nodes = (
(355,-8,o),
(411,13,o),
(454,53,c),
(454,0,l),
(527,0,l),
(527,501,l),
(453,501,l),
(453,452,l),
(408,489,o),
(351,509,o),
(293,509,cs),
(150,509,o),
(40,396,o),
(40,251,cs),
(40,105,o),
(151,-8,o),
(292,-8,cs)
);
},
{
closed = 1;
nodes = (
(194,57,o),
(113,142,o),
(113,252,cs),
(113,362,o),
(194,444,o),
(299,444,cs),
(361,444,o),
(418,418,o),
(453,375,c),
(453,127,l),
(418,83,o),
(362,57,o),
(299,57,cs)
);
}
);
width = 590;
},
{
anchors = (
{
name = bottom;
pos = (598,0);
},
{
name = top;
pos = (323,529);
}
);
layerId = "7F797451-F356-4E8F-9E4B-AB77A40997AF";
shapes = (
{
closed = 1;
nodes = (
(348,-7,o),
(397,9,o),
(438,39,c),
(438,0,l),
(598,0,l),
(598,529,l),
(436,529,l),
(436,501,l),
(396,524,o),
(350,536,o),
(301,536,cs),
(147,536,o),
(26,417,o),
(26,265,cs),
(26,113,o),
(145,-7,o),
(296,-7,cs)
);
},
{
closed = 1;
nodes = (
(246,131,o),
(185,189,o),
(185,265,cs),
(185,341,o),
(245,399,o),
(324,399,cs),
(368,399,o),
(408,384,o),
(436,358,c),
(436,173,l),
(407,145,o),
(369,131,o),
(324,131,cs)
);
}
);
width = 648;
}
);
},
{
glyphname = aogonek.ss01;
kernLeft = o;
kernRight = q;
lastChange = "2024-11-13 22:14:16 +0000";
layers = (
{
layerId = m001;
shapes = (
{
closed = 1;
nodes = (
(474,-221,o),
(497,-214,o),
(517,-201,c),
(504,-172,l),
(489,-182,o),
(471,-187,o),
(453,-187,cs),
(415,-187,o),
(391,-168,o),
(391,-131,cs),
(391,-94,o),
(418,-55,o),
(503,0,c),
(503,492,l),
(459,492,l),
(459,434,l),
(413,475,o),
(353,502,o),
(290,502,cs),
(153,502,o),
(45,389,o),
(45,246,cs),
(45,102,o),
(153,-10,o),
(290,-10,cs),
(356,-10,o),
(415,14,o),
(459,59,c),
(459,0,l),
(460,0,l),
(383,-49,o),
(352,-94,o),
(352,-138,cs),
(352,-185,o),
(386,-221,o),
(448,-221,cs)
);
},
{
closed = 1;
nodes = (
(90,366,o),
(178,460,o),
(290,460,cs),
(361,460,o),
(424,425,o),
(459,378,c),
(459,114,l),
(426,65,o),
(363,32,o),
(290,32,cs),
(178,32,o),
(90,126,o),
(90,246,cs)
);
}
);
width = 571;
},
{
layerId = "00637EAA-82D4-47CE-A25D-74860BA059DC";
shapes = (
{
closed = 1;
nodes = (
(496,-221,o),
(520,-214,o),
(542,-200,c),
(527,-161,l),
(513,-171,o),
(496,-175,o),
(479,-175,cs),
(442,-175,o),
(421,-156,o),
(421,-123,cs),
(421,-84,o),
(454,-46,o),
(527,0,c),
(527,501,l),
(453,501,l),
(453,452,l),
(408,489,o),
(351,509,o),
(293,509,cs),
(150,509,o),
(40,396,o),
(40,251,cs),
(40,105,o),
(151,-8,o),
(292,-8,cs),
(355,-8,o),
(411,13,o),
(454,53,c),
(454,0,l),
(469,0,l),
(399,-48,o),
(370,-88,o),
(370,-135,cs),
(370,-187,o),
(409,-221,o),
(468,-221,cs)
);
},
{
closed = 1;
nodes = (
(113,362,o),
(194,444,o),
(299,444,cs),
(361,444,o),
(418,418,o),
(453,375,c),
(453,127,l),
(418,83,o),
(362,57,o),
(299,57,cs),
(194,57,o),
(113,142,o),
(113,252,cs)
);
}
);
width = 590;
},
{
layerId = "7F797451-F356-4E8F-9E4B-AB77A40997AF";
shapes = (
{
closed = 1;
nodes = (
(563,-221,o),
(595,-212,o),
(618,-198,c),
(597,-128,l),
(587,-135,o),
(573,-139,o),
(561,-139,cs),
(532,-139,o),
(514,-124,o),
(514,-98,cs),
(514,-64,o),
(540,-33,o),
(598,0,c),
(598,529,l),
(436,529,l),
(436,501,l),
(396,524,o),
(350,536,o),
(301,536,cs),
(147,536,o),
(26,417,o),
(26,265,cs),
(26,113,o),
(145,-7,o),
(296,-7,cs),
(348,-7,o),
(397,9,o),
(438,39,c),
(438,0,l),
(510,0,l),
(450,-38,o),
(423,-78,o),
(423,-127,cs),
(423,-183,o),
(466,-221,o),
(531,-221,cs)
);
},
{
closed = 1;
nodes = (
(185,341,o),
(245,399,o),
(324,399,cs),
(368,399,o),
(408,384,o),
(436,358,c),
(436,173,l),
(407,145,o),
(369,131,o),
(324,131,cs),
(246,131,o),
(185,189,o),
(185,265,cs)
);
}
);
width = 648;
}
);
},
{
glyphname = g.ss02;
kernLeft = g.alt;
kernRight = g.alt;
lastChange = "2024-11-13 22:14:02 +0000";
layers = (
{
anchors = (
{
name = top;
pos = (251,492);
}
);
layerId = m001;
shapes = (
{
closed = 1;
nodes = (
(393,-214,o),
(488,-157,o),
(488,-69,cs),
(488,-9,o),
(446,26,o),
(368,29,cs),
(198,36,ls),
(157,37,o),
(135,52,o),
(135,79,cs),
(135,107,o),
(158,130,o),
(198,141,c),
(215,136,o),
(232,134,o),
(251,134,cs),
(359,134,o),
(447,216,o),
(447,318,cs),
(447,364,o),
(429,407,o),
(399,439,c),
(414,462,o),
(442,475,o),
(476,475,cs),
(487,475,o),
(495,474,o),
(501,473,c),
(498,519,l),
(493,520,o),
(486,521,o),
(479,521,cs),
(435,521,o),
(395,496,o),
(376,460,c),
(342,486,o),
(298,502,o),
(251,502,cs),
(143,502,o),
(55,420,o),
(55,318,cs),
(55,248,o),
(96,188,o),
(157,156,c),
(117,139,o),
(89,107,o),
(89,75,cs),
(89,48,o),
(103,25,o),
(128,10,c),
(61,-18,o),
(29,-53,o),
(29,-98,cs),
(29,-171,o),
(110,-214,o),
(246,-214,cs)
);
},
{
closed = 1;
nodes = (
(166,176,o),
(100,238,o),
(100,318,cs),
(100,398,o),
(166,460,o),
(251,460,cs),
(336,460,o),
(402,398,o),
(402,318,cs),
(402,238,o),
(336,176,o),
(251,176,cs)
);
},
{
closed = 1;
nodes = (
(138,-172,o),
(74,-141,o),
(74,-91,cs),
(74,-57,o),
(112,-25,o),
(176,-6,c),
(182,-7,o),
(189,-8,o),
(196,-8,cs),
(362,-15,ls),
(417,-18,o),
(444,-37,o),
(444,-73,cs),
(444,-133,o),
(363,-172,o),
(239,-172,cs)
);
}
);
userData = {
SBAlt = right;
};
width = 499;
},
{
anchors = (
{
name = top;
pos = (265,501);
}
);
layerId = "00637EAA-82D4-47CE-A25D-74860BA059DC";
shapes = (
{
closed = 1;
nodes = (
(422,-214,o),
(528,-155,o),
(528,-62,cs),
(528,2,o),
(481,39,o),
(398,44,cs),
(217,53,ls),
(176,56,o),
(156,70,o),
(156,95,cs),
(156,116,o),
(172,133,o),
(199,144,c),
(219,138,o),
(240,135,o),
(262,135,cs),
(377,135,o),
(469,218,o),
(469,323,cs),
(469,368,o),
(452,409,o),
(424,441,c),
(443,458,o),
(470,468,o),
(502,468,cs),
(514,468,o),
(523,467,o),
(531,466,c),
(528,530,l),
(522,531,o),
(515,532,o),
(505,532,cs),
(459,532,o),
(418,507,o),
(396,467,c),
(360,494,o),
(313,511,o),
(262,511,cs),
(147,511,o),
(55,428,o),
(55,323,cs),
(55,255,o),
(94,196,o),
(152,163,c),
(113,145,o),
(88,115,o),
(88,80,cs),
(88,51,o),
(101,27,o),
(126,11,c),
(62,-13,o),
(26,-51,o),
(26,-95,cs),
(26,-170,o),
(110,-214,o),
(256,-214,cs)
);
},
{
closed = 1;
nodes = (
(185,196,o),
(126,251,o),
(126,323,cs),
(126,395,o),
(185,450,o),
(262,450,cs),
(339,450,o),
(398,395,o),
(398,323,cs),
(398,251,o),
(339,196,o),
(262,196,cs)
);
},
{
closed = 1;
nodes = (
(154,-159,o),
(96,-132,o),
(96,-86,cs),
(96,-52,o),
(128,-25,o),
(186,-11,c),
(195,-12,o),
(205,-13,o),
(216,-14,cs),
(384,-23,ls),
(430,-25,o),
(454,-42,o),
(454,-72,cs),
(454,-125,o),
(375,-159,o),
(251,-159,cs)
);
}
);
userData = {
SBAlt = right;
};
width = 530;
},
{
anchors = (
{
name = top;
pos = (298,529);
}
);
layerId = "7F797451-F356-4E8F-9E4B-AB77A40997AF";
shapes = (
{
closed = 1;
nodes = (
(489,-214,o),
(617,-144,o),
(617,-33,cs),
(617,44,o),
(552,92,o),
(445,94,cs),
(273,97,ls),
(237,98,o),
(220,108,o),
(220,127,cs),
(220,135,o),
(224,141,o),
(231,146,c),
(252,142,o),
(275,139,o),
(298,139,cs),
(436,139,o),
(543,227,o),
(543,339,cs),
(543,375,o),
(532,408,o),
(513,437,c),
(535,444,o),
(558,447,o),
(583,447,cs),
(598,447,o),
(614,446,o),
(623,444,c),
(621,562,l),
(612,566,o),
(600,568,o),
(585,568,cs),
(535,568,o),
(492,543,o),
(457,493,c),
(414,522,o),
(359,539,o),
(298,539,cs),
(160,539,o),
(53,451,o),
(53,339,cs),
(53,272,o),
(91,214,o),
(151,178,c),
(108,157,o),
(82,122,o),
(82,79,cs),
(82,49,o),
(93,24,o),
(115,5,c),
(56,-12,o),
(17,-48,o),
(17,-91,cs),
(17,-172,o),
(110,-214,o),
(288,-214,cs)
);
},
{
closed = 1;
nodes = (
(244,257,o),
(204,292,o),
(204,339,cs),
(204,386,o),
(244,421,o),
(298,421,cs),
(352,421,o),
(392,386,o),
(392,339,cs),
(392,292,o),
(352,257,o),
(298,257,cs)
);
},
{
closed = 1;
nodes = (
(201,-116,o),
(162,-102,o),
(162,-70,cs),
(162,-52,o),
(178,-39,o),
(203,-33,c),
(225,-37,o),
(249,-40,o),
(276,-40,cs),
(420,-42,ls),
(443,-42,o),
(455,-51,o),
(455,-66,cs),
(455,-97,o),
(392,-116,o),
(288,-116,cs)
);
}
);
userData = {
SBAlt = right;
};
width = 627;
}
);
note = "Version created Sun Jan 13 16:53:00 2019";
},
{
color = (0,0,255,191);
glyphname = gcommaaccent.ss02;
kernLeft = g.alt;
kernRight = g.alt;
lastChange = "2024-11-13 22:14:02 +0000";
layers = (
{
layerId = m001;
shapes = (
{
closed = 1;
nodes = (
(276,756,l),
(225,588,l),
(275,588,l),
(311,756,l)
);
},
{
ref = g.ss02;
}
);
width = 499;
},
{
layerId = "00637EAA-82D4-47CE-A25D-74860BA059DC";
shapes = (
{
closed = 1;
nodes = (
(287,776,l),
(227,597,l),
(301,597,l),
(342,776,l)
);
},
{
ref = g.ss02;
}
);
width = 530;
},
{
layerId = "7F797451-F356-4E8F-9E4B-AB77A40997AF";
shapes = (
{
closed = 1;
nodes = (
(325,833,l),
(236,618,l),
(387,618,l),
(442,833,l)
);
},
{
ref = g.ss02;
}
);
width = 627;
}
);
},
{
glyphname = ordfeminine;
kernLeft = _reg;
kernRight = _reg;
lastChange = "2024-11-06 22:35:57 +0000";
layers = (
{
layerId = m001;
shapes = (
{
closed = 1;
nodes = (
(223,325,o),
(265,341,o),
(298,372,c),
(298,332,l),
(337,332,l),
(337,584,ls),
(337,666,o),
(285,711,o),
(195,711,cs),
(148,711,o),
(106,697,o),
(59,675,c),
(75,643,l),
(118,665,o),
(154,677,o),
(192,677,cs),
(261,677,o),
(298,644,o),
(298,579,cs),
(298,520,l),
(265,540,o),
(225,551,o),
(183,551,cs),
(93,551,o),
(36,507,o),
(36,437,cs),
(36,369,o),
(93,325,o),
(173,325,cs)
);
},
{
closed = 1;
nodes = (
(119,359,o),
(75,390,o),
(75,437,cs),
(75,486,o),
(117,518,o),
(181,518,cs),
(229,518,o),
(266,506,o),
(298,483,c),
(298,409,l),
(267,377,o),
(228,359,o),
(178,359,c)
);
}
);
width = 394;
},
{
layerId = "00637EAA-82D4-47CE-A25D-74860BA059DC";
shapes = (
{
closed = 1;
nodes = (
(220,319,o),
(259,333,o),
(293,361,c),
(293,326,l),
(354,326,l),
(354,578,ls),
(354,663,o),
(300,711,o),
(203,711,cs),
(156,711,o),
(110,699,o),
(55,673,c),
(78,626,l),
(124,648,o),
(160,658,o),
(196,658,cs),
(261,658,o),
(293,628,o),
(293,571,cs),
(293,525,l),
(261,540,o),
(224,548,o),
(186,548,cs),
(92,548,o),
(33,504,o),
(33,433,cs),
(33,365,o),
(90,319,o),
(173,319,cs)
);
},
{
closed = 1;
nodes = (
(130,367,o),
(93,394,o),
(93,435,cs),
(93,477,o),
(130,504,o),
(188,504,cs),
(230,504,o),
(263,496,o),
(293,477,c),
(293,406,l),
(264,380,o),
(228,367,o),
(185,367,c)
);
}
);
width = 408;
},
{
layerId = "7F797451-F356-4E8F-9E4B-AB77A40997AF";
shapes = (
{
closed = 1;
nodes = (
(214,298,o),
(248,307,o),
(280,328,c),
(280,305,l),
(405,305,l),
(405,559,ls),
(405,655,o),
(341,711,o),
(229,711,cs),
(168,711,o),
(107,696,o),
(41,667,c),
(86,574,l),
(139,595,o),
(176,605,o),
(206,605,cs),
(256,605,o),
(280,586,o),
(280,548,cs),
(280,531,l),
(251,537,o),
(222,541,o),
(192,541,cs),
(87,541,o),
(27,497,o),
(27,422,cs),
(27,349,o),
(86,298,o),
(172,298,cs)
);
},
{
closed = 1;
nodes = (
(170,387,o),
(148,401,o),
(148,424,cs),
(148,447,o),
(170,460,o),
(211,460,cs),
(234,460,o),
(257,458,o),
(280,452,c),
(280,404,l),
(260,393,o),
(235,387,o),
(207,387,c)
);
}
);
width = 450;
}
);
unicode = 170;
},
{
glyphname = ordmasculine;
kernLeft = _reg;
kernRight = _reg;
lastChange = "2024-11-06 22:35:57 +0000";
layers = (
{
layerId = m001;
shapes = (
{
closed = 1;
nodes = (
(330,325,o),
(412,410,o),
(412,518,cs),
(412,626,o),
(330,711,o),
(226,711,cs),
(122,711,o),
(40,626,o),
(40,518,cs),
(40,410,o),
(122,325,o),
(226,325,cs)
);
},
{
closed = 1;
nodes = (
(145,363,o),
(80,431,o),
(80,518,cs),
(80,605,o),
(145,673,o),
(226,673,cs),
(307,673,o),
(372,605,o),
(372,518,cs),
(372,431,o),
(307,363,o),
(226,363,cs)
);
}
);
userData = {
com.typemytype.robofont.guideline.magnetic.GFdcbLeA44 = 5;
com.typemytype.robofont.guideline.magnetic.L2oGOM2VOm = 5;
com.typemytype.robofont.guideline.magnetic.bfCfVZKlFe = 5;
};
width = 452;
},
{
layerId = "00637EAA-82D4-47CE-A25D-74860BA059DC";
shapes = (
{
closed = 1;
nodes = (
(340,317,o),
(426,404,o),
(426,514,cs),
(426,624,o),
(340,711,o),
(232,711,cs),
(124,711,o),
(38,624,o),
(38,514,cs),
(38,404,o),
(124,317,o),
(232,317,cs)
);
},
{
closed = 1;
nodes = (
(158,372,o),
(100,434,o),
(100,514,cs),
(100,594,o),
(158,656,o),
(232,656,cs),
(306,656,o),
(364,594,o),
(364,514,cs),
(364,434,o),
(306,372,o),
(232,372,cs)
);
}
);
userData = {
com.typemytype.robofont.guideline.magnetic.GFdcbLeA44 = 5;
com.typemytype.robofont.guideline.magnetic.L2oGOM2VOm = 5;
com.typemytype.robofont.guideline.magnetic.bfCfVZKlFe = 5;
};
width = 464;
},
{
layerId = "7F797451-F356-4E8F-9E4B-AB77A40997AF";
shapes = (
{
closed = 1;
nodes = (
(366,295,o),
(462,386,o),
(462,503,cs),
(462,620,o),
(366,711,o),
(245,711,cs),
(124,711,o),
(28,620,o),
(28,503,cs),
(28,386,o),
(124,295,o),
(245,295,cs)
);
},
{
closed = 1;
nodes = (
(193,405,o),
(152,448,o),
(152,503,cs),
(152,558,o),
(193,601,o),
(245,601,cs),
(297,601,o),
(338,558,o),
(338,503,cs),
(338,448,o),
(297,405,o),
(245,405,cs)
);
}
);
userData = {
com.typemytype.robofont.guideline.magnetic.GFdcbLeA44 = 5;
com.typemytype.robofont.guideline.magnetic.L2oGOM2VOm = 5;
com.typemytype.robofont.guideline.magnetic.bfCfVZKlFe = 5;
};
width = 490;
}
);
unicode = 186;
},
{
glyphname = .notdef;
lastChange = "2024-11-06 22:35:57 +0000";
layers = (
{
layerId = m001;
shapes = (
{
closed = 1;
nodes = (
(454,-100,l),
(454,750,l),
(60,750,l),
(60,-100,l)
);
}
);
width = 514;
},
{
layerId = "00637EAA-82D4-47CE-A25D-74860BA059DC";
shapes = (
{
closed = 1;
nodes = (
(454,-100,l),
(454,750,l),
(60,750,l),
(60,-100,l)
);
}
);
width = 514;
},
{
layerId = "7F797451-F356-4E8F-9E4B-AB77A40997AF";
shapes = (
{
closed = 1;
nodes = (
(454,-100,l),
(454,750,l),
(60,750,l),
(60,-100,l)
);
}
);
width = 514;
}
);
},
{
glyphname = period;
kernLeft = _period;
kernRight = _period;
lastChange = "2024-11-06 22:35:57 +0000";
layers = (
{
layerId = m001;
shapes = (
{
closed = 1;
nodes = (
(146,-5,o),
(163,12,o),
(163,33,cs),
(163,54,o),
(146,71,o),
(125,71,cs),
(104,71,o),
(87,54,o),
(87,33,cs),
(87,12,o),
(104,-5,o),
(125,-5,cs)
);
}
);
userData = {
com.typemytype.robofont.guideline.magnetic.LhAYt9ftpN = 5;
com.typemytype.robofont.guideline.magnetic.jX7KS9eapY = 5;
com.typemytype.robofont.guideline.magnetic.qXZfXXFPOe = 5;
com.typemytype.robofont.guideline.magnetic.tfAL4EPAUj = 5;
com.typemytype.robofont.guideline.magnetic.yUvOvTYZZn = 5;
};
width = 250;
},
{
layerId = "00637EAA-82D4-47CE-A25D-74860BA059DC";
shapes = (
{
closed = 1;
nodes = (
(153,-6,o),
(176,17,o),
(176,45,cs),
(176,73,o),
(153,96,o),
(125,96,cs),
(97,96,o),
(74,73,o),
(74,45,cs),
(74,17,o),
(97,-6,o),
(125,-6,cs)
);
}
);
userData = {
com.typemytype.robofont.guideline.magnetic.LhAYt9ftpN = 5;
com.typemytype.robofont.guideline.magnetic.jX7KS9eapY = 5;
com.typemytype.robofont.guideline.magnetic.qXZfXXFPOe = 5;
com.typemytype.robofont.guideline.magnetic.tfAL4EPAUj = 5;
com.typemytype.robofont.guideline.magnetic.yUvOvTYZZn = 5;
};
width = 250;
},
{
layerId = "7F797451-F356-4E8F-9E4B-AB77A40997AF";
shapes = (
{
closed = 1;
nodes = (
(176,-11,o),
(218,31,o),
(218,82,cs),
(218,133,o),
(176,175,o),
(125,175,cs),
(74,175,o),
(32,133,o),
(32,82,cs),
(32,31,o),
(74,-11,o),
(125,-11,cs)
);
}
);
userData = {
com.typemytype.robofont.guideline.magnetic.LhAYt9ftpN = 5;
com.typemytype.robofont.guideline.magnetic.jX7KS9eapY = 5;
com.typemytype.robofont.guideline.magnetic.qXZfXXFPOe = 5;
com.typemytype.robofont.guideline.magnetic.tfAL4EPAUj = 5;
com.typemytype.robofont.guideline.magnetic.yUvOvTYZZn = 5;
};
width = 250;
}
);
unicode = 46;
},
{
glyphname = comma;
kernLeft = _period;
kernRight = _period;
lastChange = "2024-11-06 22:35:57 +0000";
layers = (
{
layerId = m001;
shapes = (
{
closed = 1;
nodes = (
(101,-131,l),
(167,57,l),
(116,57,l),
(63,-131,l)
);
}
);
userData = {
com.typemytype.robofont.guideline.magnetic.8gCMu6nEr4 = 5;
com.typemytype.robofont.guideline.magnetic.ApGoBVD3Hn = 5;
com.typemytype.robofont.guideline.magnetic.NkBVBTLhwG = 5;
com.typemytype.robofont.guideline.magnetic.bjJOsaWldu = 5;
com.typemytype.robofont.guideline.magnetic.u0CTdG3DKm = 5;
};
width = 250;
},
{
layerId = "00637EAA-82D4-47CE-A25D-74860BA059DC";
shapes = (
{
closed = 1;
nodes = (
(102,-137,l),
(182,74,l),
(102,74,l),
(44,-137,l)
);
}
);
userData = {
com.typemytype.robofont.guideline.magnetic.8gCMu6nEr4 = 5;
com.typemytype.robofont.guideline.magnetic.ApGoBVD3Hn = 5;
com.typemytype.robofont.guideline.magnetic.NkBVBTLhwG = 5;
com.typemytype.robofont.guideline.magnetic.bjJOsaWldu = 5;
com.typemytype.robofont.guideline.magnetic.u0CTdG3DKm = 5;
};
width = 250;
},
{
layerId = "7F797451-F356-4E8F-9E4B-AB77A40997AF";
shapes = (
{
closed = 1;
nodes = (
(107,-157,l),
(226,127,l),
(59,127,l),
(-14,-157,l)
);
}
);
userData = {
com.typemytype.robofont.guideline.magnetic.8gCMu6nEr4 = 5;
com.typemytype.robofont.guideline.magnetic.ApGoBVD3Hn = 5;
com.typemytype.robofont.guideline.magnetic.NkBVBTLhwG = 5;
com.typemytype.robofont.guideline.magnetic.bjJOsaWldu = 5;
com.typemytype.robofont.guideline.magnetic.u0CTdG3DKm = 5;
};
width = 250;
}
);
unicode = 44;
},
{
glyphname = exclam;
lastChange = "2024-11-06 22:35:57 +0000";
layers = (
{
layerId = m001;
shapes = (
{
closed = 1;
nodes = (
(108,187,l),
(113,705,l),
(65,705,l),
(70,187,l)
);
},
{
closed = 1;
nodes = (
(110,-5,o),
(126,12,o),
(126,33,cs),
(126,53,o),
(110,70,o),
(89,70,cs),
(69,70,o),
(52,53,o),
(52,33,cs),
(52,12,o),
(69,-5,o),
(89,-5,cs)
);
}
);
userData = {
com.typemytype.robofont.guideline.magnetic.De3PwU0MJ1 = 5;
com.typemytype.robofont.guideline.magnetic.Y22Lwnt7WF = 5;
com.typemytype.robofont.guideline.magnetic.iIMdgDG6jT = 5;
com.typemytype.robofont.guideline.magnetic.u3NSSs4T0V = 5;
com.typemytype.robofont.guideline.magnetic.yTMNEpVVDd = 5;
};
width = 178;
},
{
layerId = "00637EAA-82D4-47CE-A25D-74860BA059DC";
shapes = (
{
closed = 1;
nodes = (
(128,194,l),
(137,705,l),
(60,705,l),
(69,194,l)
);
},
{
closed = 1;
nodes = (
(127,-6,o),
(150,17,o),
(150,45,cs),
(150,73,o),
(127,96,o),
(99,96,cs),
(71,96,o),
(48,73,o),
(48,45,cs),
(48,17,o),
(71,-6,o),
(99,-6,cs)
);
}
);
userData = {
com.typemytype.robofont.guideline.magnetic.De3PwU0MJ1 = 5;
com.typemytype.robofont.guideline.magnetic.Y22Lwnt7WF = 5;
com.typemytype.robofont.guideline.magnetic.iIMdgDG6jT = 5;
com.typemytype.robofont.guideline.magnetic.u3NSSs4T0V = 5;
com.typemytype.robofont.guideline.magnetic.yTMNEpVVDd = 5;
};
width = 198;
},
{
layerId = "7F797451-F356-4E8F-9E4B-AB77A40997AF";
shapes = (
{
closed = 1;
nodes = (
(191,216,l),
(211,705,l),
(47,705,l),
(67,216,l)
);
},
{
closed = 1;
nodes = (
(180,-11,o),
(222,31,o),
(222,82,cs),
(222,133,o),
(180,175,o),
(129,175,cs),
(78,175,o),
(36,133,o),
(36,82,cs),
(36,31,o),
(78,-11,o),
(129,-11,cs)
);
}
);
userData = {
com.typemytype.robofont.guideline.magnetic.De3PwU0MJ1 = 5;
com.typemytype.robofont.guideline.magnetic.Y22Lwnt7WF = 5;
com.typemytype.robofont.guideline.magnetic.iIMdgDG6jT = 5;
com.typemytype.robofont.guideline.magnetic.u3NSSs4T0V = 5;
com.typemytype.robofont.guideline.magnetic.yTMNEpVVDd = 5;
};
width = 258;
}
);
unicode = 33;
},
{
color = (0,0,255,191);
glyphname = exclamdown;
lastChange = "2024-11-06 22:35:57 +0000";
layers = (
{
layerId = m001;
shapes = (
{
closed = 1;
nodes = (
(70,310,l),
(65,-208,l),
(113,-208,l),
(108,310,l)
);
},
{
closed = 1;
nodes = (
(68,502,o),
(52,485,o),
(52,464,cs),
(52,444,o),
(68,427,o),
(89,427,cs),
(109,427,o),
(126,444,o),
(126,464,cs),
(126,485,o),
(109,502,o),
(89,502,cs)
);
}
);
userData = {
com.typemytype.robofont.guideline.magnetic.2V62fttru6 = 5;
com.typemytype.robofont.guideline.magnetic.2gIryhMM6S = 5;
com.typemytype.robofont.guideline.magnetic.NoAEDe3b1e = 5;
com.typemytype.robofont.guideline.magnetic.NxApnrOgNh = 5;
com.typemytype.robofont.guideline.magnetic.SjoCyDFycZ = 5;
};
width = 178;
},
{
layerId = "00637EAA-82D4-47CE-A25D-74860BA059DC";
shapes = (
{
closed = 1;
nodes = (
(70,303,l),
(61,-208,l),
(138,-208,l),
(129,303,l)
);
},
{
closed = 1;
nodes = (
(71,503,o),
(48,480,o),
(48,452,cs),
(48,424,o),
(71,401,o),
(99,401,cs),
(127,401,o),
(150,424,o),
(150,452,cs),
(150,480,o),
(127,503,o),
(99,503,cs)
);
}
);
userData = {
com.typemytype.robofont.guideline.magnetic.2V62fttru6 = 5;
com.typemytype.robofont.guideline.magnetic.2gIryhMM6S = 5;
com.typemytype.robofont.guideline.magnetic.NoAEDe3b1e = 5;
com.typemytype.robofont.guideline.magnetic.NxApnrOgNh = 5;
com.typemytype.robofont.guideline.magnetic.SjoCyDFycZ = 5;
};
width = 198;
},
{
layerId = "7F797451-F356-4E8F-9E4B-AB77A40997AF";
shapes = (
{
closed = 1;
nodes = (
(67,281,l),
(47,-208,l),
(211,-208,l),
(191,281,l)
);
},
{
closed = 1;
nodes = (
(78,508,o),
(36,466,o),
(36,415,cs),
(36,364,o),
(78,322,o),
(129,322,cs),
(180,322,o),
(222,364,o),
(222,415,cs),
(222,466,o),
(180,508,o),
(129,508,cs)
);
}
);
userData = {
com.typemytype.robofont.guideline.magnetic.2V62fttru6 = 5;
com.typemytype.robofont.guideline.magnetic.2gIryhMM6S = 5;
com.typemytype.robofont.guideline.magnetic.NoAEDe3b1e = 5;
com.typemytype.robofont.guideline.magnetic.NxApnrOgNh = 5;
com.typemytype.robofont.guideline.magnetic.SjoCyDFycZ = 5;
};
width = 258;
}
);
unicode = 161;
},
{
glyphname = question;
lastChange = "2024-11-06 22:35:57 +0000";
layers = (
{
layerId = m001;
shapes = (
{
closed = 1;
nodes = (
(236,193,l),
(231,258,o),
(245,309,o),
(302,349,cs),
(340,376,ls),
(418,430,o),
(453,470,o),
(453,544,cs),
(453,637,o),
(368,711,o),
(249,711,c),
(174,711,o),
(98,682,o),
(29,610,c),
(62,575,l),
(120,641,o),
(183,667,o),
(246,667,cs),
(337,667,o),
(407,614,o),
(407,546,cs),
(407,489,o),
(380,455,o),
(320,413,cs),
(279,384,ls),
(209,334,o),
(190,277,o),
(195,193,c)
);
},
{
closed = 1;
nodes = (
(236,-5,o),
(253,12,o),
(253,33,cs),
(253,53,o),
(236,70,o),
(216,70,cs),
(195,70,o),
(178,53,o),
(178,33,cs),
(178,12,o),
(195,-5,o),
(216,-5,cs)
);
}
);
userData = {
com.typemytype.robofont.guideline.magnetic.6VL9rfKkUL = 5;
com.typemytype.robofont.guideline.magnetic.6wYYkvCEK0 = 5;
com.typemytype.robofont.guideline.magnetic.Aouqovru8u = 5;
com.typemytype.robofont.guideline.magnetic.VSxP7xUR8E = 5;
com.typemytype.robofont.guideline.magnetic.zSOH3qpZ29 = 5;
};
width = 500;
},
{
layerId = "00637EAA-82D4-47CE-A25D-74860BA059DC";
shapes = (
{
closed = 1;
nodes = (
(252,199,l),
(247,266,o),
(266,308,o),
(315,342,cs),
(349,366,ls),
(438,427,o),
(466,469,o),
(466,538,cs),
(466,637,o),
(374,711,o),
(252,711,c),
(160,711,o),
(78,669,o),
(20,593,c),
(78,555,l),
(123,614,o),
(182,645,o),
(248,645,cs),
(329,645,o),
(393,598,o),
(393,537,cs),
(393,492,o),
(372,461,o),
(314,419,cs),
(270,388,ls),
(205,341,o),
(183,290,o),
(188,199,c)
);
},
{
closed = 1;
nodes = (
(248,-6,o),
(271,17,o),
(271,45,cs),
(271,73,o),
(248,96,o),
(220,96,cs),
(192,96,o),
(169,73,o),
(169,45,cs),
(169,17,o),
(192,-6,o),
(220,-6,cs)
);
}
);
userData = {
com.typemytype.robofont.guideline.magnetic.6VL9rfKkUL = 5;
com.typemytype.robofont.guideline.magnetic.6wYYkvCEK0 = 5;
com.typemytype.robofont.guideline.magnetic.Aouqovru8u = 5;
com.typemytype.robofont.guideline.magnetic.VSxP7xUR8E = 5;
com.typemytype.robofont.guideline.magnetic.zSOH3qpZ29 = 5;
};
width = 506;
},
{
layerId = "7F797451-F356-4E8F-9E4B-AB77A40997AF";
shapes = (
{
closed = 1;
nodes = (
(311,218,l),
(310,267,o),
(323,293,o),
(362,319,cs),
(387,336,ls),
(482,401,o),
(513,445,o),
(513,519,cs),
(513,628,o),
(408,711,o),
(269,711,c),
(145,711,o),
(41,645,o),
(3,542,c),
(134,493,l),
(154,544,o),
(205,577,o),
(263,577,cs),
(316,577,o),
(355,548,o),
(355,509,cs),
(355,487,o),
(339,465,o),
(305,440,cs),
(251,400,ls),
(188,353,o),
(171,311,o),
(176,218,c)
);
},
{
closed = 1;
nodes = (
(295,-11,o),
(337,31,o),
(337,82,cs),
(337,133,o),
(295,175,o),
(244,175,cs),
(193,175,o),
(151,133,o),
(151,82,cs),
(151,31,o),
(193,-11,o),
(244,-11,cs)
);
}
);
userData = {
com.typemytype.robofont.guideline.magnetic.6VL9rfKkUL = 5;
com.typemytype.robofont.guideline.magnetic.6wYYkvCEK0 = 5;
com.typemytype.robofont.guideline.magnetic.Aouqovru8u = 5;
com.typemytype.robofont.guideline.magnetic.VSxP7xUR8E = 5;
com.typemytype.robofont.guideline.magnetic.zSOH3qpZ29 = 5;
};
width = 534;
}
);
unicode = 63;
},
{
color = (0,0,255,191);
glyphname = questiondown;
lastChange = "2024-11-06 22:35:57 +0000";
layers = (
{
layerId = m001;
shapes = (
{
closed = 1;
nodes = (
(264,304,l),
(269,239,o),
(255,188,o),
(198,148,cs),
(160,121,ls),
(82,67,o),
(47,27,o),
(47,-47,cs),
(47,-140,o),
(132,-214,o),
(251,-214,c),
(326,-214,o),
(402,-185,o),
(471,-113,c),
(438,-78,l),
(380,-144,o),
(317,-170,o),
(254,-170,cs),
(163,-170,o),
(93,-117,o),
(93,-49,cs),
(93,8,o),
(120,42,o),
(180,84,cs),
(221,113,ls),
(291,163,o),
(310,220,o),
(305,304,c)
);
},
{
closed = 1;
nodes = (
(264,502,o),
(247,485,o),
(247,464,cs),
(247,444,o),
(264,427,o),
(284,427,cs),
(305,427,o),
(322,444,o),
(322,464,cs),
(322,485,o),
(305,502,o),
(284,502,cs)
);
}
);
userData = {
com.typemytype.robofont.guideline.magnetic.KHMLoJl0Y2 = 5;
com.typemytype.robofont.guideline.magnetic.NVuLzBB4vL = 5;
com.typemytype.robofont.guideline.magnetic.NfVRjmb1DX = 5;
com.typemytype.robofont.guideline.magnetic.QPPeQvs3JH = 5;
com.typemytype.robofont.guideline.magnetic.iHdMHo2nFi = 5;
};
width = 500;
},
{
layerId = "00637EAA-82D4-47CE-A25D-74860BA059DC";
shapes = (
{
closed = 1;
nodes = (
(254,298,l),
(259,231,o),
(240,189,o),
(191,155,cs),
(157,131,ls),
(68,70,o),
(40,28,o),
(40,-41,cs),
(40,-140,o),
(132,-214,o),
(254,-214,c),
(346,-214,o),
(428,-172,o),
(486,-96,c),
(428,-58,l),
(383,-117,o),
(324,-148,o),
(258,-148,cs),
(177,-148,o),
(113,-101,o),
(113,-40,cs),
(113,5,o),
(134,36,o),
(192,78,cs),
(236,109,ls),
(301,156,o),
(323,207,o),
(318,298,c)
);
},
{
closed = 1;
nodes = (
(258,503,o),
(235,480,o),
(235,452,cs),
(235,424,o),
(258,401,o),
(286,401,cs),
(314,401,o),
(337,424,o),
(337,452,cs),
(337,480,o),
(314,503,o),
(286,503,cs)
);
}
);
userData = {
com.typemytype.robofont.guideline.magnetic.KHMLoJl0Y2 = 5;
com.typemytype.robofont.guideline.magnetic.NVuLzBB4vL = 5;
com.typemytype.robofont.guideline.magnetic.NfVRjmb1DX = 5;
com.typemytype.robofont.guideline.magnetic.QPPeQvs3JH = 5;
com.typemytype.robofont.guideline.magnetic.iHdMHo2nFi = 5;
};
width = 506;
},
{
layerId = "7F797451-F356-4E8F-9E4B-AB77A40997AF";
shapes = (
{
closed = 1;
nodes = (
(210,279,l),
(211,230,o),
(198,204,o),
(159,178,cs),
(134,161,ls),
(39,96,o),
(8,52,o),
(8,-22,cs),
(8,-131,o),
(113,-214,o),
(252,-214,c),
(376,-214,o),
(480,-148,o),
(518,-45,c),
(387,4,l),
(367,-47,o),
(316,-80,o),
(258,-80,cs),
(205,-80,o),
(166,-51,o),
(166,-12,cs),
(166,10,o),
(182,32,o),
(216,57,cs),
(270,97,ls),
(333,144,o),
(350,186,o),
(345,279,c)
);
},
{
closed = 1;
nodes = (
(226,508,o),
(184,466,o),
(184,415,cs),
(184,364,o),
(226,322,o),
(277,322,cs),
(328,322,o),
(370,364,o),
(370,415,cs),
(370,466,o),
(328,508,o),
(277,508,cs)
);
}
);
userData = {
com.typemytype.robofont.guideline.magnetic.KHMLoJl0Y2 = 5;
com.typemytype.robofont.guideline.magnetic.NVuLzBB4vL = 5;
com.typemytype.robofont.guideline.magnetic.NfVRjmb1DX = 5;
com.typemytype.robofont.guideline.magnetic.QPPeQvs3JH = 5;
com.typemytype.robofont.guideline.magnetic.iHdMHo2nFi = 5;
};
width = 534;
}
);
unicode = 191;
},
{
color = 5;
glyphname = periodcentered;
lastChange = "2024-11-13 22:15:05 +0000";
layers = (
{
layerId = m001;
shapes = (
{
closed = 1;
nodes = (
(146,242,o),
(163,259,o),
(163,280,cs),
(163,301,o),
(146,318,o),
(125,318,cs),
(104,318,o),
(87,301,o),
(87,280,cs),
(87,259,o),
(104,242,o),
(125,242,cs)
);
}
);
width = 250;
},
{
layerId = "00637EAA-82D4-47CE-A25D-74860BA059DC";
shapes = (
{
closed = 1;
nodes = (
(153,231,o),
(176,254,o),
(176,282,cs),
(176,310,o),
(153,333,o),
(125,333,cs),
(97,333,o),
(74,310,o),
(74,282,cs),
(74,254,o),
(97,231,o),
(125,231,cs)
);
}
);
width = 250;
},
{
layerId = "7F797451-F356-4E8F-9E4B-AB77A40997AF";
shapes = (
{
closed = 1;
nodes = (
(176,194,o),
(218,236,o),
(218,287,cs),
(218,338,o),
(176,380,o),
(125,380,cs),
(74,380,o),
(32,338,o),
(32,287,cs),
(32,236,o),
(74,194,o),
(125,194,cs)
);
}
);
width = 250;
}
);
unicode = 183;
},
{
glyphname = bullet;
lastChange = "2024-11-06 22:35:57 +0000";
layers = (
{
layerId = m001;
shapes = (
{
closed = 1;
nodes = (
(209,267,o),
(251,310,o),
(251,362,cs),
(251,414,o),
(209,457,o),
(158,457,cs),
(107,457,o),
(65,414,o),
(65,362,cs),
(65,310,o),
(107,267,o),
(158,267,cs)
);
}
);
width = 316;
},
{
layerId = "00637EAA-82D4-47CE-A25D-74860BA059DC";
shapes = (
{
closed = 1;
nodes = (
(220,252,o),
(265,297,o),
(265,352,cs),
(265,408,o),
(219,454,o),
(163,454,cs),
(108,454,o),
(63,408,o),
(63,352,cs),
(63,297,o),
(108,252,o),
(163,252,cs)
);
}
);
width = 328;
},
{
layerId = "7F797451-F356-4E8F-9E4B-AB77A40997AF";
shapes = (
{
closed = 1;
nodes = (
(253,201,o),
(307,255,o),
(307,323,cs),
(307,391,o),
(253,445,o),
(183,445,cs),
(113,445,o),
(59,391,o),
(59,323,cs),
(59,255,o),
(113,201,o),
(183,201,cs)
);
}
);
width = 366;
}
);
unicode = 8226;
},
{
glyphname = asterisk;
kernLeft = _reg;
kernRight = _reg;
lastChange = "2024-11-06 22:35:57 +0000";
layers = (
{
layerId = m001;
shapes = (
{
closed = 1;
nodes = (
(235,352,l),
(233,502,l),
(358,424,l),
(378,454,l),
(249,532,l),
(373,606,l),
(353,636,l),
(233,563,l),
(235,700,l),
(197,700,l),
(199,562,l),
(79,636,l),
(59,606,l),
(182,532,l),
(54,454,l),
(73,423,l),
(199,501,l),
(197,352,l)
);
}
);
width = 432;
},
{
layerId = "00637EAA-82D4-47CE-A25D-74860BA059DC";
shapes = (
{
closed = 1;
nodes = (
(250,341,l),
(248,479,l),
(366,406,l),
(397,451,l),
(272,524,l),
(392,596,l),
(362,640,l),
(249,570,l),
(250,700,l),
(196,700,l),
(197,569,l),
(83,640,l),
(54,596,l),
(174,524,l),
(50,451,l),
(79,406,l),
(198,479,l),
(196,341,l)
);
}
);
width = 446;
},
{
layerId = "7F797451-F356-4E8F-9E4B-AB77A40997AF";
shapes = (
{
closed = 1;
nodes = (
(296,306,l),
(294,412,l),
(391,351,l),
(449,438,l),
(340,501,l),
(451,567,l),
(394,652,l),
(294,589,l),
(296,700,l),
(193,700,l),
(195,589,l),
(95,652,l),
(38,567,l),
(149,501,l),
(40,438,l),
(96,351,l),
(195,413,l),
(193,306,l)
);
}
);
width = 487;
}
);
unicode = 42;
},
{
glyphname = numbersign;
lastChange = "2024-11-06 22:35:57 +0000";
layers = (
{
layerId = m001;
shapes = (
{
closed = 1;
nodes = (
(126,0,l),
(192,230,l),
(411,230,l),
(345,0,l),
(388,0,l),
(454,230,l),
(590,230,l),
(590,270,l),
(465,270,l),
(511,430,l),
(640,430,l),
(640,470,l),
(522,470,l),
(588,700,l),
(545,700,l),
(479,470,l),
(260,470,l),
(326,700,l),
(283,700,l),
(217,470,l),
(80,470,l),
(80,430,l),
(206,430,l),
(160,270,l),
(30,270,l),
(30,230,l),
(149,230,l),
(83,0,l)
);
},
{
closed = 1;
nodes = (
(249,430,l),
(468,430,l),
(422,270,l),
(203,270,l)
);
}
);
width = 670;
},
{
layerId = "00637EAA-82D4-47CE-A25D-74860BA059DC";
shapes = (
{
closed = 1;
nodes = (
(147,0,l),
(210,219,l),
(408,219,l),
(345,0,l),
(413,0,l),
(476,219,l),
(612,219,l),
(612,277,l),
(492,277,l),
(534,423,l),
(662,423,l),
(662,481,l),
(550,481,l),
(613,700,l),
(545,700,l),
(482,481,l),
(284,481,l),
(347,700,l),
(279,700,l),
(216,481,l),
(80,481,l),
(80,423,l),
(200,423,l),
(158,277,l),
(30,277,l),
(30,219,l),
(142,219,l),
(79,0,l)
);
},
{
closed = 1;
nodes = (
(268,423,l),
(466,423,l),
(424,277,l),
(226,277,l)
);
}
);
width = 692;
},
{
layerId = "7F797451-F356-4E8F-9E4B-AB77A40997AF";
shapes = (
{
closed = 1;
nodes = (
(212,0,l),
(265,184,l),
(398,184,l),
(345,0,l),
(489,0,l),
(542,184,l),
(678,184,l),
(678,298,l),
(574,298,l),
(604,402,l),
(728,402,l),
(728,516,l),
(636,516,l),
(689,700,l),
(545,700,l),
(492,516,l),
(359,516,l),
(412,700,l),
(267,700,l),
(214,516,l),
(79,516,l),
(79,402,l),
(182,402,l),
(152,298,l),
(29,298,l),
(29,184,l),
(120,184,l),
(67,0,l)
);
},
{
closed = 1;
nodes = (
(327,402,l),
(460,402,l),
(430,298,l),
(297,298,l)
);
}
);
width = 757;
}
);
unicode = 35;
},
{
glyphname = slash;
lastChange = "2024-11-06 22:35:57 +0000";
layers = (
{
layerId = m001;
shapes = (
{
closed = 1;
nodes = (
(-19,-204,l),
(401,700,l),
(354,700,l),
(-66,-204,l)
);
}
);
width = 433;
},
{
layerId = "00637EAA-82D4-47CE-A25D-74860BA059DC";
shapes = (
{
closed = 1;
nodes = (
(7,-204,l),
(429,700,l),
(354,700,l),
(-67,-204,l)
);
}
);
width = 457;
},
{
layerId = "7F797451-F356-4E8F-9E4B-AB77A40997AF";
shapes = (
{
closed = 1;
nodes = (
(102,-209,l),
(503,700,l),
(349,700,l),
(-53,-209,l)
);
}
);
width = 534;
}
);
unicode = 47;
},
{
glyphname = backslash;
lastChange = "2024-11-06 22:35:57 +0000";
layers = (
{
layerId = m001;
shapes = (
{
closed = 1;
nodes = (
(502,-204,l),
(82,700,l),
(34,700,l),
(454,-204,l)
);
}
);
width = 437;
},
{
layerId = "00637EAA-82D4-47CE-A25D-74860BA059DC";
shapes = (
{
closed = 1;
nodes = (
(529,-204,l),
(107,700,l),
(30,700,l),
(451,-204,l)
);
}
);
width = 462;
},
{
layerId = "7F797451-F356-4E8F-9E4B-AB77A40997AF";
shapes = (
{
closed = 1;
nodes = (
(596,-209,l),
(194,700,l),
(31,700,l),
(434,-209,l)
);
}
);
width = 543;
}
);
unicode = 92;
},
{
color = (0,0,255,191);
glyphname = exclamdown.cap;
lastChange = "2024-11-06 22:35:57 +0000";
layers = (
{
layerId = m001;
shapes = (
{
closed = 1;
nodes = (
(70,518,l),
(65,0,l),
(113,0,l),
(108,518,l)
);
},
{
closed = 1;
nodes = (
(68,710,o),
(52,693,o),
(52,672,cs),
(52,652,o),
(68,635,o),
(89,635,cs),
(109,635,o),
(126,652,o),
(126,672,cs),
(126,693,o),
(109,710,o),
(89,710,cs)
);
}
);
userData = {
com.typemytype.robofont.guideline.magnetic.0C2kWGiRmU = 5;
com.typemytype.robofont.guideline.magnetic.CBajzZtwAP = 5;
com.typemytype.robofont.guideline.magnetic.GCmpGkTSpb = 5;
com.typemytype.robofont.guideline.magnetic.SYuR4psgeS = 5;
com.typemytype.robofont.guideline.magnetic.nHXIicSWkU = 5;
};
width = 178;
},
{
layerId = "00637EAA-82D4-47CE-A25D-74860BA059DC";
shapes = (
{
closed = 1;
nodes = (
(70,505,l),
(61,-6,l),
(138,-6,l),
(129,505,l)
);
},
{
closed = 1;
nodes = (
(71,705,o),
(48,682,o),
(48,654,cs),
(48,626,o),
(71,603,o),
(99,603,cs),
(127,603,o),
(150,626,o),
(150,654,cs),
(150,682,o),
(127,705,o),
(99,705,cs)
);
}
);
userData = {
com.typemytype.robofont.guideline.magnetic.0C2kWGiRmU = 5;
com.typemytype.robofont.guideline.magnetic.CBajzZtwAP = 5;
com.typemytype.robofont.guideline.magnetic.GCmpGkTSpb = 5;
com.typemytype.robofont.guideline.magnetic.SYuR4psgeS = 5;
com.typemytype.robofont.guideline.magnetic.nHXIicSWkU = 5;
};
width = 198;
},
{
layerId = "7F797451-F356-4E8F-9E4B-AB77A40997AF";
shapes = (
{
closed = 1;
nodes = (
(84,484,l),
(64,-5,l),
(228,-5,l),
(208,484,l)
);
},
{
closed = 1;
nodes = (
(95,711,o),
(53,669,o),
(53,618,cs),
(53,567,o),
(95,525,o),
(146,525,cs),
(197,525,o),
(239,567,o),
(239,618,cs),
(239,669,o),
(197,711,o),
(146,711,cs)
);
}
);
userData = {
com.typemytype.robofont.guideline.magnetic.0C2kWGiRmU = 5;
com.typemytype.robofont.guideline.magnetic.CBajzZtwAP = 5;
com.typemytype.robofont.guideline.magnetic.GCmpGkTSpb = 5;
com.typemytype.robofont.guideline.magnetic.SYuR4psgeS = 5;
com.typemytype.robofont.guideline.magnetic.nHXIicSWkU = 5;
};
width = 275;
}
);
},
{
color = (0,0,255,191);
glyphname = questiondown.cap;
lastChange = "2024-11-06 22:35:57 +0000";
layers = (
{
layerId = m001;
shapes = (
{
closed = 1;
nodes = (
(264,507,l),
(269,442,o),
(255,391,o),
(198,351,cs),
(160,324,ls),
(82,270,o),
(47,230,o),
(47,156,cs),
(47,63,o),
(132,-11,o),
(251,-11,c),
(326,-11,o),
(402,18,o),
(471,90,c),
(438,125,l),
(380,59,o),
(317,33,o),
(254,33,cs),
(163,33,o),
(93,86,o),
(93,154,cs),
(93,211,o),
(120,245,o),
(180,287,cs),
(221,316,ls),
(291,366,o),
(310,423,o),
(305,507,c)
);
},
{
closed = 1;
nodes = (
(264,705,o),
(247,688,o),
(247,667,cs),
(247,647,o),
(264,630,o),
(284,630,cs),
(305,630,o),
(322,647,o),
(322,667,cs),
(322,688,o),
(305,705,o),
(284,705,cs)
);
}
);
userData = {
com.typemytype.robofont.guideline.magnetic.IMaz5fMtzt = 5;
com.typemytype.robofont.guideline.magnetic.cziLJTzKvC = 5;
com.typemytype.robofont.guideline.magnetic.dciOJGCLsF = 5;
com.typemytype.robofont.guideline.magnetic.gtoWSp4rHE = 5;
com.typemytype.robofont.guideline.magnetic.j2JtakW70K = 5;
};
width = 500;
},
{
layerId = "00637EAA-82D4-47CE-A25D-74860BA059DC";
shapes = (
{
closed = 1;
nodes = (
(254,501,l),
(259,434,o),
(240,392,o),
(191,358,cs),
(157,334,ls),
(68,273,o),
(40,231,o),
(40,162,cs),
(40,63,o),
(132,-11,o),
(254,-11,c),
(346,-11,o),
(428,31,o),
(486,107,c),
(428,145,l),
(383,86,o),
(324,55,o),
(258,55,cs),
(177,55,o),
(113,102,o),
(113,163,cs),
(113,208,o),
(134,239,o),
(192,281,cs),
(236,312,ls),
(301,359,o),
(323,410,o),
(318,501,c)
);
},
{
closed = 1;
nodes = (
(258,706,o),
(235,683,o),
(235,655,cs),
(235,627,o),
(258,604,o),
(286,604,cs),
(314,604,o),
(337,627,o),
(337,655,cs),
(337,683,o),
(314,706,o),
(286,706,cs)
);
}
);
userData = {
com.typemytype.robofont.guideline.magnetic.IMaz5fMtzt = 5;
com.typemytype.robofont.guideline.magnetic.cziLJTzKvC = 5;
com.typemytype.robofont.guideline.magnetic.dciOJGCLsF = 5;
com.typemytype.robofont.guideline.magnetic.gtoWSp4rHE = 5;
com.typemytype.robofont.guideline.magnetic.j2JtakW70K = 5;
};
width = 506;
},
{
layerId = "7F797451-F356-4E8F-9E4B-AB77A40997AF";
shapes = (
{
closed = 1;
nodes = (
(226,482,l),
(227,433,o),
(214,407,o),
(175,381,cs),
(150,364,ls),
(55,299,o),
(24,255,o),
(24,181,cs),
(24,72,o),
(129,-11,o),
(268,-11,c),
(392,-11,o),
(496,55,o),
(534,158,c),
(403,207,l),
(383,156,o),
(332,123,o),
(274,123,cs),
(221,123,o),
(182,152,o),
(182,191,cs),
(182,213,o),
(198,235,o),
(232,260,cs),
(286,300,ls),
(349,347,o),
(366,389,o),
(361,482,c)
);
},
{
closed = 1;
nodes = (
(242,711,o),
(200,669,o),
(200,618,cs),
(200,567,o),
(242,525,o),
(293,525,cs),
(344,525,o),
(386,567,o),
(386,618,cs),
(386,669,o),
(344,711,o),
(293,711,cs)
);
}
);
userData = {
com.typemytype.robofont.guideline.magnetic.IMaz5fMtzt = 5;
com.typemytype.robofont.guideline.magnetic.cziLJTzKvC = 5;
com.typemytype.robofont.guideline.magnetic.dciOJGCLsF = 5;
com.typemytype.robofont.guideline.magnetic.gtoWSp4rHE = 5;
com.typemytype.robofont.guideline.magnetic.j2JtakW70K = 5;
};
width = 537;
}
);
},
